<svg width="32" height="32" xmlns="http://www.w3.org/2000/svg">

 <g>
  <title>background</title>
  <rect fill="none" id="canvas_background" height="34" width="34" y="-1" x="-1"/>
 </g>
 <g>
  <title>Layer 1</title>
  <path id="svg_3" fill="#144c68" d="m16,30c-3.74,0 -7.255,-1.456 -9.899,-4.101c-2.645,-2.644 -4.101,-6.16 -4.101,-9.899s1.456,-7.255 4.101,-9.899c0.195,-0.195 0.512,-0.195 0.707,0s0.195,0.512 0,0.707c-2.456,2.456 -3.808,5.719 -3.808,9.192s1.352,6.736 3.808,9.192c2.455,2.455 5.719,3.808 9.192,3.808s6.737,-1.353 9.192,-3.808c2.456,-2.456 3.808,-5.719 3.808,-9.192s-1.352,-6.736 -3.808,-9.192c-4.401,-4.402 -11.33,-5.066 -16.473,-1.58c-0.228,0.153 -0.539,0.094 -0.695,-0.134c-0.154,-0.229 -0.095,-0.539 0.134,-0.695c5.542,-3.753 13.002,-3.038 17.741,1.702c2.645,2.644 4.101,6.16 4.101,9.899s-1.456,7.255 -4.101,9.899c-2.644,2.645 -6.159,4.101 -9.899,4.101z"/>
  <path id="svg_5" fill="#31789b" d="m16,27c-6.065,0 -11,-4.935 -11,-11s4.935,-11 11,-11s11,4.935 11,11s-4.935,11 -11,11zm0,-21c-5.514,0 -10,4.486 -10,10s4.486,10 10,10s10,-4.486 10,-10s-4.486,-10 -10,-10z"/>
  <path id="svg_8" fill="#6ba6c4" d="m15.999,18.949c-0.091,0 -0.182,-0.024 -0.262,-0.074l-4.626,-2.852c-0.232,-0.144 -0.307,-0.446 -0.168,-0.681l4.626,-7.809c0.18,-0.305 0.681,-0.305 0.86,0l4.626,7.809c0.139,0.234 0.064,0.537 -0.168,0.681l-4.626,2.852c-0.08,0.05 -0.172,0.074 -0.262,0.074zm-3.946,-3.519l3.945,2.433l3.946,-2.433l-3.946,-6.66l-3.945,6.66z"/>
  <path id="svg_10" fill="#144c68" d="m15.999,24.512l0,0c-0.153,0 -0.297,-0.069 -0.392,-0.189l-4.837,-6.091c-0.151,-0.189 -0.144,-0.461 0.018,-0.643c0.162,-0.183 0.432,-0.222 0.637,-0.093l4.575,2.835l4.581,-2.815c0.206,-0.127 0.475,-0.088 0.636,0.095c0.161,0.182 0.168,0.453 0.016,0.643l-4.843,6.07c-0.095,0.118 -0.239,0.188 -0.391,0.188zm-2.659,-4.653l2.66,3.35l2.668,-3.344l-2.408,1.479c-0.161,0.1 -0.364,0.098 -0.525,-0.001l-2.395,-1.484z"/>
 </g>
</svg>