<?xml version="1.0" encoding="utf-8"?>
<svg viewBox="506.377 195.557 468.789 156.297" width="468.789" height="156.297" xmlns="http://www.w3.org/2000/svg" xmlns:xlink="http://www.w3.org/1999/xlink" xmlns:bx="https://boxy-svg.com">
  <defs>
    <radialGradient id="gradient-8-10" gradientUnits="userSpaceOnUse" cx="365.25" cy="911.295" r="6.94" xlink:href="#gradient-8"/>
    <linearGradient id="gradient-8" bx:pinned="true">
      <title>subsidiumfade</title>
      <stop offset="0" style="stop-color: rgb(204, 28, 252);"/>
      <stop offset="0.52" style="stop-color: rgba(0, 47, 254, 0.94);"/>
      <stop offset="1" style="stop-color: rgb(149, 0, 255);"/>
    </linearGradient>
    <radialGradient id="gradient-8-11" gradientUnits="userSpaceOnUse" cx="365.25" cy="911.295" r="6.94" xlink:href="#gradient-8"/>
    <radialGradient id="gradient-8-8" gradientUnits="userSpaceOnUse" cx="344.63" cy="1072.875" r="6.94" xlink:href="#gradient-8"/>
    <radialGradient id="gradient-8-9" gradientUnits="userSpaceOnUse" cx="344.63" cy="1072.875" r="6.94" xlink:href="#gradient-8"/>
    <linearGradient id="gradient-8-6" gradientUnits="userSpaceOnUse" x1="297.04" y1="765.87" x2="297.04" y2="1106.54" xlink:href="#gradient-8"/>
    <linearGradient id="gradient-8-7" gradientUnits="userSpaceOnUse" x1="297.04" y1="765.87" x2="297.04" y2="1106.54" xlink:href="#gradient-8"/>
    <linearGradient id="gradient-8-0" gradientUnits="userSpaceOnUse" x1="1018.48" y1="776.27" x2="1018.48" y2="1085.54" xlink:href="#gradient-8"/>
    <linearGradient id="gradient-8-1" gradientUnits="userSpaceOnUse" x1="1018.48" y1="776.27" x2="1018.48" y2="1085.54" xlink:href="#gradient-8"/>
    <linearGradient id="gradient-8-2" gradientUnits="userSpaceOnUse" x1="670.625" y1="838.418" x2="670.625" y2="1047.49" xlink:href="#gradient-8"/>
    <linearGradient id="gradient-8-3" gradientUnits="userSpaceOnUse" x1="670.625" y1="838.418" x2="670.625" y2="1047.49" xlink:href="#gradient-8"/>
    <radialGradient id="gradient-8-4" gradientUnits="userSpaceOnUse" cx="605.97" cy="889.345" r="5.23" xlink:href="#gradient-8"/>
    <radialGradient id="gradient-8-5" gradientUnits="userSpaceOnUse" cx="605.97" cy="889.345" r="5.23" xlink:href="#gradient-8"/>
  </defs>
  <g transform="matrix(0.458792, 0, 0, 0.458792, 449.169925, -155.818483)" style="">
    <path d="M340.1 972.1C340.1 965.03 346.74 959.28 354.91 959.28C363.08 959.28 369.72 965.03 369.72 972.1C369.72 975.82 372.73 978.83 376.45 978.83C380.17 978.83 383.18 975.82 383.18 972.1C383.18 959.76 373.99 949.39 361.64 946.58C361.64 946.23 361.64 943.42 361.64 943.07C361.64 939.36 358.63 936.34 354.91 936.34C351.19 936.34 348.18 939.36 348.18 943.07C348.18 943.42 348.18 946.23 348.18 946.58C335.82 949.39 326.63 959.76 326.63 972.1C326.63 986.59 339.32 998.39 354.91 998.39C363.08 998.39 369.72 1004.14 369.72 1011.21C369.72 1018.28 363.08 1024.03 354.91 1024.03C346.74 1024.03 340.1 1018.28 340.1 1011.21C340.1 1007.49 337.08 1004.47 333.36 1004.47C329.65 1004.47 326.63 1007.49 326.63 1011.21C326.63 1023.54 335.82 1033.92 348.18 1036.73C348.18 1037.02 348.18 1039.35 348.18 1039.64C348.18 1043.36 351.19 1046.37 354.91 1046.37C358.63 1046.37 361.64 1043.36 361.64 1039.64C361.64 1039.35 361.64 1037.02 361.64 1036.73C373.99 1033.92 383.18 1023.54 383.18 1011.21C383.18 996.71 370.5 984.92 354.91 984.92C346.74 984.92 340.1 979.17 340.1 972.1Z" transform="matrix(1, 0, 0, 1, 0, 0)" opacity="1" fill-opacity="1" style="fill: rgb(245, 245, 245); stroke-linejoin: round; stroke-width: 2.97901px; stroke: rgb(255, 247, 250);"/>
    <g>
      <path d="M340.1 972.1C340.1 965.03 346.74 959.28 354.91 959.28C363.08 959.28 369.72 965.03 369.72 972.1C369.72 975.82 372.73 978.83 376.45 978.83C380.17 978.83 383.18 975.82 383.18 972.1C383.18 959.76 373.99 949.39 361.64 946.58C361.64 946.23 361.64 943.42 361.64 943.07C361.64 939.36 358.63 936.34 354.91 936.34C351.19 936.34 348.18 939.36 348.18 943.07C348.18 943.42 348.18 946.23 348.18 946.58C335.82 949.39 326.63 959.76 326.63 972.1C326.63 986.59 339.32 998.39 354.91 998.39C363.08 998.39 369.72 1004.14 369.72 1011.21C369.72 1018.28 363.08 1024.03 354.91 1024.03C346.74 1024.03 340.1 1018.28 340.1 1011.21C340.1 1007.49 337.08 1004.47 333.36 1004.47C329.65 1004.47 326.63 1007.49 326.63 1011.21C326.63 1023.54 335.82 1033.92 348.18 1036.73C348.18 1037.02 348.18 1039.35 348.18 1039.64C348.18 1043.36 351.19 1046.37 354.91 1046.37C358.63 1046.37 361.64 1043.36 361.64 1039.64C361.64 1039.35 361.64 1037.02 361.64 1036.73C373.99 1033.92 383.18 1023.54 383.18 1011.21C383.18 996.71 370.5 984.92 354.91 984.92C346.74 984.92 340.1 979.17 340.1 972.1Z" transform="matrix(1, 0, 0, 1, 0, 0)" opacity="1" fill-opacity="0" stroke-opacity="0" style="fill: rgb(245, 245, 245); stroke-linejoin: round; stroke-width: 2.97901px; stroke: rgb(255, 247, 250);"/>
    </g>
  </g>
  <g transform="matrix(0.458792, 0, 0, 0.458792, 449.169925, -155.818483)" style="">
    <path d="M392.82 913.16C389.46 911.55 385.44 912.96 383.83 916.32C382.22 919.67 383.63 923.69 386.98 925.3C412.5 937.57 429 963.78 429 992.09C429 1004.2 426.01 1016.21 420.36 1026.82C418.62 1030.1 419.86 1034.18 423.15 1035.93C424.15 1036.46 425.24 1036.72 426.3 1036.72C428.71 1036.72 431.04 1035.42 432.25 1033.14C438.93 1020.59 442.46 1006.39 442.46 992.09C442.46 975.28 437.68 958.96 428.65 944.88C419.85 931.17 407.46 920.21 392.82 913.16Z" transform="matrix(1, 0, 0, 1, 0, 0)" opacity="1" fill-opacity="1" style="fill: rgb(255, 255, 255); stroke-linejoin: round; stroke-width: 2.97901px; stroke: rgb(255, 247, 250);"/>
    <g>
      <path d="M392.82 913.16C389.46 911.55 385.44 912.96 383.83 916.32C382.22 919.67 383.63 923.69 386.98 925.3C412.5 937.57 429 963.78 429 992.09C429 1004.2 426.01 1016.21 420.36 1026.82C418.62 1030.1 419.86 1034.18 423.15 1035.93C424.15 1036.46 425.24 1036.72 426.3 1036.72C428.71 1036.72 431.04 1035.42 432.25 1033.14C438.93 1020.59 442.46 1006.39 442.46 992.09C442.46 975.28 437.68 958.96 428.65 944.88C419.85 931.17 407.46 920.21 392.82 913.16Z" transform="matrix(1, 0, 0, 1, 0, 0)" opacity="1" fill-opacity="0" stroke-opacity="0" style="fill: rgb(255, 255, 255); stroke-linejoin: round; stroke-width: 2.97901px; stroke: rgb(255, 247, 250);"/>
    </g>
  </g>
  <g transform="matrix(0.458792, 0, 0, 0.458792, 449.169925, -155.818483)" style="">
    <path d="M365.04 904.56C361.32 904.56 358.31 907.58 358.31 911.3C358.31 915.02 361.32 918.03 365.04 918.03C365.08 918.03 365.39 918.03 365.43 918.03C365.44 918.03 365.45 918.03 365.46 918.03C369.16 918.03 372.17 915.04 372.19 911.33C372.21 907.61 369.21 904.58 365.49 904.57C365.4 904.57 365.08 904.56 365.04 904.56Z" transform="matrix(1, 0, 0, 1, 0, 0)" opacity="1" fill-opacity="1" style="fill: url(#gradient-8-10); stroke-linejoin: round; stroke-width: 2.97901px; stroke: rgb(255, 247, 250);"/>
    <g>
      <path d="M365.04 904.56C361.32 904.56 358.31 907.58 358.31 911.3C358.31 915.02 361.32 918.03 365.04 918.03C365.08 918.03 365.39 918.03 365.43 918.03C365.44 918.03 365.45 918.03 365.46 918.03C369.16 918.03 372.17 915.04 372.19 911.33C372.21 907.61 369.21 904.58 365.49 904.57C365.4 904.57 365.08 904.56 365.04 904.56Z" transform="matrix(1, 0, 0, 1, 0, 0)" opacity="1" fill-opacity="0" stroke-opacity="0" style="fill: url(#gradient-8-11); stroke-linejoin: round; stroke-width: 2.97901px; stroke: rgb(255, 247, 250);"/>
    </g>
  </g>
  <g transform="matrix(0.458792, 0, 0, 0.458792, 449.169925, -155.818483)" style="">
    <path d="M280.88 992.09C280.88 979.98 283.87 967.97 289.51 957.35C291.26 954.07 290.02 949.99 286.73 948.25C283.45 946.5 279.37 947.75 277.63 951.03C270.95 963.58 267.42 977.78 267.42 992.09C267.42 1008.89 272.19 1025.22 281.23 1039.3C290.03 1053 302.42 1063.97 317.06 1071.01C318 1071.46 319 1071.68 319.98 1071.68C322.48 1071.68 324.89 1070.27 326.05 1067.86C327.66 1064.51 326.25 1060.48 322.9 1058.87C297.37 1046.6 280.88 1020.39 280.88 992.09Z" transform="matrix(1, 0, 0, 1, 0, 0)" opacity="1" fill-opacity="1" style="fill: rgb(255, 255, 255); stroke-linejoin: round; stroke-width: 2.97901px; stroke: rgb(255, 247, 250);"/>
    <g>
      <path d="M280.88 992.09C280.88 979.98 283.87 967.97 289.51 957.35C291.26 954.07 290.02 949.99 286.73 948.25C283.45 946.5 279.37 947.75 277.63 951.03C270.95 963.58 267.42 977.78 267.42 992.09C267.42 1008.89 272.19 1025.22 281.23 1039.3C290.03 1053 302.42 1063.97 317.06 1071.01C318 1071.46 319 1071.68 319.98 1071.68C322.48 1071.68 324.89 1070.27 326.05 1067.86C327.66 1064.51 326.25 1060.48 322.9 1058.87C297.37 1046.6 280.88 1020.39 280.88 992.09Z" transform="matrix(1, 0, 0, 1, 0, 0)" opacity="1" fill-opacity="0" stroke-opacity="0" style="fill: rgb(255, 255, 255); stroke-linejoin: round; stroke-width: 2.97901px; stroke: rgb(255, 247, 250);"/>
    </g>
  </g>
  <g transform="matrix(0.458792, 0, 0, 0.458792, 449.169925, -155.818483)" style="">
    <path d="M344.45 1066.14C340.72 1066.14 337.71 1069.12 337.69 1072.84C337.67 1076.56 340.67 1079.59 344.39 1079.61C344.44 1079.61 344.8 1079.61 344.84 1079.61C348.56 1079.61 351.57 1076.59 351.57 1072.88C351.57 1069.16 348.56 1066.14 344.84 1066.14C344.76 1066.14 344.49 1066.14 344.45 1066.14Z" transform="matrix(1, 0, 0, 1, 0, 0)" opacity="1" fill-opacity="1" style="fill: url(#gradient-8-8); stroke-linejoin: round; stroke-width: 2.97901px; stroke: rgb(255, 247, 250);"/>
    <g>
      <path d="M344.45 1066.14C340.72 1066.14 337.71 1069.12 337.69 1072.84C337.67 1076.56 340.67 1079.59 344.39 1079.61C344.44 1079.61 344.8 1079.61 344.84 1079.61C348.56 1079.61 351.57 1076.59 351.57 1072.88C351.57 1069.16 348.56 1066.14 344.84 1066.14C344.76 1066.14 344.49 1066.14 344.45 1066.14Z" transform="matrix(1, 0, 0, 1, 0, 0)" opacity="1" fill-opacity="0" stroke-opacity="0" style="fill: url(#gradient-8-9); stroke-linejoin: round; stroke-width: 2.97901px; stroke: rgb(255, 247, 250);"/>
    </g>
  </g>
  <g transform="matrix(0.458792, 0, 0, 0.458792, 449.169925, -155.818483)" style="">
    <path d="M382.52 876.29C384.27 876.29 398.29 876.29 400.05 876.29C417.12 876.29 431.02 862.39 431.02 845.32C431.02 828.24 417.12 814.35 400.05 814.35C394.66 814.35 351.52 814.35 346.13 814.35C349.56 809.37 351.57 803.34 351.57 796.84C351.57 779.77 337.68 765.87 320.6 765.87C304.11 765.87 172.15 765.87 155.66 765.87C138.58 765.87 124.69 779.77 124.69 796.84C124.69 813.92 138.58 827.81 155.66 827.81C161.05 827.81 204.18 827.81 209.57 827.81C206.14 832.8 204.13 838.83 204.13 845.32C204.13 851.81 206.14 857.84 209.57 862.82C207.82 862.82 193.77 862.82 192.01 862.82C174.94 862.82 161.04 876.72 161.04 893.79C161.04 903.6 165.63 912.35 172.77 918.03C165.63 923.71 161.04 932.46 161.04 942.27C161.04 952.07 165.63 960.82 172.77 966.5C165.63 972.18 161.04 980.93 161.04 990.74C161.04 1000.55 165.63 1009.3 172.77 1014.98C165.63 1020.65 161.04 1029.41 161.04 1039.21C161.04 1056.29 174.94 1070.18 192.01 1070.18C199.95 1070.18 263.42 1070.18 271.36 1070.18C292.26 1092.54 321.99 1106.54 354.94 1106.54C418.05 1106.54 469.39 1055.2 469.39 992.09C469.39 939.56 433.82 895.19 385.51 881.79C384.69 879.83 383.69 877.99 382.52 876.29ZM417.55 845.32C417.55 854.97 409.7 862.82 400.05 862.82C397.17 862.82 382.81 862.82 356.96 862.82C283.84 862.82 243.22 862.82 235.1 862.82C225.45 862.82 217.6 854.97 217.6 845.32C217.6 835.67 225.45 827.81 235.1 827.81C246.1 827.81 301.08 827.81 400.05 827.81C411.72 833.05 417.55 838.88 417.55 845.32ZM138.15 796.84C138.15 787.19 146.01 779.34 155.66 779.34C172.15 779.34 304.11 779.34 320.6 779.34C330.26 779.34 338.11 787.19 338.11 796.84C338.11 806.5 330.26 814.35 320.6 814.35C309.61 814.35 254.62 814.35 155.66 814.35C143.99 809.11 138.15 803.28 138.15 796.84ZM356.96 876.29C359.67 876.29 362.27 876.92 364.6 878.05C361.41 877.78 358.19 877.63 354.94 877.63C323.33 877.63 294.68 890.51 273.95 911.3C265.75 911.3 200.21 911.3 192.01 911.3C182.36 911.3 174.51 903.44 174.51 893.79C174.51 884.14 182.36 876.29 192.01 876.29C225 876.29 340.46 876.29 356.96 876.29ZM262.44 924.76C254.8 935.23 248.89 947.04 245.14 959.77C239.83 959.77 197.33 959.77 192.01 959.77C182.36 959.77 174.51 951.92 174.51 942.27C174.51 932.61 182.36 924.76 192.01 924.76C206.1 924.76 255.4 924.76 262.44 924.76ZM242.05 973.24C241.03 979.37 240.49 985.67 240.49 992.09C240.49 997.57 240.88 1002.96 241.63 1008.24C236.67 1008.24 196.97 1008.24 192.01 1008.24C182.36 1008.24 174.51 1000.39 174.51 990.74C174.51 981.09 182.36 973.24 192.01 973.24C202.02 973.24 237.05 973.24 242.05 973.24ZM174.51 1039.21C174.51 1029.56 182.36 1021.71 192.01 1021.71C197.25 1021.71 239.15 1021.71 244.38 1021.71C247.78 1034.37 253.3 1046.18 260.54 1056.72C255.97 1056.72 233.13 1056.72 192.01 1056.72C180.34 1051.48 174.51 1045.65 174.51 1039.21ZM253.95 992.09C253.95 936.4 299.26 891.1 354.94 891.1C410.62 891.1 455.93 936.4 455.93 992.09C455.93 1047.77 410.62 1093.07 354.94 1093.07C299.26 1093.07 253.95 1047.77 253.95 992.09Z" transform="matrix(1, 0, 0, 1, 0, 0)" opacity="1" fill-opacity="1" style="fill: url(#gradient-8-6); stroke-linejoin: round; stroke-width: 2.97901px; stroke: rgb(255, 247, 250);"/>
    <g>
      <path d="M382.52 876.29C384.27 876.29 398.29 876.29 400.05 876.29C417.12 876.29 431.02 862.39 431.02 845.32C431.02 828.24 417.12 814.35 400.05 814.35C394.66 814.35 351.52 814.35 346.13 814.35C349.56 809.37 351.57 803.34 351.57 796.84C351.57 779.77 337.68 765.87 320.6 765.87C304.11 765.87 172.15 765.87 155.66 765.87C138.58 765.87 124.69 779.77 124.69 796.84C124.69 813.92 138.58 827.81 155.66 827.81C161.05 827.81 204.18 827.81 209.57 827.81C206.14 832.8 204.13 838.83 204.13 845.32C204.13 851.81 206.14 857.84 209.57 862.82C207.82 862.82 193.77 862.82 192.01 862.82C174.94 862.82 161.04 876.72 161.04 893.79C161.04 903.6 165.63 912.35 172.77 918.03C165.63 923.71 161.04 932.46 161.04 942.27C161.04 952.07 165.63 960.82 172.77 966.5C165.63 972.18 161.04 980.93 161.04 990.74C161.04 1000.55 165.63 1009.3 172.77 1014.98C165.63 1020.65 161.04 1029.41 161.04 1039.21C161.04 1056.29 174.94 1070.18 192.01 1070.18C199.95 1070.18 263.42 1070.18 271.36 1070.18C292.26 1092.54 321.99 1106.54 354.94 1106.54C418.05 1106.54 469.39 1055.2 469.39 992.09C469.39 939.56 433.82 895.19 385.51 881.79C384.69 879.83 383.69 877.99 382.52 876.29ZM417.55 845.32C417.55 854.97 409.7 862.82 400.05 862.82C397.17 862.82 382.81 862.82 356.96 862.82C283.84 862.82 243.22 862.82 235.1 862.82C225.45 862.82 217.6 854.97 217.6 845.32C217.6 835.67 225.45 827.81 235.1 827.81C246.1 827.81 301.08 827.81 400.05 827.81C411.72 833.05 417.55 838.88 417.55 845.32ZM138.15 796.84C138.15 787.19 146.01 779.34 155.66 779.34C172.15 779.34 304.11 779.34 320.6 779.34C330.26 779.34 338.11 787.19 338.11 796.84C338.11 806.5 330.26 814.35 320.6 814.35C309.61 814.35 254.62 814.35 155.66 814.35C143.99 809.11 138.15 803.28 138.15 796.84ZM356.96 876.29C359.67 876.29 362.27 876.92 364.6 878.05C361.41 877.78 358.19 877.63 354.94 877.63C323.33 877.63 294.68 890.51 273.95 911.3C265.75 911.3 200.21 911.3 192.01 911.3C182.36 911.3 174.51 903.44 174.51 893.79C174.51 884.14 182.36 876.29 192.01 876.29C225 876.29 340.46 876.29 356.96 876.29ZM262.44 924.76C254.8 935.23 248.89 947.04 245.14 959.77C239.83 959.77 197.33 959.77 192.01 959.77C182.36 959.77 174.51 951.92 174.51 942.27C174.51 932.61 182.36 924.76 192.01 924.76C206.1 924.76 255.4 924.76 262.44 924.76ZM242.05 973.24C241.03 979.37 240.49 985.67 240.49 992.09C240.49 997.57 240.88 1002.96 241.63 1008.24C236.67 1008.24 196.97 1008.24 192.01 1008.24C182.36 1008.24 174.51 1000.39 174.51 990.74C174.51 981.09 182.36 973.24 192.01 973.24C202.02 973.24 237.05 973.24 242.05 973.24ZM174.51 1039.21C174.51 1029.56 182.36 1021.71 192.01 1021.71C197.25 1021.71 239.15 1021.71 244.38 1021.71C247.78 1034.37 253.3 1046.18 260.54 1056.72C255.97 1056.72 233.13 1056.72 192.01 1056.72C180.34 1051.48 174.51 1045.65 174.51 1039.21ZM253.95 992.09C253.95 936.4 299.26 891.1 354.94 891.1C410.62 891.1 455.93 936.4 455.93 992.09C455.93 1047.77 410.62 1093.07 354.94 1093.07C299.26 1093.07 253.95 1047.77 253.95 992.09Z" transform="matrix(1, 0, 0, 1, 0, 0)" opacity="1" fill-opacity="0" stroke-opacity="0" style="fill: url(#gradient-8-7); stroke-linejoin: round; stroke-width: 2.97901px; stroke: rgb(255, 247, 250);"/>
    </g>
  </g>
  <g transform="matrix(0.458792, 0, 0, 0.458792, 449.169925, -155.818483)" style="">
    <path d="M1103.81 1042.87C1123.01 1042.87 1133.68 1042.87 1135.81 1042.87C1141.7 1042.87 1146.48 1038.1 1146.48 1032.21C1146.48 1014.07 1146.48 869.01 1146.48 850.87C1146.48 850.64 1146.36 850.45 1146.35 850.21C1146.28 849.25 1146.09 848.31 1145.77 847.39C1145.67 847.06 1145.55 846.72 1145.42 846.39C1144.92 845.27 1144.23 844.25 1143.38 843.36C1136.98 836.96 1085.78 785.76 1079.38 779.36C1078.5 778.51 1077.47 777.81 1076.34 777.32C1076.04 777.19 1075.74 777.08 1075.42 776.98C1074.47 776.64 1073.47 776.44 1072.46 776.39C1072.26 776.39 1072.09 776.27 1071.88 776.27C1059.07 776.27 956.62 776.27 943.81 776.27C937.92 776.27 933.14 781.05 933.14 786.94C933.14 789.07 933.14 799.74 933.14 818.94C913.94 818.94 903.28 818.94 901.14 818.94C895.25 818.94 890.48 823.71 890.48 829.6C890.48 854.13 890.48 1050.35 890.48 1074.87C890.48 1080.76 895.25 1085.54 901.14 1085.54C920.34 1085.54 1073.94 1085.54 1093.14 1085.54C1099.03 1085.54 1103.81 1080.76 1103.81 1074.87C1103.81 1070.61 1103.81 1059.94 1103.81 1042.87ZM1082.48 812.62L1110.06 840.21L1082.48 840.21L1082.48 812.62ZM954.48 829.54L954.48 797.54L1061.14 797.54C1061.14 829.54 1061.14 847.32 1061.14 850.87C1061.14 856.76 1065.92 861.54 1071.81 861.54C1075.36 861.54 1093.14 861.54 1125.14 861.54L1125.14 1021.54L954.48 1021.54L954.48 829.54ZM1082.48 1064.21L911.81 1064.21L911.81 840.21L933.14 840.21C933.14 955.41 933.14 1019.41 933.14 1032.21C933.14 1038.1 937.92 1042.87 943.81 1042.87C953.05 1042.87 999.28 1042.87 1082.48 1042.87L1082.48 1064.21Z" transform="matrix(1, 0, 0, 1, 0, 0)" opacity="1" fill-opacity="1" style="fill: url(#gradient-8-0); stroke-linejoin: round; stroke-width: 2.97901px; stroke: rgb(255, 247, 250);"/>
    <g>
      <path d="M1103.81 1042.87C1123.01 1042.87 1133.68 1042.87 1135.81 1042.87C1141.7 1042.87 1146.48 1038.1 1146.48 1032.21C1146.48 1014.07 1146.48 869.01 1146.48 850.87C1146.48 850.64 1146.36 850.45 1146.35 850.21C1146.28 849.25 1146.09 848.31 1145.77 847.39C1145.67 847.06 1145.55 846.72 1145.42 846.39C1144.92 845.27 1144.23 844.25 1143.38 843.36C1136.98 836.96 1085.78 785.76 1079.38 779.36C1078.5 778.51 1077.47 777.81 1076.34 777.32C1076.04 777.19 1075.74 777.08 1075.42 776.98C1074.47 776.64 1073.47 776.44 1072.46 776.39C1072.26 776.39 1072.09 776.27 1071.88 776.27C1059.07 776.27 956.62 776.27 943.81 776.27C937.92 776.27 933.14 781.05 933.14 786.94C933.14 789.07 933.14 799.74 933.14 818.94C913.94 818.94 903.28 818.94 901.14 818.94C895.25 818.94 890.48 823.71 890.48 829.6C890.48 854.13 890.48 1050.35 890.48 1074.87C890.48 1080.76 895.25 1085.54 901.14 1085.54C920.34 1085.54 1073.94 1085.54 1093.14 1085.54C1099.03 1085.54 1103.81 1080.76 1103.81 1074.87C1103.81 1070.61 1103.81 1059.94 1103.81 1042.87ZM1082.48 812.62L1110.06 840.21L1082.48 840.21L1082.48 812.62ZM954.48 829.54L954.48 797.54L1061.14 797.54C1061.14 829.54 1061.14 847.32 1061.14 850.87C1061.14 856.76 1065.92 861.54 1071.81 861.54C1075.36 861.54 1093.14 861.54 1125.14 861.54L1125.14 1021.54L954.48 1021.54L954.48 829.54ZM1082.48 1064.21L911.81 1064.21L911.81 840.21L933.14 840.21C933.14 955.41 933.14 1019.41 933.14 1032.21C933.14 1038.1 937.92 1042.87 943.81 1042.87C953.05 1042.87 999.28 1042.87 1082.48 1042.87L1082.48 1064.21Z" transform="matrix(1, 0, 0, 1, 0, 0)" opacity="1" fill-opacity="0" stroke-opacity="0" style="fill: url(#gradient-8-1); stroke-linejoin: round; stroke-width: 2.97901px; stroke: rgb(255, 247, 250);"/>
    </g>
  </g>
  <g transform="matrix(0.458792, 0, 0, 0.458792, 449.169925, -155.818483)" style="">
    <path d="M975.81 872.21L1050.48 872.21L1050.48 893.54L975.81 893.54L975.81 872.21Z" transform="matrix(1, 0, 0, 1, 0, 0)" opacity="1" fill-opacity="1" style="stroke-opacity: 0; fill: rgb(255, 255, 255); stroke-linejoin: round; stroke-width: 2.97901px; stroke: rgb(255, 247, 250);"/>
    <g>
      <path d="M975.81 872.21L1050.48 872.21L1050.48 893.54L975.81 893.54L975.81 872.21Z" transform="matrix(1, 0, 0, 1, 0, 0)" opacity="1" style="stroke-opacity: 0; fill: rgb(255, 255, 255); stroke-linejoin: round; stroke-width: 2.97901px; stroke: rgb(255, 247, 250);"/>
    </g>
  </g>
  <g transform="matrix(0.458792, 0, 0, 0.458792, 449.169925, -155.818483)" style="">
    <path d="M975.81 914.87L1103.81 914.87L1103.81 936.21L975.81 936.21L975.81 914.87Z" transform="matrix(1, 0, 0, 1, 0, 0)" opacity="1" fill-opacity="1" style="fill: rgb(255, 255, 255); stroke-linejoin: round; stroke-width: 2.97901px; stroke: rgb(255, 247, 250);"/>
    <g>
      <path d="M975.81 914.87L1103.81 914.87L1103.81 936.21L975.81 936.21L975.81 914.87Z" transform="matrix(1, 0, 0, 1, 0, 0)" opacity="1" fill-opacity="0" stroke-opacity="0" style="fill: rgb(255, 255, 255); stroke-linejoin: round; stroke-width: 2.97901px; stroke: rgb(255, 247, 250);"/>
    </g>
  </g>
  <g transform="matrix(0.458792, 0, 0, 0.458792, 449.169925, -155.818483)" style="">
    <path d="M975.81 957.54L1103.81 957.54L1103.81 978.87L975.81 978.87L975.81 957.54Z" transform="matrix(1, 0, 0, 1, 0, 0)" opacity="1" fill-opacity="1" style="fill: rgb(255, 255, 255); stroke-linejoin: round; stroke-width: 2.97901px; stroke: rgb(255, 247, 250);"/>
    <g>
      <path d="M975.81 957.54L1103.81 957.54L1103.81 978.87L975.81 978.87L975.81 957.54Z" transform="matrix(1, 0, 0, 1, 0, 0)" opacity="1" fill-opacity="0" stroke-opacity="0" style="fill: rgb(255, 255, 255); stroke-linejoin: round; stroke-width: 2.97901px; stroke: rgb(255, 247, 250);"/>
    </g>
  </g>
  <g transform="matrix(0.458792, 0, 0, 0.458792, 449.169925, -155.818483)" style="">
    <path d="M754.78 955.68C751.69 953.18 747.54 952.7 743.94 954.42C740.41 956.11 738.22 959.54 738.23 963.37C738.23 964.88 738.23 976.98 738.23 978.49C715.38 975.08 698.55 960.56 681.19 942.95C698 925.87 714.9 910.89 738.23 907.41C738.23 908.93 738.23 921.03 738.23 922.54C738.22 926.37 740.41 929.8 743.94 931.48C747.54 933.21 751.69 932.73 754.78 930.23C759.36 926.53 796.07 896.91 800.66 893.21C803.04 891.33 804.41 888.53 804.44 885.52C804.46 882.51 803.11 879.68 800.74 877.76C796.18 874.08 759.65 844.61 755.08 840.93C752.1 838.32 747.84 837.68 744.18 839.31C740.51 840.93 738.23 844.41 738.23 848.37C738.23 850.06 738.23 863.58 738.23 865.27C699.02 868.57 674.32 890.39 651.67 913.45C643.95 906.43 636.85 900.84 629.6 896.06C627.19 894.47 623.94 895.14 622.36 897.55C620.77 899.96 621.43 903.2 623.85 904.79C630.56 909.22 637.16 914.41 644.37 920.95C644.3 921.02 644.23 921.1 644.16 921.17C639.31 926.18 634.52 931.14 629.62 935.86C619.58 927.01 610.28 920.63 600.6 915.96C587.2 909.51 573.18 906.37 557.72 906.37C556.93 906.37 550.66 906.37 549.88 906.37C548.46 906.37 547.26 905.17 547.26 903.75C547.26 902.18 547.26 889.64 547.26 888.07C547.26 886.65 548.46 885.46 549.88 885.46C550.66 885.46 556.93 885.46 557.72 885.46C566.32 885.46 574.63 886.22 582.44 887.73C585.28 888.28 588.02 886.43 588.56 883.59C589.11 880.76 587.26 878.02 584.42 877.47C575.97 875.83 566.98 875 557.72 875C556.93 875 550.66 875 549.88 875C542.67 875 536.81 880.86 536.81 888.07C536.81 889.64 536.81 902.18 536.81 903.75C536.81 910.96 542.67 916.82 549.88 916.82C550.66 916.82 556.93 916.82 557.72 916.82C586.78 916.82 606.51 929.52 621.9 942.97C604.75 957.97 585.44 969.09 557.72 969.09C556.93 969.09 550.66 969.09 549.88 969.09C542.67 969.09 536.81 974.95 536.81 982.16C536.81 983.72 536.81 996.27 536.81 997.84C536.81 1005.04 542.67 1010.91 549.88 1010.91C550.66 1010.91 556.93 1010.91 557.72 1010.91C583.61 1010.91 606.31 1004.54 627.12 991.45C636.04 985.83 644.1 979.34 651.67 972.45C675.99 997.17 700.04 1017.47 738.23 1020.64C738.23 1022.33 738.23 1035.85 738.23 1037.54C738.23 1041.5 740.51 1044.97 744.18 1046.6C745.52 1047.2 746.95 1047.49 748.37 1047.49C750.8 1047.49 753.2 1046.63 755.08 1044.98C759.65 1041.3 796.18 1011.82 800.75 1008.14C803.11 1006.23 804.46 1003.4 804.44 1000.38C804.41 997.38 803.04 994.57 800.66 992.69C791.48 985.29 759.37 959.38 754.78 955.68ZM549.88 1000.45C548.46 1000.45 547.26 999.25 547.26 997.84C547.26 996.27 547.26 983.73 547.26 982.16C547.26 980.74 548.46 979.54 549.88 979.54C550.66 979.54 556.93 979.54 557.72 979.54C577.73 979.54 595.72 974.16 612.7 963.09C627.5 953.44 639.79 940.73 651.67 928.44C677.15 902.09 701.21 877.2 743.67 875.4C746.47 875.28 748.68 872.98 748.68 870.18C748.68 868.78 748.68 861.78 748.68 849.19L793.62 885.46L748.68 921.72C748.68 909.65 748.68 902.94 748.68 901.6C748.68 900.15 748.08 898.77 747.02 897.78C745.97 896.79 744.56 896.29 743.11 896.38C709.46 898.63 687.72 921.11 666.7 942.86C639.32 971.17 611.02 1000.45 557.72 1000.45C557.72 1000.45 550.66 1000.45 549.88 1000.45ZM748.68 1036.72C748.68 1024.13 748.68 1017.13 748.68 1015.73C748.68 1012.93 746.47 1010.63 743.67 1010.51C706.28 1008.92 683.74 990.15 659.27 965.28C664.28 960.39 669.12 955.39 673.9 950.45C694.12 970.94 713.84 987.57 743.11 989.53C744.55 989.62 745.97 989.11 747.02 988.13C748.08 987.14 748.68 985.76 748.68 984.31C748.68 982.97 748.68 976.26 748.68 964.19L793.63 1000.45L748.68 1036.72Z" transform="matrix(1, 0, 0, 1, 0, 0)" opacity="1" fill-opacity="1" style="fill: url(#gradient-8-2); stroke-linejoin: round; stroke-width: 2.97901px; stroke: rgb(255, 247, 250);"/>
    <g>
      <path d="M754.78 955.68C751.69 953.18 747.54 952.7 743.94 954.42C740.41 956.11 738.22 959.54 738.23 963.37C738.23 964.88 738.23 976.98 738.23 978.49C715.38 975.08 698.55 960.56 681.19 942.95C698 925.87 714.9 910.89 738.23 907.41C738.23 908.93 738.23 921.03 738.23 922.54C738.22 926.37 740.41 929.8 743.94 931.48C747.54 933.21 751.69 932.73 754.78 930.23C759.36 926.53 796.07 896.91 800.66 893.21C803.04 891.33 804.41 888.53 804.44 885.52C804.46 882.51 803.11 879.68 800.74 877.76C796.18 874.08 759.65 844.61 755.08 840.93C752.1 838.32 747.84 837.68 744.18 839.31C740.51 840.93 738.23 844.41 738.23 848.37C738.23 850.06 738.23 863.58 738.23 865.27C699.02 868.57 674.32 890.39 651.67 913.45C643.95 906.43 636.85 900.84 629.6 896.06C627.19 894.47 623.94 895.14 622.36 897.55C620.77 899.96 621.43 903.2 623.85 904.79C630.56 909.22 637.16 914.41 644.37 920.95C644.3 921.02 644.23 921.1 644.16 921.17C639.31 926.18 634.52 931.14 629.62 935.86C619.58 927.01 610.28 920.63 600.6 915.96C587.2 909.51 573.18 906.37 557.72 906.37C556.93 906.37 550.66 906.37 549.88 906.37C548.46 906.37 547.26 905.17 547.26 903.75C547.26 902.18 547.26 889.64 547.26 888.07C547.26 886.65 548.46 885.46 549.88 885.46C550.66 885.46 556.93 885.46 557.72 885.46C566.32 885.46 574.63 886.22 582.44 887.73C585.28 888.28 588.02 886.43 588.56 883.59C589.11 880.76 587.26 878.02 584.42 877.47C575.97 875.83 566.98 875 557.72 875C556.93 875 550.66 875 549.88 875C542.67 875 536.81 880.86 536.81 888.07C536.81 889.64 536.81 902.18 536.81 903.75C536.81 910.96 542.67 916.82 549.88 916.82C550.66 916.82 556.93 916.82 557.72 916.82C586.78 916.82 606.51 929.52 621.9 942.97C604.75 957.97 585.44 969.09 557.72 969.09C556.93 969.09 550.66 969.09 549.88 969.09C542.67 969.09 536.81 974.95 536.81 982.16C536.81 983.72 536.81 996.27 536.81 997.84C536.81 1005.04 542.67 1010.91 549.88 1010.91C550.66 1010.91 556.93 1010.91 557.72 1010.91C583.61 1010.91 606.31 1004.54 627.12 991.45C636.04 985.83 644.1 979.34 651.67 972.45C675.99 997.17 700.04 1017.47 738.23 1020.64C738.23 1022.33 738.23 1035.85 738.23 1037.54C738.23 1041.5 740.51 1044.97 744.18 1046.6C745.52 1047.2 746.95 1047.49 748.37 1047.49C750.8 1047.49 753.2 1046.63 755.08 1044.98C759.65 1041.3 796.18 1011.82 800.75 1008.14C803.11 1006.23 804.46 1003.4 804.44 1000.38C804.41 997.38 803.04 994.57 800.66 992.69C791.48 985.29 759.37 959.38 754.78 955.68ZM549.88 1000.45C548.46 1000.45 547.26 999.25 547.26 997.84C547.26 996.27 547.26 983.73 547.26 982.16C547.26 980.74 548.46 979.54 549.88 979.54C550.66 979.54 556.93 979.54 557.72 979.54C577.73 979.54 595.72 974.16 612.7 963.09C627.5 953.44 639.79 940.73 651.67 928.44C677.15 902.09 701.21 877.2 743.67 875.4C746.47 875.28 748.68 872.98 748.68 870.18C748.68 868.78 748.68 861.78 748.68 849.19L793.62 885.46L748.68 921.72C748.68 909.65 748.68 902.94 748.68 901.6C748.68 900.15 748.08 898.77 747.02 897.78C745.97 896.79 744.56 896.29 743.11 896.38C709.46 898.63 687.72 921.11 666.7 942.86C639.32 971.17 611.02 1000.45 557.72 1000.45C557.72 1000.45 550.66 1000.45 549.88 1000.45ZM748.68 1036.72C748.68 1024.13 748.68 1017.13 748.68 1015.73C748.68 1012.93 746.47 1010.63 743.67 1010.51C706.28 1008.92 683.74 990.15 659.27 965.28C664.28 960.39 669.12 955.39 673.9 950.45C694.12 970.94 713.84 987.57 743.11 989.53C744.55 989.62 745.97 989.11 747.02 988.13C748.08 987.14 748.68 985.76 748.68 984.31C748.68 982.97 748.68 976.26 748.68 964.19L793.63 1000.45L748.68 1036.72Z" transform="matrix(1, 0, 0, 1, 0, 0)" opacity="1" fill-opacity="0" stroke-opacity="0" style="fill: url(#gradient-8-3); stroke-linejoin: round; stroke-width: 2.97901px; stroke: rgb(255, 247, 250);"/>
    </g>
  </g>
  <g transform="matrix(0.458792, 0, 0, 0.458792, 449.169925, -155.818483)" style="">
    <path d="M611.2 889.35C611.2 886.46 608.86 884.12 605.97 884.12C605.97 884.12 605.97 884.12 605.97 884.12C603.08 884.12 600.74 886.46 600.74 889.35C600.74 892.23 603.08 894.57 605.97 894.57C608.86 894.57 611.2 892.23 611.2 889.35Z" transform="matrix(1, 0, 0, 1, 0, 0)" opacity="1" fill-opacity="1" style="fill: url(#gradient-8-4); stroke-linejoin: round; stroke-width: 2.97901px; stroke: rgb(255, 247, 250);"/>
    <g>
      <path d="M611.2 889.35C611.2 886.46 608.86 884.12 605.97 884.12C605.97 884.12 605.97 884.12 605.97 884.12C603.08 884.12 600.74 886.46 600.74 889.35C600.74 892.23 603.08 894.57 605.97 894.57C608.86 894.57 611.2 892.23 611.2 889.35Z" transform="matrix(1, 0, 0, 1, 0, 0)" opacity="1" fill-opacity="0" stroke-opacity="0" style="fill: url(#gradient-8-5); stroke-linejoin: round; stroke-width: 2.97901px; stroke: rgb(255, 247, 250);"/>
    </g>
  </g>
</svg>