<?xml version="1.0" encoding="UTF-8" standalone="no"?>
<!DOCTYPE svg PUBLIC "-//W3C//DTD SVG 1.1//EN" "http://www.w3.org/Graphics/SVG/1.1/DTD/svg11.dtd">
<svg version="1.1" xmlns="http://www.w3.org/2000/svg" xmlns:xlink="http://www.w3.org/1999/xlink" preserveAspectRatio="xMidYMid meet" viewBox="38.499999999999886 42.5 545.5000000000001 545.5" width="541" height="541"><defs><path d="M581 270.87L561.39 270.87C543.86 280.1 534.12 285.22 532.17 286.25C528.88 284.43 525.46 282.89 521.77 281.97C519.32 281.36 507.06 278.29 485.01 272.77C485.01 270.26 485.01 268.87 485.01 268.59C501.27 257.24 511.19 238.49 511.19 218.52C511.19 216.99 511.19 204.79 511.19 203.26C511.19 169.37 484.63 141 451.99 140.01C450.33 139.97 448.7 140.03 447.06 140.11C447.69 138.62 450.87 131.18 456.59 117.79L410.38 71.6C394.04 82.24 384.96 88.15 383.14 89.33C372.79 83.5 361.85 78.96 350.48 75.78C350.03 73.66 347.79 63.07 343.75 44L277.25 44C273.22 63.07 270.98 73.67 270.53 75.79C259.16 78.97 248.21 83.51 237.86 89.34C236.05 88.16 226.97 82.25 210.63 71.61L164.46 117.78C170.08 131.18 173.2 138.62 173.83 140.11C173.47 140.09 173.13 140.03 172.77 140.02C156.06 139.53 140.32 145.63 128.37 157.24C116.39 168.83 109.81 184.4 109.81 201.06C109.81 202.81 109.81 216.77 109.81 218.52C109.81 238.49 119.72 257.23 135.98 268.58C135.98 268.86 135.98 270.26 135.98 272.77L112 278.77L68.54 253.42L40 253.42L40 434.23L125.84 462.84L142.56 462.84L144.65 455.53C160.44 465 169.21 470.27 170.96 471.32C171.39 485.63 182.87 497.14 197.16 497.64C197.67 511.88 209.11 523.32 223.34 523.82C223.84 538.06 235.28 549.5 249.52 550C250.04 564.57 261.97 576.27 276.65 576.27C282.11 576.27 287.45 574.57 291.95 571.54C292.72 572.23 298.91 577.69 299.68 578.37C304.52 582.64 310.76 585 317.24 585C317.4 585 318.69 585 318.85 585C333.37 585 345.19 573.26 345.37 558.79C359.73 558.61 371.36 546.97 371.55 532.61C385.92 532.43 397.56 520.78 397.72 506.41C412.23 506.07 423.94 494.22 423.94 479.63C423.94 478.76 423.89 477.89 423.8 477.02C434.28 471.78 486.68 445.58 581 398.43L581 270.87ZM493.74 218.52C493.74 234 485.37 248.47 471.9 256.27C471.61 256.44 470.16 257.28 467.54 258.8L467.57 286.41L511.17 297.3L415.21 347.81C415.21 333.7 415.21 325.87 415.21 324.3C415.21 312.57 410.47 301.83 402.71 293.89C404.71 293.39 414.69 290.9 432.66 286.41L432.66 258.77C430.05 257.26 428.6 256.42 428.31 256.26C414.84 248.47 406.48 234 406.48 218.52C406.48 216.77 406.48 202.81 406.48 201.06C406.48 189.16 411.19 178.04 419.74 169.75C428.28 161.47 439.61 157 451.46 157.46C474.77 158.16 493.74 178.71 493.74 203.26C493.74 206.31 493.74 216.99 493.74 218.52ZM284.16 328.32C266.16 322.55 246.67 321.69 228.24 325.77C227.91 325.85 226.24 326.22 223.24 326.88C223.24 325.33 223.24 324.47 223.24 324.3C223.24 312.27 231.4 301.82 243.07 298.9C246.4 298.06 263.06 293.9 293.05 286.41L293.05 258.77C290.44 257.26 288.98 256.42 288.69 256.26C275.23 248.47 266.87 234 266.87 218.52C266.87 216.77 266.87 202.81 266.87 201.06C266.87 189.16 271.57 178.04 280.13 169.75C288.67 161.47 300.07 157 311.85 157.46C335.16 158.16 354.13 178.71 354.13 203.26C354.13 204.79 354.13 216.99 354.13 218.52C354.13 234 345.76 248.47 332.29 256.27C332 256.44 330.54 257.28 327.93 258.8L327.96 286.41C357.94 293.9 374.6 298.06 377.93 298.9C389.6 301.82 397.76 312.27 397.76 324.3C397.76 326.48 397.76 337.38 397.76 357L395.6 358.13L390.26 358.13C358.07 348.93 340.19 343.82 336.61 342.8C332.38 341.6 328.03 341.11 323.66 340.95C315.76 338.42 288.11 329.58 284.16 328.32ZM310.5 122.53C346.09 122.53 378.93 142.57 395.44 173.89C391.29 182.22 389.03 191.45 389.03 201.06C389.03 202.81 389.03 216.77 389.03 218.52C389.03 238.49 398.95 257.23 415.21 268.58C415.21 268.86 415.21 270.26 415.21 272.77L380.31 281.51L345.39 272.77C345.39 270.26 345.39 268.87 345.39 268.59C361.66 257.24 371.58 238.49 371.58 218.52C371.58 216.99 371.58 204.79 371.58 203.26C371.58 169.37 345.02 141 312.37 140.01C295.67 139.52 279.93 145.62 267.97 157.23C256.01 168.83 249.42 184.4 249.42 201.06C249.42 202.81 249.42 216.77 249.42 218.52C249.42 238.49 259.33 257.23 275.6 268.58C275.6 268.86 275.6 270.26 275.6 272.77L240.69 281.51L205.78 272.77C205.78 270.26 205.78 268.87 205.78 268.59C222.04 257.24 231.97 238.49 231.97 218.52C231.97 216.99 231.97 204.79 231.97 203.26C231.97 192.99 229.5 183.25 225.2 174.6C241.58 142.85 274.57 122.53 310.5 122.53ZM185.07 121.82L212.94 93.95L237.48 109.92C240.3 108.19 241.86 107.23 242.18 107.04C253.94 99.83 266.65 94.55 279.96 91.37C280.32 91.28 282.11 90.85 285.33 90.08L291.4 61.45L329.61 61.45L335.66 90.07C338.88 90.84 340.67 91.27 341.03 91.35C354.34 94.54 367.05 99.82 378.82 107.03C379.13 107.22 380.69 108.18 383.51 109.91L408.05 93.94L435.89 121.79C429.95 135.7 426.65 143.42 425.99 144.96C419.26 147.86 413.01 151.94 407.57 157.21C407.22 157.56 406.91 157.93 406.56 158.29C386 125.61 349.66 105.08 310.5 105.08C271.06 105.08 234.61 125.8 214.11 158.82C208.62 153.07 202.09 148.42 194.86 145.17C193.55 142.06 190.29 134.28 185.07 121.82ZM153.44 286.41L153.44 258.77C150.82 257.26 149.37 256.42 149.08 256.26C135.62 248.47 127.26 234 127.26 218.52C127.26 216.77 127.26 202.81 127.26 201.06C127.26 189.16 131.96 178.04 140.51 169.75C149.06 161.47 160.41 157 172.24 157.46C195.55 158.16 214.52 178.71 214.52 203.26C214.52 204.79 214.52 216.99 214.52 218.52C214.52 234 206.15 248.47 192.68 256.27C192.39 256.44 190.93 257.28 188.31 258.8L188.35 286.41C206.31 290.9 216.29 293.39 218.29 293.89C210.53 301.83 205.79 312.57 205.79 324.3C205.79 324.73 205.79 326.88 205.79 330.76L178.57 336.81L179.28 334.34L179.61 318.22L133.59 291.37L153.44 286.41ZM57.45 270.87L63.81 270.87L126.57 307.47L94.9 434.13L57.45 421.64L57.45 270.87ZM128.67 445.39L111.5 439.67L142.26 316.63L162.16 328.24L162.16 330.73L129.41 445.39L128.67 445.39ZM191.2 463.59C192.74 462.05 205.01 449.78 206.54 448.25C208.36 446.43 210.89 445.39 213.46 445.39C218.85 445.39 223.24 449.78 223.24 455.17C223.24 457.74 222.2 460.27 220.38 462.09C218.84 463.62 206.57 475.89 205.04 477.43C203.22 479.25 200.69 480.29 198.12 480.29C192.73 480.29 188.34 475.9 188.34 470.51C188.34 467.93 189.38 465.41 191.2 463.59ZM217.38 489.77C218.91 488.23 231.18 475.96 232.72 474.43C234.54 472.6 237.06 471.56 239.64 471.56C245.03 471.56 249.42 475.95 249.42 481.35C249.42 483.92 248.38 486.44 246.56 488.27C245.02 489.8 232.75 502.07 231.22 503.6C229.39 505.43 226.87 506.47 224.3 506.47C218.9 506.47 214.52 502.08 214.52 496.69C214.52 494.11 215.56 491.59 217.38 489.77ZM243.56 515.94C245.09 514.41 257.36 502.14 258.9 500.61C260.72 498.78 263.24 497.74 265.81 497.74C271.21 497.74 275.6 502.13 275.6 507.52C275.6 510.1 274.56 512.62 272.73 514.44C271.2 515.98 258.93 528.25 257.4 529.78C255.57 531.61 253.05 532.65 250.48 532.65C245.08 532.65 240.69 528.26 240.69 522.86C240.69 520.29 241.73 517.77 243.56 515.94ZM266.87 549.04C266.87 546.47 267.91 543.94 269.73 542.12C271.27 540.59 283.54 528.32 285.07 526.78C286.9 524.96 289.42 523.92 291.99 523.92C297.39 523.92 301.77 528.31 301.77 533.7C301.77 536.28 300.73 538.8 298.91 540.62C297.38 542.15 285.11 554.43 283.57 555.96C281.75 557.78 279.23 558.82 276.65 558.82C271.26 558.82 266.87 554.43 266.87 549.04ZM317.24 567.55C315.01 567.55 312.88 566.74 311.22 565.27C310.79 564.89 308.61 562.97 304.7 559.51C308.63 555.58 310.81 553.4 311.25 552.96C313.59 550.62 315.4 547.84 316.75 544.85C317.54 545.51 323.89 550.8 324.68 551.46C326.75 553.19 327.95 555.73 327.95 558.45C327.95 563.47 323.87 567.55 318.85 567.55C318.53 567.55 317.4 567.55 317.24 567.55ZM395.59 489.02C393.4 489.02 391.26 488.24 389.59 486.83C386.44 484.21 370.66 471.06 342.27 447.4L331.09 460.81C358.66 483.79 373.98 496.55 377.04 499.1C379.11 500.83 380.31 503.38 380.31 506.09C380.31 511.11 376.22 515.19 371.21 515.19C371.02 515.19 369.49 515.19 369.3 515.19C367.18 515.19 365.11 514.44 363.48 513.08C360.32 510.45 344.52 497.28 316.09 473.59L304.91 487C332.48 509.98 347.79 522.74 350.86 525.29C352.93 527.01 354.13 529.56 354.13 532.27C354.13 537.29 350.05 541.37 345.03 541.37C341.68 541.37 338.42 540.18 335.85 538.05C333.9 536.42 318.32 523.44 316.37 521.81C312.08 513.05 303.27 506.93 292.94 506.57C292.44 492.33 281 480.89 266.76 480.39C266.26 466.15 254.82 454.71 240.59 454.21C240.08 439.64 228.15 427.94 213.46 427.94C206.29 427.94 199.27 430.84 194.2 435.91C192.67 437.45 180.4 449.72 178.86 451.25C177.95 452.17 177.19 453.21 176.42 454.24C174.63 453.16 165.7 447.8 149.61 438.15L173.11 355.91C208.46 348.06 228.09 343.69 232.02 342.82C247.47 339.36 263.76 340.11 278.83 344.93C279.69 345.21 283.98 346.58 291.69 349.05C265.54 362.12 251.02 369.38 248.11 370.83C238.15 375.82 231.97 385.84 231.97 396.98C231.97 397.15 231.97 398.53 231.97 398.7C231.97 414.82 245.08 427.94 261.2 427.94C266.5 427.94 271.71 426.5 276.24 423.76C279.49 421.82 305.48 406.23 308.73 404.28C315.25 400.37 324.01 401.23 329.65 406.3C337.02 412.93 396.01 466.01 403.38 472.65C405.35 474.44 406.48 476.98 406.48 479.63C406.48 484.81 402.28 489.02 397.1 489.02C396.8 489.02 395.74 489.02 395.59 489.02ZM563.55 387.64C475.35 431.74 426.34 456.25 416.54 461.15C416.07 460.64 415.57 460.16 415.04 459.69C407.67 453.05 348.7 399.97 341.33 393.34C334.87 387.51 326.52 384.31 317.82 384.31C311.46 384.31 305.21 386.04 299.74 389.32C296.49 391.27 270.49 406.86 267.24 408.81C265.41 409.91 263.33 410.48 261.2 410.48C254.7 410.48 249.42 405.2 249.42 398.7C249.42 398.53 249.42 397.15 249.42 396.98C249.42 392.48 251.92 388.45 255.93 386.45C260.8 384.01 299.74 364.54 304.6 362.11C312.93 357.94 322.82 357 331.8 359.59C335.45 360.63 353.73 365.85 386.63 375.25L399.91 375.58L563.55 289.46L563.55 387.64Z" id="bDBLOwjDb"></path><radialGradient id="gradientbx4MIvTPN" gradientUnits="userSpaceOnUse" cx="300.91" cy="33.68" dx="298.46" dy="501.02" r="467.35"><stop style="stop-color: #fd15ff;stop-opacity: 1" offset="0%"></stop><stop style="stop-color: #1546fe;stop-opacity: 1" offset="64.90438835411383%"></stop><stop style="stop-color: #a915fe;stop-opacity: 1" offset="100%"></stop></radialGradient></defs><g><g><use xlink:href="#bDBLOwjDb" opacity="1" fill="url(#gradientbx4MIvTPN)"></use><g><use xlink:href="#bDBLOwjDb" opacity="1" fill-opacity="0" stroke="#ffffff" stroke-width="3" stroke-opacity="1"></use></g></g></g></svg>