<?xml version="1.0" encoding="UTF-8" standalone="no"?>
<!DOCTYPE svg PUBLIC "-//W3C//DTD SVG 1.1//EN" "http://www.w3.org/Graphics/SVG/1.1/DTD/svg11.dtd">
<svg version="1.1" xmlns="http://www.w3.org/2000/svg" xmlns:xlink="http://www.w3.org/1999/xlink" preserveAspectRatio="xMidYMid meet" viewBox="0 0 250 250" width="250" height="250"><defs><path d="M73.19 55.11C62.37 55.38 53.37 46.82 53.1 36.01C52.83 25.2 61.38 16.2 72.2 15.93C83 15.66 92 24.21 92.28 35.02C92.55 45.84 83.99 54.83 73.19 55.11Z" id="aTKYi7FJ7"></path><path d="M178.1 54.68C167.29 54.96 158.29 46.4 158.03 35.59C157.75 24.78 166.31 15.78 177.11 15.51C187.93 15.24 196.93 23.79 197.2 34.6C197.47 45.41 188.92 54.41 178.1 54.68Z" id="b3p5FQWFo"></path><path d="M229.84 145.5C219.03 145.77 210.03 137.21 209.76 126.41C209.49 115.59 218.04 106.59 228.86 106.32C239.66 106.05 248.66 114.6 248.94 125.42C249.21 136.22 240.65 145.22 229.84 145.5Z" id="a1Ba8vTyo"></path><path d="M175.73 234.49C164.91 234.76 155.91 226.21 155.64 215.4C155.37 204.59 163.92 195.59 174.74 195.32C185.54 195.04 194.54 203.6 194.81 214.41C195.09 225.22 186.53 234.22 175.73 234.49Z" id="bivK4s6x7"></path><path d="M72.47 233.55C61.66 233.82 52.66 225.27 52.39 214.46C52.11 203.65 60.68 194.65 71.48 194.38C82.3 194.1 91.3 202.66 91.57 213.48C91.83 224.29 83.28 233.29 72.47 233.55Z" id="b6FJ4nvZq"></path><path d="M21.14 144.3C10.34 144.57 1.34 136.01 1.06 125.2C0.79 114.38 9.35 105.38 20.16 105.11C30.97 104.85 39.97 113.4 40.24 124.21C40.51 135.02 31.96 144.02 21.14 144.3Z" id="eswWU06mg"></path><path d="M195.27 52.43C196.57 53.87 206.96 65.35 208.26 66.78C192.55 78.85 177.94 82.83 164.42 78.68C150.9 74.54 141.28 63.32 135.57 45.01C128.39 44.59 122.16 44.5 116.85 44.73C111.55 44.97 107.17 45.54 103.73 46.43C102.32 46.9 91.08 50.64 89.68 51.11C93.68 48.06 96.41 44.6 97.86 40.72C99.31 36.84 99.48 32.54 98.37 27.81C107.98 24.7 117.48 23.15 126.87 23.17C136.25 23.19 145.52 24.77 154.69 27.92C153.66 41.01 157.4 49.97 165.92 54.81C174.44 59.64 184.23 58.85 195.27 52.43Z" id="daWdKMjuM"></path><path d="M97.02 28.28C98.91 27.86 114.02 24.49 115.91 24.07C118.66 43.68 114.91 58.35 104.64 68.07C94.37 77.79 79.86 80.62 61.1 76.56C57.21 82.59 54.05 87.97 51.65 92.7C49.23 97.43 47.56 101.52 46.64 104.96C46.35 106.41 44.07 118.03 43.78 119.48C43.11 114.5 41.45 110.42 38.78 107.25C36.12 104.07 32.46 101.8 27.8 100.44C29.83 90.54 33.18 81.52 37.83 73.36C42.47 65.21 48.42 57.91 55.68 51.49C66.55 58.85 76.2 60.02 84.6 54.99C93.01 49.96 97.15 41.06 97.02 28.28Z" id="a2jSTKIkGI"></path><path d="M222.57 149.42C221.97 151.26 217.17 165.98 216.57 167.82C198.28 160.19 187.58 149.47 184.46 135.69C181.33 121.9 186.29 107.97 199.34 93.91C196.15 87.48 193.13 82.03 190.28 77.54C187.45 73.06 184.78 69.54 182.29 66.99C181.19 66 172.36 58.11 171.26 57.12C175.89 59.09 180.25 59.74 184.33 59.07C188.42 58.39 192.24 56.4 195.79 53.09C203.26 59.89 209.32 67.36 213.97 75.51C218.62 83.67 221.86 92.5 223.69 102.02C211.8 107.63 205.88 115.32 205.93 125.12C205.97 134.93 211.51 143.02 222.57 149.42Z" id="b1RJR6XGhu"></path><path d="M151.59 221.01C149.69 221.4 134.52 224.46 132.62 224.84C130.26 205.17 134.31 190.58 144.78 181.07C155.24 171.56 169.81 169.03 188.47 173.46C192.49 167.51 195.75 162.21 198.26 157.52C200.77 152.84 202.51 148.79 203.51 145.36C203.83 143.92 206.35 132.35 206.67 130.91C207.23 135.9 208.81 140.01 211.41 143.24C214.01 146.46 217.62 148.81 222.25 150.27C220.02 160.12 216.49 169.07 211.68 177.14C206.88 185.2 200.78 192.37 193.4 198.64C182.67 191.06 173.05 189.69 164.54 194.55C156.03 199.41 151.72 208.23 151.59 221.01Z" id="blUlVh6tj"></path><path d="M54.77 196.75C53.46 195.32 43.01 183.91 41.71 182.48C57.35 170.31 71.94 166.27 85.48 170.33C99.03 174.39 108.71 185.56 114.52 203.84C121.7 204.22 127.93 204.28 133.23 204.01C138.54 203.75 142.91 203.16 146.35 202.25C147.75 201.77 158.97 197.97 160.37 197.5C156.39 200.55 153.68 204.03 152.25 207.92C150.82 211.81 150.68 216.11 151.82 220.83C142.22 224 132.73 225.59 123.34 225.63C113.95 225.66 104.67 224.14 95.49 221.04C96.45 207.94 92.66 199 84.11 194.21C75.56 189.43 65.78 190.27 54.77 196.75Z" id="a1ONObSA2I"></path><path d="M27.28 100.71C27.86 98.87 32.48 84.09 33.06 82.25C51.44 89.65 62.27 100.23 65.57 113.97C68.87 127.72 64.08 141.71 51.21 155.93C54.48 162.32 57.57 167.74 60.47 172.19C63.36 176.64 66.07 180.13 68.59 182.64C69.7 183.61 78.64 191.4 79.75 192.37C75.1 190.46 70.73 189.86 66.65 190.59C62.57 191.31 58.78 193.36 55.27 196.71C47.71 190.01 41.56 182.61 36.81 174.51C32.06 166.42 28.71 157.62 26.76 148.13C38.58 142.38 44.4 134.6 44.23 124.81C44.07 115.01 38.43 106.98 27.28 100.71Z" id="agQVtnUkI"></path></defs><g><g><g><use xlink:href="#aTKYi7FJ7" opacity="1" fill="#ffffff" fill-opacity="1"></use><g><use xlink:href="#aTKYi7FJ7" opacity="1" fill-opacity="0" stroke="#000000" stroke-width="1" stroke-opacity="0"></use></g></g><g><use xlink:href="#b3p5FQWFo" opacity="1" fill="#ffffff" fill-opacity="1"></use><g><use xlink:href="#b3p5FQWFo" opacity="1" fill-opacity="0" stroke="#000000" stroke-width="1" stroke-opacity="0"></use></g></g><g><use xlink:href="#a1Ba8vTyo" opacity="1" fill="#ffffff" fill-opacity="1"></use><g><use xlink:href="#a1Ba8vTyo" opacity="1" fill-opacity="0" stroke="#000000" stroke-width="1" stroke-opacity="0"></use></g></g><g><use xlink:href="#bivK4s6x7" opacity="1" fill="#ffffff" fill-opacity="1"></use><g><use xlink:href="#bivK4s6x7" opacity="1" fill-opacity="0" stroke="#000000" stroke-width="1" stroke-opacity="0"></use></g></g><g><use xlink:href="#b6FJ4nvZq" opacity="1" fill="#ffffff" fill-opacity="1"></use><g><use xlink:href="#b6FJ4nvZq" opacity="1" fill-opacity="0" stroke="#000000" stroke-width="1" stroke-opacity="0"></use></g></g><g><use xlink:href="#eswWU06mg" opacity="1" fill="#ffffff" fill-opacity="1"></use><g><use xlink:href="#eswWU06mg" opacity="1" fill-opacity="0" stroke="#000000" stroke-width="1" stroke-opacity="0"></use></g></g><g><use xlink:href="#daWdKMjuM" opacity="1" fill="#ffffff" fill-opacity="1"></use><g><use xlink:href="#daWdKMjuM" opacity="1" fill-opacity="0" stroke="#000000" stroke-width="1" stroke-opacity="0"></use></g></g><g><use xlink:href="#a2jSTKIkGI" opacity="1" fill="#ffffff" fill-opacity="1"></use><g><use xlink:href="#a2jSTKIkGI" opacity="1" fill-opacity="0" stroke="#000000" stroke-width="1" stroke-opacity="0"></use></g></g><g><use xlink:href="#b1RJR6XGhu" opacity="1" fill="#ffffff" fill-opacity="1"></use><g><use xlink:href="#b1RJR6XGhu" opacity="1" fill-opacity="0" stroke="#000000" stroke-width="1" stroke-opacity="0"></use></g></g><g><use xlink:href="#blUlVh6tj" opacity="1" fill="#ffffff" fill-opacity="1"></use><g><use xlink:href="#blUlVh6tj" opacity="1" fill-opacity="0" stroke="#000000" stroke-width="1" stroke-opacity="0"></use></g></g><g><use xlink:href="#a1ONObSA2I" opacity="1" fill="#ffffff" fill-opacity="1"></use><g><use xlink:href="#a1ONObSA2I" opacity="1" fill-opacity="0" stroke="#000000" stroke-width="1" stroke-opacity="0"></use></g></g><g><use xlink:href="#agQVtnUkI" opacity="1" fill="#ffffff" fill-opacity="1"></use><g><use xlink:href="#agQVtnUkI" opacity="1" fill-opacity="0" stroke="#000000" stroke-width="1" stroke-opacity="0"></use></g></g></g></g></svg>