<?xml version="1.0" encoding="UTF-8" standalone="no"?>
<!DOCTYPE svg PUBLIC "-//W3C//DTD SVG 1.1//EN" "http://www.w3.org/Graphics/SVG/1.1/DTD/svg11.dtd">
<svg version="1.1" xmlns="http://www.w3.org/2000/svg" xmlns:xlink="http://www.w3.org/1999/xlink" preserveAspectRatio="xMidYMid meet" viewBox="204.05378432251442 163.8371106272173 251.8924313549712 222.992445412232" width="247.89" height="218.99"><defs><path d="M319.91 173.4C322.66 193.01 318.91 207.68 308.64 217.4C298.37 227.12 283.86 229.95 265.1 225.89C261.21 231.92 258.05 237.3 255.65 242.03C253.23 246.76 251.56 250.85 250.64 254.29C250.35 255.74 248.07 267.36 247.78 268.81C247.11 263.83 245.45 259.75 242.78 256.58C240.12 253.4 236.46 251.13 231.8 249.77C233.83 239.87 237.18 230.85 241.83 222.69C246.47 214.54 252.42 207.24 259.68 200.82C270.55 208.18 280.2 209.35 288.6 204.32C297.01 199.29 301.15 190.39 301.02 177.61C302.91 177.19 318.02 173.82 319.91 173.4Z" id="amnkkgN7N"></path><linearGradient id="gradientc7C05xW7dt" gradientUnits="userSpaceOnUse" x1="233.62" y1="206.74" x2="349.62" y2="300.81"><stop style="stop-color: #007cde;stop-opacity: 1" offset="0%"></stop><stop style="stop-color: #fc00ff;stop-opacity: 1" offset="66.73461325478456%"></stop><stop style="stop-color: #22325c;stop-opacity: 1" offset="100%"></stop></linearGradient><path d="M319.91 173.4C322.66 193.01 318.91 207.68 308.64 217.4C298.37 227.12 283.86 229.95 265.1 225.89C261.21 231.92 258.05 237.3 255.65 242.03C253.23 246.76 251.56 250.85 250.64 254.29C250.35 255.74 248.07 267.36 247.78 268.81C247.11 263.83 245.45 259.75 242.78 256.58C240.12 253.4 236.46 251.13 231.8 249.77C233.83 239.87 237.18 230.85 241.83 222.69C246.47 214.54 252.42 207.24 259.68 200.82C270.55 208.18 280.2 209.35 288.6 204.32C297.01 199.29 301.15 190.39 301.02 177.61C302.91 177.19 318.02 173.82 319.91 173.4Z" id="b35d1kCL5"></path><linearGradient id="gradientef0vu2IoN" gradientUnits="userSpaceOnUse" x1="233.62" y1="206.74" x2="349.62" y2="300.81"><stop style="stop-color: #007cde;stop-opacity: 1" offset="0%"></stop><stop style="stop-color: #fc00ff;stop-opacity: 1" offset="66.73461325478456%"></stop><stop style="stop-color: #22325c;stop-opacity: 1" offset="100%"></stop></linearGradient><path d="M336.62 374.17C334.26 354.5 338.31 339.91 348.78 330.4C359.24 320.89 373.81 318.36 392.47 322.79C396.49 316.84 399.75 311.54 402.26 306.85C404.77 302.17 406.51 298.12 407.51 294.69C407.83 293.25 410.35 281.68 410.67 280.24C411.23 285.23 412.81 289.34 415.41 292.57C418.01 295.79 421.62 298.14 426.25 299.6C424.02 309.45 420.49 318.4 415.68 326.47C410.88 334.53 404.78 341.7 397.4 347.97C386.67 340.39 377.05 339.02 368.54 343.88C360.03 348.74 355.72 357.56 355.59 370.34C353.69 370.73 338.52 373.79 336.62 374.17Z" id="fXb8IQ0z"></path><linearGradient id="gradienta32LxoKhE" gradientUnits="userSpaceOnUse" x1="337.82" y1="313.06" x2="455.51" y2="405.68"><stop style="stop-color: #007cde;stop-opacity: 1" offset="0%"></stop><stop style="stop-color: #fc00ff;stop-opacity: 1" offset="66.73461325478456%"></stop><stop style="stop-color: #22325c;stop-opacity: 1" offset="100%"></stop></linearGradient><path d="M336.62 374.17C334.26 354.5 338.31 339.91 348.78 330.4C359.24 320.89 373.81 318.36 392.47 322.79C396.49 316.84 399.75 311.54 402.26 306.85C404.77 302.17 406.51 298.12 407.51 294.69C407.83 293.25 410.35 281.68 410.67 280.24C411.23 285.23 412.81 289.34 415.41 292.57C418.01 295.79 421.62 298.14 426.25 299.6C424.02 309.45 420.49 318.4 415.68 326.47C410.88 334.53 404.78 341.7 397.4 347.97C386.67 340.39 377.05 339.02 368.54 343.88C360.03 348.74 355.72 357.56 355.59 370.34C353.69 370.73 338.52 373.79 336.62 374.17Z" id="e1U3qpwifx"></path><linearGradient id="gradiente3njuRkWgP" gradientUnits="userSpaceOnUse" x1="337.82" y1="313.06" x2="455.51" y2="405.68"><stop style="stop-color: #007cde;stop-opacity: 1" offset="0%"></stop><stop style="stop-color: #fc00ff;stop-opacity: 1" offset="66.73461325478456%"></stop><stop style="stop-color: #22325c;stop-opacity: 1" offset="100%"></stop></linearGradient><path d="M412.26 216.11C396.55 228.18 381.94 232.16 368.42 228.01C354.9 223.87 345.28 212.65 339.57 194.34C332.39 193.92 326.16 193.83 320.85 194.06C315.55 194.3 311.17 194.87 307.73 195.76C306.32 196.23 295.08 199.97 293.68 200.44C297.68 197.39 300.41 193.93 301.86 190.05C303.31 186.17 303.48 181.87 302.37 177.14C311.98 174.03 321.48 172.48 330.87 172.5C340.25 172.52 349.52 174.1 358.69 177.25C357.66 190.34 361.4 199.3 369.92 204.14C378.44 208.97 388.23 208.18 399.27 201.76C400.57 203.2 410.96 214.68 412.26 216.11Z" id="c3GODmbN9"></path><linearGradient id="gradientbBOw1asja" gradientUnits="userSpaceOnUse" x1="296.11" y1="192.45" x2="450.7" y2="248.75"><stop style="stop-color: #007cde;stop-opacity: 1" offset="0%"></stop><stop style="stop-color: #fc00ff;stop-opacity: 1" offset="66.73461325478456%"></stop><stop style="stop-color: #22325c;stop-opacity: 1" offset="100%"></stop></linearGradient><path d="M412.26 216.11C396.55 228.18 381.94 232.16 368.42 228.01C354.9 223.87 345.28 212.65 339.57 194.34C332.39 193.92 326.16 193.83 320.85 194.06C315.55 194.3 311.17 194.87 307.73 195.76C306.32 196.23 295.08 199.97 293.68 200.44C297.68 197.39 300.41 193.93 301.86 190.05C303.31 186.17 303.48 181.87 302.37 177.14C311.98 174.03 321.48 172.48 330.87 172.5C340.25 172.52 349.52 174.1 358.69 177.25C357.66 190.34 361.4 199.3 369.92 204.14C378.44 208.97 388.23 208.18 399.27 201.76C400.57 203.2 410.96 214.68 412.26 216.11Z" id="d78UyuXZT"></path><linearGradient id="gradientd7hf0kffw" gradientUnits="userSpaceOnUse" x1="296.11" y1="192.45" x2="450.7" y2="248.75"><stop style="stop-color: #007cde;stop-opacity: 1" offset="0%"></stop><stop style="stop-color: #fc00ff;stop-opacity: 1" offset="66.73461325478456%"></stop><stop style="stop-color: #22325c;stop-opacity: 1" offset="100%"></stop></linearGradient><path d="M245.71 331.81C261.35 319.64 275.94 315.6 289.48 319.66C303.03 323.72 312.71 334.89 318.52 353.17C325.7 353.55 331.93 353.61 337.23 353.34C342.54 353.08 346.91 352.49 350.35 351.58C351.75 351.1 362.97 347.3 364.37 346.83C360.39 349.88 357.68 353.36 356.25 357.25C354.82 361.14 354.68 365.44 355.82 370.16C346.22 373.33 336.73 374.92 327.34 374.96C317.95 374.99 308.67 373.47 299.49 370.37C300.45 357.27 296.66 348.33 288.11 343.54C279.56 338.76 269.78 339.6 258.77 346.08C257.46 344.65 247.01 333.24 245.71 331.81Z" id="aEgD78in"></path><linearGradient id="gradientaGo2CBPVv" gradientUnits="userSpaceOnUse" x1="248.14" y1="337.99" x2="402.83" y2="394.02"><stop style="stop-color: #007cde;stop-opacity: 1" offset="0%"></stop><stop style="stop-color: #fc00ff;stop-opacity: 1" offset="66.73461325478456%"></stop><stop style="stop-color: #22325c;stop-opacity: 1" offset="100%"></stop></linearGradient><path d="M245.71 331.81C261.35 319.64 275.94 315.6 289.48 319.66C303.03 323.72 312.71 334.89 318.52 353.17C325.7 353.55 331.93 353.61 337.23 353.34C342.54 353.08 346.91 352.49 350.35 351.58C351.75 351.1 362.97 347.3 364.37 346.83C360.39 349.88 357.68 353.36 356.25 357.25C354.82 361.14 354.68 365.44 355.82 370.16C346.22 373.33 336.73 374.92 327.34 374.96C317.95 374.99 308.67 373.47 299.49 370.37C300.45 357.27 296.66 348.33 288.11 343.54C279.56 338.76 269.78 339.6 258.77 346.08C257.46 344.65 247.01 333.24 245.71 331.81Z" id="gAflGQHIu"></path><linearGradient id="gradienta8DDFPTE1y" gradientUnits="userSpaceOnUse" x1="248.14" y1="337.99" x2="402.83" y2="394.02"><stop style="stop-color: #007cde;stop-opacity: 1" offset="0%"></stop><stop style="stop-color: #fc00ff;stop-opacity: 1" offset="66.73461325478456%"></stop><stop style="stop-color: #22325c;stop-opacity: 1" offset="100%"></stop></linearGradient><path d="M237.06 231.58C255.44 238.98 266.27 249.56 269.57 263.3C272.87 277.05 268.08 291.04 255.21 305.26C258.48 311.65 261.57 317.07 264.47 321.52C267.36 325.97 270.07 329.46 272.59 331.97C273.7 332.94 282.64 340.73 283.75 341.7C279.1 339.79 274.73 339.19 270.65 339.92C266.57 340.64 262.78 342.69 259.27 346.04C251.71 339.34 245.56 331.94 240.81 323.84C236.06 315.75 232.71 306.95 230.76 297.46C242.58 291.71 248.4 283.93 248.23 274.14C248.07 264.34 242.43 256.31 231.28 250.04C231.86 248.2 236.48 233.42 237.06 231.58Z" id="c3vl3XjHkJ"></path><linearGradient id="gradientb55YykvOHt" gradientUnits="userSpaceOnUse" x1="231.85" y1="271.57" x2="300.93" y2="384.43"><stop style="stop-color: #007cde;stop-opacity: 1" offset="0%"></stop><stop style="stop-color: #fc00ff;stop-opacity: 1" offset="66.73461325478456%"></stop><stop style="stop-color: #22325c;stop-opacity: 1" offset="100%"></stop></linearGradient><path d="M237.06 231.58C255.44 238.98 266.27 249.56 269.57 263.3C272.87 277.05 268.08 291.04 255.21 305.26C258.48 311.65 261.57 317.07 264.47 321.52C267.36 325.97 270.07 329.46 272.59 331.97C273.7 332.94 282.64 340.73 283.75 341.7C279.1 339.79 274.73 339.19 270.65 339.92C266.57 340.64 262.78 342.69 259.27 346.04C251.71 339.34 245.56 331.94 240.81 323.84C236.06 315.75 232.71 306.95 230.76 297.46C242.58 291.71 248.4 283.93 248.23 274.14C248.07 264.34 242.43 256.31 231.28 250.04C231.86 248.2 236.48 233.42 237.06 231.58Z" id="e97MGa0BtL"></path><linearGradient id="gradientay1SaH7ag" gradientUnits="userSpaceOnUse" x1="231.85" y1="271.57" x2="300.93" y2="384.43"><stop style="stop-color: #007cde;stop-opacity: 1" offset="0%"></stop><stop style="stop-color: #fc00ff;stop-opacity: 1" offset="66.73461325478456%"></stop><stop style="stop-color: #22325c;stop-opacity: 1" offset="100%"></stop></linearGradient><path d="M420.57 317.15C402.28 309.52 391.58 298.8 388.46 285.02C385.33 271.23 390.29 257.3 403.34 243.24C400.15 236.81 397.13 231.36 394.28 226.87C391.45 222.39 388.78 218.87 386.29 216.32C385.19 215.33 376.36 207.44 375.26 206.45C379.89 208.42 384.25 209.07 388.33 208.4C392.42 207.72 396.24 205.73 399.79 202.42C407.26 209.22 413.32 216.69 417.97 224.84C422.62 233 425.86 241.83 427.69 251.35C415.8 256.96 409.88 264.65 409.93 274.45C409.97 284.26 415.51 292.35 426.57 298.75C425.97 300.59 421.17 315.31 420.57 317.15Z" id="n13gmkNkgC"></path><linearGradient id="gradiente220VTaR7F" gradientUnits="userSpaceOnUse" x1="376.34" y1="242.51" x2="444.68" y2="355.63"><stop style="stop-color: #007cde;stop-opacity: 1" offset="0%"></stop><stop style="stop-color: #fc00ff;stop-opacity: 1" offset="66.73461325478456%"></stop><stop style="stop-color: #22325c;stop-opacity: 1" offset="100%"></stop></linearGradient><path d="M420.57 317.15C402.28 309.52 391.58 298.8 388.46 285.02C385.33 271.23 390.29 257.3 403.34 243.24C400.15 236.81 397.13 231.36 394.28 226.87C391.45 222.39 388.78 218.87 386.29 216.32C385.19 215.33 376.36 207.44 375.26 206.45C379.89 208.42 384.25 209.07 388.33 208.4C392.42 207.72 396.24 205.73 399.79 202.42C407.26 209.22 413.32 216.69 417.97 224.84C422.62 233 425.86 241.83 427.69 251.35C415.8 256.96 409.88 264.65 409.93 274.45C409.97 284.26 415.51 292.35 426.57 298.75C425.97 300.59 421.17 315.31 420.57 317.15Z" id="c3E1zoN4jq"></path><linearGradient id="gradientd1fNUJPCQF" gradientUnits="userSpaceOnUse" x1="376.34" y1="242.51" x2="444.68" y2="355.63"><stop style="stop-color: #007cde;stop-opacity: 1" offset="0%"></stop><stop style="stop-color: #fc00ff;stop-opacity: 1" offset="66.73461325478456%"></stop><stop style="stop-color: #22325c;stop-opacity: 1" offset="100%"></stop></linearGradient><path d="M205.06 274.53C204.79 263.71 213.35 254.71 224.16 254.44C234.97 254.18 243.97 262.73 244.24 273.54C244.51 284.35 235.96 293.35 225.14 293.63C214.34 293.9 205.34 285.34 205.06 274.53Z" id="bZkCxZXnz"></path><linearGradient id="gradientahKlDiRU6" gradientUnits="userSpaceOnUse" x1="205.86" y1="268.13" x2="256.95" y2="306.79"><stop style="stop-color: #007cde;stop-opacity: 1" offset="0%"></stop><stop style="stop-color: #fc00ff;stop-opacity: 1" offset="66.73461325478456%"></stop><stop style="stop-color: #22325c;stop-opacity: 1" offset="100%"></stop></linearGradient><path d="M205.06 274.53C204.79 263.71 213.35 254.71 224.16 254.44C234.97 254.18 243.97 262.73 244.24 273.54C244.51 284.35 235.96 293.35 225.14 293.63C214.34 293.9 205.34 285.34 205.06 274.53Z" id="a2MK33et5e"></path><linearGradient id="gradientdWMUYU40d" gradientUnits="userSpaceOnUse" x1="205.86" y1="268.13" x2="256.95" y2="306.79"><stop style="stop-color: #007cde;stop-opacity: 1" offset="0%"></stop><stop style="stop-color: #fc00ff;stop-opacity: 1" offset="66.73461325478456%"></stop><stop style="stop-color: #22325c;stop-opacity: 1" offset="100%"></stop></linearGradient><path d="M257.1 185.34C256.83 174.53 265.38 165.53 276.2 165.26C287 164.99 296 173.54 296.28 184.35C296.55 195.17 287.99 204.16 277.19 204.44C266.37 204.71 257.37 196.15 257.1 185.34Z" id="c1sRazt1kV"></path><linearGradient id="gradientb1VsHSmAjt" gradientUnits="userSpaceOnUse" x1="257.9" y1="178.95" x2="308.99" y2="217.59"><stop style="stop-color: #007cde;stop-opacity: 1" offset="0%"></stop><stop style="stop-color: #fc00ff;stop-opacity: 1" offset="66.73461325478456%"></stop><stop style="stop-color: #22325c;stop-opacity: 1" offset="100%"></stop></linearGradient><path d="M257.1 185.34C256.83 174.53 265.38 165.53 276.2 165.26C287 164.99 296 173.54 296.28 184.35C296.55 195.17 287.99 204.16 277.19 204.44C266.37 204.71 257.37 196.15 257.1 185.34Z" id="dIawDHHlj"></path><linearGradient id="gradienteeSz9u2fh" gradientUnits="userSpaceOnUse" x1="257.9" y1="178.95" x2="308.99" y2="217.59"><stop style="stop-color: #007cde;stop-opacity: 1" offset="0%"></stop><stop style="stop-color: #fc00ff;stop-opacity: 1" offset="66.73461325478456%"></stop><stop style="stop-color: #22325c;stop-opacity: 1" offset="100%"></stop></linearGradient><path d="M413.76 275.74C413.49 264.92 422.04 255.92 432.86 255.65C443.66 255.38 452.66 263.93 452.94 274.75C453.21 285.55 444.65 294.55 433.84 294.83C423.03 295.1 414.03 286.54 413.76 275.74Z" id="g3nAyGKNxU"></path><linearGradient id="gradientb5tDjxTkR" gradientUnits="userSpaceOnUse" x1="414.56" y1="269.34" x2="465.65" y2="307.98"><stop style="stop-color: #007cde;stop-opacity: 1" offset="0%"></stop><stop style="stop-color: #fc00ff;stop-opacity: 1" offset="66.73461325478456%"></stop><stop style="stop-color: #22325c;stop-opacity: 1" offset="100%"></stop></linearGradient><path d="M413.76 275.74C413.49 264.92 422.04 255.92 432.86 255.65C443.66 255.38 452.66 263.93 452.94 274.75C453.21 285.55 444.65 294.55 433.84 294.83C423.03 295.1 414.03 286.54 413.76 275.74Z" id="fpLVYGvFh"></path><linearGradient id="gradientd1huOZJYyT" gradientUnits="userSpaceOnUse" x1="414.56" y1="269.34" x2="465.65" y2="307.98"><stop style="stop-color: #007cde;stop-opacity: 1" offset="0%"></stop><stop style="stop-color: #fc00ff;stop-opacity: 1" offset="66.73461325478456%"></stop><stop style="stop-color: #22325c;stop-opacity: 1" offset="100%"></stop></linearGradient><path d="M256.39 363.79C256.11 352.98 264.68 343.98 275.48 343.71C286.3 343.43 295.3 351.99 295.57 362.81C295.83 373.62 287.28 382.62 276.47 382.88C265.66 383.15 256.66 374.6 256.39 363.79Z" id="a7k6Uva0Dh"></path><linearGradient id="gradientmbIEbQJJV" gradientUnits="userSpaceOnUse" x1="257.19" y1="357.4" x2="308.28" y2="396.03"><stop style="stop-color: #007cde;stop-opacity: 1" offset="0%"></stop><stop style="stop-color: #fc00ff;stop-opacity: 1" offset="66.73461325478456%"></stop><stop style="stop-color: #22325c;stop-opacity: 1" offset="100%"></stop></linearGradient><path d="M256.39 363.79C256.11 352.98 264.68 343.98 275.48 343.71C286.3 343.43 295.3 351.99 295.57 362.81C295.83 373.62 287.28 382.62 276.47 382.88C265.66 383.15 256.66 374.6 256.39 363.79Z" id="cikgM2ell"></path><linearGradient id="gradientj28LLGvS2q" gradientUnits="userSpaceOnUse" x1="257.19" y1="357.4" x2="308.28" y2="396.03"><stop style="stop-color: #007cde;stop-opacity: 1" offset="0%"></stop><stop style="stop-color: #fc00ff;stop-opacity: 1" offset="66.73461325478456%"></stop><stop style="stop-color: #22325c;stop-opacity: 1" offset="100%"></stop></linearGradient><path d="M362.03 184.92C361.75 174.11 370.31 165.11 381.11 164.84C391.93 164.57 400.93 173.12 401.2 183.93C401.47 194.74 392.92 203.74 382.1 204.01C371.29 204.29 362.29 195.73 362.03 184.92Z" id="d1gTE2weuO"></path><linearGradient id="gradientdA44SYb0Z" gradientUnits="userSpaceOnUse" x1="362.83" y1="178.53" x2="413.91" y2="217.16"><stop style="stop-color: #007cde;stop-opacity: 1" offset="0%"></stop><stop style="stop-color: #fc00ff;stop-opacity: 1" offset="66.73461325478456%"></stop><stop style="stop-color: #22325c;stop-opacity: 1" offset="100%"></stop></linearGradient><path d="M362.03 184.92C361.75 174.11 370.31 165.11 381.11 164.84C391.93 164.57 400.93 173.12 401.2 183.93C401.47 194.74 392.92 203.74 382.1 204.01C371.29 204.29 362.29 195.73 362.03 184.92Z" id="b2rKAkFRxP"></path><linearGradient id="gradientb7JD5sHK" gradientUnits="userSpaceOnUse" x1="362.83" y1="178.53" x2="413.91" y2="217.16"><stop style="stop-color: #007cde;stop-opacity: 1" offset="0%"></stop><stop style="stop-color: #fc00ff;stop-opacity: 1" offset="66.73461325478456%"></stop><stop style="stop-color: #22325c;stop-opacity: 1" offset="100%"></stop></linearGradient><path d="M359.64 364.73C359.37 353.92 367.92 344.92 378.74 344.65C389.54 344.37 398.54 352.93 398.81 363.74C399.09 374.55 390.53 383.55 379.73 383.82C368.91 384.09 359.91 375.54 359.64 364.73Z" id="deSjXk1OS"></path><linearGradient id="gradientifqmPTbgW" gradientUnits="userSpaceOnUse" x1="360.44" y1="358.34" x2="411.52" y2="396.97"><stop style="stop-color: #007cde;stop-opacity: 1" offset="0%"></stop><stop style="stop-color: #fc00ff;stop-opacity: 1" offset="66.73461325478456%"></stop><stop style="stop-color: #22325c;stop-opacity: 1" offset="100%"></stop></linearGradient><path d="M359.64 364.73C359.37 353.92 367.92 344.92 378.74 344.65C389.54 344.37 398.54 352.93 398.81 363.74C399.09 374.55 390.53 383.55 379.73 383.82C368.91 384.09 359.91 375.54 359.64 364.73Z" id="aHLDXWDxP"></path><linearGradient id="gradienti2qxKaPoms" gradientUnits="userSpaceOnUse" x1="360.44" y1="358.34" x2="411.52" y2="396.97"><stop style="stop-color: #007cde;stop-opacity: 1" offset="0%"></stop><stop style="stop-color: #fc00ff;stop-opacity: 1" offset="66.73461325478456%"></stop><stop style="stop-color: #22325c;stop-opacity: 1" offset="100%"></stop></linearGradient></defs><g><g><use xlink:href="#amnkkgN7N" opacity="0.31" fill="url(#gradientc7C05xW7dt)"></use></g><g><use xlink:href="#b35d1kCL5" opacity="0.31" fill="url(#gradientef0vu2IoN)"></use></g><g><use xlink:href="#fXb8IQ0z" opacity="0.31" fill="url(#gradienta32LxoKhE)"></use></g><g><use xlink:href="#e1U3qpwifx" opacity="0.31" fill="url(#gradiente3njuRkWgP)"></use></g><g><use xlink:href="#c3GODmbN9" opacity="0.31" fill="url(#gradientbBOw1asja)"></use></g><g><use xlink:href="#d78UyuXZT" opacity="0.31" fill="url(#gradientd7hf0kffw)"></use></g><g><use xlink:href="#aEgD78in" opacity="0.31" fill="url(#gradientaGo2CBPVv)"></use></g><g><use xlink:href="#gAflGQHIu" opacity="0.31" fill="url(#gradienta8DDFPTE1y)"></use></g><g><use xlink:href="#c3vl3XjHkJ" opacity="0.31" fill="url(#gradientb55YykvOHt)"></use></g><g><use xlink:href="#e97MGa0BtL" opacity="0.31" fill="url(#gradientay1SaH7ag)"></use></g><g><use xlink:href="#n13gmkNkgC" opacity="0.31" fill="url(#gradiente220VTaR7F)"></use></g><g><use xlink:href="#c3E1zoN4jq" opacity="0.31" fill="url(#gradientd1fNUJPCQF)"></use></g><g><use xlink:href="#bZkCxZXnz" opacity="0.31" fill="url(#gradientahKlDiRU6)"></use></g><g><use xlink:href="#a2MK33et5e" opacity="0.31" fill="url(#gradientdWMUYU40d)"></use></g><g><use xlink:href="#c1sRazt1kV" opacity="0.31" fill="url(#gradientb1VsHSmAjt)"></use></g><g><use xlink:href="#dIawDHHlj" opacity="0.31" fill="url(#gradienteeSz9u2fh)"></use></g><g><use xlink:href="#g3nAyGKNxU" opacity="0.31" fill="url(#gradientb5tDjxTkR)"></use></g><g><use xlink:href="#fpLVYGvFh" opacity="0.31" fill="url(#gradientd1huOZJYyT)"></use></g><g><use xlink:href="#a7k6Uva0Dh" opacity="0.31" fill="url(#gradientmbIEbQJJV)"></use></g><g><use xlink:href="#cikgM2ell" opacity="0.31" fill="url(#gradientj28LLGvS2q)"></use></g><g><use xlink:href="#d1gTE2weuO" opacity="0.31" fill="url(#gradientdA44SYb0Z)"></use></g><g><use xlink:href="#b2rKAkFRxP" opacity="0.31" fill="url(#gradientb7JD5sHK)"></use></g><g><use xlink:href="#deSjXk1OS" opacity="0.31" fill="url(#gradientifqmPTbgW)"></use></g><g><use xlink:href="#aHLDXWDxP" opacity="0.31" fill="url(#gradienti2qxKaPoms)"></use></g></g></svg>