<?xml version="1.0" encoding="utf-8"?>
<svg viewBox="29.969 47.447 743.531 179.834" width="743.531" height="179.834" xmlns="http://www.w3.org/2000/svg" xmlns:xlink="http://www.w3.org/1999/xlink" xmlns:bx="https://boxy-svg.com">
  <defs>
    <linearGradient id="gradient-8-0" gradientUnits="userSpaceOnUse" x1="379.076" y1="353.739" x2="379.076" y2="510.781" xlink:href="#gradient-8"/>
    <linearGradient id="gradient-8" bx:pinned="true">
      <title>subsidiumfade</title>
      <stop offset="0" style="stop-color: rgb(204, 28, 252);"/>
      <stop offset="0.52" style="stop-color: rgba(0, 47, 254, 0.94);"/>
      <stop offset="1" style="stop-color: rgb(149, 0, 255);"/>
    </linearGradient>
    <linearGradient id="gradient-8-1" gradientUnits="userSpaceOnUse" x1="117.611" y1="222.834" x2="117.611" y2="512" xlink:href="#gradient-8"/>
    <linearGradient id="gradient-8-2" gradientUnits="userSpaceOnUse" x1="120.662" y1="447.551" x2="120.662" y2="473.631" xlink:href="#gradient-8"/>
    <linearGradient id="gradient-8-3" gradientUnits="userSpaceOnUse" x1="141.451" y1="0" x2="141.451" y2="210.349" xlink:href="#gradient-8"/>
    <linearGradient id="gradient-8-4" gradientUnits="userSpaceOnUse" x1="141.45" y1="60.384" x2="141.45" y2="129.628" xlink:href="#gradient-8"/>
    <linearGradient id="gradient-8-5" gradientUnits="userSpaceOnUse" x1="405.801" y1="169.901" x2="405.801" y2="239.145" xlink:href="#gradient-8"/>
    <linearGradient id="gradient-8-6" gradientUnits="userSpaceOnUse" x1="395.632" y1="70.92" x2="395.632" y2="338.126" xlink:href="#gradient-8"/>
    <linearGradient id="gradient-8-7" gradientUnits="userSpaceOnUse" x1="130.073" y1="288.096" x2="130.073" y2="409.228" xlink:href="#gradient-8"/>
    <linearGradient id="gradient-8-8" gradientUnits="userSpaceOnUse" x1="376.756" y1="0.23" x2="376.756" y2="82.147" xlink:href="#gradient-8"/>
    <linearGradient id="gradient-8-9" gradientUnits="userSpaceOnUse" x1="255.127" y1="244.611" x2="255.127" y2="321.381" xlink:href="#gradient-8"/>
    <linearGradient id="gradient-8-10" gradientUnits="userSpaceOnUse" x1="335.321" y1="76.658" x2="335.321" y2="175.144" gradientTransform="matrix(1.268358, 0, 0, 1.268358, -123.494517, -26.91672)" xlink:href="#gradient-8"/>
    <linearGradient id="gradient-8-11" gradientUnits="userSpaceOnUse" x1="335.321" y1="89.768" x2="335.321" y2="135.395" gradientTransform="matrix(1.268358, 0, 0, 1.268358, -123.494517, -26.91672)" xlink:href="#gradient-8"/>
    <linearGradient id="gradient-8-12" gradientUnits="userSpaceOnUse" x1="334.127" y1="102.037" x2="334.127" y2="124.891" gradientTransform="matrix(1.268358, 0, 0, 1.268358, -123.494517, -26.91672)" xlink:href="#gradient-8"/>
    <linearGradient id="gradient-8-13" gradientUnits="userSpaceOnUse" x1="473.689" y1="75.16" x2="473.689" y2="170.897" gradientTransform="matrix(1.268358, 0, 0, 1.268358, -107.680705, -30.637628)" xlink:href="#gradient-8"/>
    <linearGradient id="gradient-8-14" gradientUnits="userSpaceOnUse" x1="465.959" y1="112.22" x2="465.959" y2="136.926" gradientTransform="matrix(1.268358, 0, 0, 1.268358, -107.680705, -30.637628)" xlink:href="#gradient-8"/>
    <linearGradient id="gradient-8-15" gradientUnits="userSpaceOnUse" x1="639.614" y1="83.734" x2="639.614" y2="169.598" gradientTransform="matrix(1.268358, 0, 0, 1.268358, -123.494517, -29.072524)" xlink:href="#gradient-8"/>
    <linearGradient id="gradient-8-16" gradientUnits="userSpaceOnUse" x1="621.01" y1="102.338" x2="621.01" y2="122.373" gradientTransform="matrix(1.268358, 0, 0, 1.268358, -123.494517, -29.072524)" xlink:href="#gradient-8"/>
    <linearGradient id="gradient-8-17" gradientUnits="userSpaceOnUse" x1="617.432" y1="126.666" x2="617.432" y2="129.528" gradientTransform="matrix(1.268358, 0, 0, 1.268358, -123.494517, -29.072524)" xlink:href="#gradient-8"/>
    <linearGradient id="gradient-8-18" gradientUnits="userSpaceOnUse" x1="617.432" y1="132.391" x2="617.432" y2="135.253" gradientTransform="matrix(1.268358, 0, 0, 1.268358, -123.494517, -29.072524)" xlink:href="#gradient-8"/>
    <linearGradient id="gradient-8-19" gradientUnits="userSpaceOnUse" x1="617.432" y1="138.114" x2="617.432" y2="140.977" gradientTransform="matrix(1.268358, 0, 0, 1.268358, -123.494517, -29.072524)" xlink:href="#gradient-8"/>
    <linearGradient id="gradient-8-20" gradientUnits="userSpaceOnUse" x1="619.578" y1="143.839" x2="619.578" y2="146.701" gradientTransform="matrix(1.268358, 0, 0, 1.268358, -123.494517, -29.072524)" xlink:href="#gradient-8"/>
    <linearGradient id="gradient-8-21" gradientUnits="userSpaceOnUse" x1="631.027" y1="149.563" x2="631.027" y2="152.425" gradientTransform="matrix(1.268358, 0, 0, 1.268358, -123.494517, -29.072524)" xlink:href="#gradient-8"/>
    <linearGradient id="gradient-8-22" gradientUnits="userSpaceOnUse" x1="617.432" y1="149.563" x2="617.432" y2="152.425" gradientTransform="matrix(1.268358, 0, 0, 1.268358, -123.494517, -29.072524)" xlink:href="#gradient-8"/>
    <linearGradient id="gradient-8-23" gradientUnits="userSpaceOnUse" x1="635.32" y1="155.287" x2="635.32" y2="158.15" gradientTransform="matrix(1.268358, 0, 0, 1.268358, -123.494517, -29.072524)" xlink:href="#gradient-8"/>
    <linearGradient id="gradient-8-24" gradientUnits="userSpaceOnUse" x1="648.914" y1="111.056" x2="648.914" y2="146.557" gradientTransform="matrix(1.268358, 0, 0, 1.268358, -123.494517, -29.072524)" xlink:href="#gradient-8"/>
    <linearGradient id="gradient-8-25" gradientUnits="userSpaceOnUse" x1="657.487" y1="105.131" x2="657.487" y2="169.66" gradientTransform="matrix(1.268358, 0, 0, 1.268358, -123.494517, -29.072524)" xlink:href="#gradient-8"/>
    <linearGradient id="gradient-8-26" gradientUnits="userSpaceOnUse" x1="644.617" y1="118.081" x2="644.617" y2="136.719" gradientTransform="matrix(1.268358, 0, 0, 1.268358, -123.494517, -29.072524)" xlink:href="#gradient-8"/>
    <linearGradient id="gradient-8-27" gradientUnits="userSpaceOnUse" x1="640.329" y1="118.079" x2="640.329" y2="129.529" gradientTransform="matrix(1.268358, 0, 0, 1.268358, -123.494517, -29.072524)" xlink:href="#gradient-8"/>
  </defs>
  <g transform="matrix(0.229125, 0, 0, 0.229125, 49.358231, 70.176621)" style="">
    <g>
      <path d="M501.942,380.374c-17.175-17.175-40.011-26.635-64.301-26.635c-21.678,0-42.197,7.534-58.568,21.364 c-35.69-30.086-89.263-28.329-122.863,5.271c-1.415,1.414-2.209,3.332-2.209,5.332c0,68.966,56.109,125.075,125.075,125.075 s125.075-56.109,125.075-125.075C504.15,383.706,503.356,381.787,501.942,380.374z M371.786,388.775 c1.21,2.714,3.905,4.471,6.888,4.471h0.805c2.984,0,5.68-1.758,6.889-4.473c14.025-12.891,32.107-19.952,51.274-19.952 c17.259,0,33.628,5.742,46.958,16.293c-59.729,54.786-151.859,55.005-211.839,0.641 C301.689,362.275,344.01,363.271,371.786,388.775z M379.075,495.698c-54.53,0-99.911-39.886-108.517-92.016 c31.373,25.17,69.571,37.765,107.774,37.765c38.9,0,77.794-13.056,109.484-39.151 C479.795,455.103,434.088,495.698,379.075,495.698z" style="fill: url(#gradient-8-0); stroke-width: 5.23732px; stroke: rgb(255, 252, 251);"/>
    </g>
  </g>
  <g transform="matrix(0.229125, 0, 0, 0.229125, 49.358231, 70.176621)" style="">
    <g>
      <path d="M198.119,223.893c-2.285-1.359-5.119-1.414-7.455-0.145c-1.34,0.728-33.218,18.251-68.596,54.858 C89.41,312.398,47.65,369.487,34.163,449.569c-2.617,15.54,1.726,31.363,11.918,43.415C56.301,505.069,71.236,512,87.057,512 h68.208c25.662,0,46.54-20.877,46.54-46.54V230.374C201.806,227.715,200.405,225.253,198.119,223.893z M186.724,465.46 c0,17.346-14.112,31.458-31.458,31.458H87.058c-11.375,0-22.113-4.984-29.461-13.673c-7.32-8.655-10.44-20.016-8.56-31.17 c12.807-76.046,52.477-130.396,83.501-162.598c21.567-22.386,42.08-37.499,54.186-45.551V465.46z" style="fill: url(#gradient-8-1); stroke-width: 5.23732px; stroke: rgb(255, 252, 251);"/>
    </g>
  </g>
  <g transform="matrix(0.229125, 0, 0, 0.229125, 49.358231, 70.176621)" style="">
    <g>
      <path d="M120.662,447.551c-19.278,0-38.73,5.732-38.73,18.539c0,4.165,3.376,7.541,7.541,7.541c3.695,0,6.77-2.658,7.415-6.167 c2.233-1.818,10.823-4.831,23.774-4.831s21.54,3.013,23.774,4.831c0.646,3.508,3.72,6.167,7.415,6.167 c4.165,0,7.541-3.376,7.541-7.541C159.392,453.283,139.939,447.551,120.662,447.551z" style="fill: url(#gradient-8-2); stroke-width: 5.23732px; stroke: rgb(255, 252, 251);"/>
    </g>
  </g>
  <g transform="matrix(0.229125, 0, 0, 0.229125, 49.358231, 70.176621)" style="">
    <g>
      <path d="M273.69,117.838c-1.853-2.648-36.444-51.346-85.656-73.291l13.067-28.067c1.758-3.775,0.122-8.261-3.654-10.018 c-3.774-1.758-8.26-0.122-10.018,3.654l-13.522,29.048c-6.904-2.176-14.039-3.749-21.361-4.56V7.541 c0-4.165-3.376-7.541-7.541-7.541c-4.165,0-7.541,3.376-7.541,7.541v26.522c-7.594,0.306-15.008,1.466-22.196,3.307L102.58,10.115 c-1.758-3.776-6.243-5.411-10.018-3.654c-3.776,1.758-5.411,6.243-3.654,10.018l11.908,25.579 c-52.353,20.482-89.677,73.026-91.604,75.78c-1.817,2.596-1.817,6.052,0,8.648c2.396,3.425,59.527,83.863,132.24,83.863 c72.712,0,129.843-80.44,132.239-83.864C275.507,123.889,275.507,120.434,273.69,117.838z M100.862,58.44 c12.726-5.724,26.405-9.384,40.589-9.384c14.19,0,27.884,3.678,40.63,9.426c10.356,10.641,16.061,24.637,16.061,39.516 c0,15.143-5.897,29.379-16.604,40.087c-10.707,10.707-24.944,16.605-40.088,16.605c-15.143,0-29.38-5.897-40.087-16.605 C79.433,116.154,79.274,80.584,100.862,58.44z M141.453,195.269c-55.8,0-103.968-56.807-116.639-73.11 c6.995-9.021,24.829-30.414,48.822-47.741c-2.595,7.484-3.958,15.427-3.958,23.581c0,19.171,7.466,37.195,21.022,50.751 c13.556,13.557,31.58,21.022,50.751,21.022c19.171,0,37.196-7.466,50.751-21.022c13.557-13.556,21.022-31.579,21.022-50.751 c0-8.136-1.358-16.06-3.941-23.529c23.964,17.319,41.8,38.681,48.805,47.693C245.408,138.477,197.244,195.269,141.453,195.269z" style="fill: url(#gradient-8-3); stroke-width: 5.23732px; stroke: rgb(255, 252, 251);"/>
    </g>
  </g>
  <g transform="matrix(0.229125, 0, 0, 0.229125, 49.358231, 70.176621)" style="">
    <g>
      <path d="M141.45,60.384c-19.091,0-34.622,15.531-34.622,34.622s15.531,34.622,34.622,34.622c19.091,0,34.622-15.531,34.622-34.622 S160.541,60.384,141.45,60.384z M141.45,114.546c-10.774,0-19.54-8.766-19.54-19.54s8.766-19.54,19.54-19.54 s19.54,8.766,19.54,19.54S152.225,114.546,141.45,114.546z" style="fill: url(#gradient-8-4); stroke-width: 5.23732px; stroke: rgb(255, 252, 251);"/>
    </g>
  </g>
  <g transform="matrix(0.229125, 0, 0, 0.229125, 49.358231, 70.176621)" style="">
    <g>
      <path d="M405.801,169.901c-19.091,0-34.622,15.531-34.622,34.622c0,19.091,15.531,34.622,34.622,34.622 s34.622-15.531,34.622-34.622C440.423,185.432,424.892,169.901,405.801,169.901z M405.801,224.063 c-10.774,0-19.54-8.766-19.54-19.54c0-10.775,8.766-19.54,19.54-19.54s19.54,8.766,19.54,19.54 C425.341,215.298,416.576,224.063,405.801,224.063z" style="fill: url(#gradient-8-5); stroke-width: 5.23732px; stroke: rgb(255, 252, 251);"/>
    </g>
  </g>
  <g transform="matrix(0.229125, 0, 0, 0.229125, 49.358231, 70.176621)" style="">
    <g>
      <path d="M493.266,215.618c4.165,0,7.541-3.376,7.541-7.541s-3.376-7.541-7.541-7.541h-26.522 c-0.306-7.594-1.466-15.008-3.307-22.195l27.255-12.688c3.776-1.758,5.411-6.243,3.654-10.018 c-1.758-3.775-6.243-5.41-10.018-3.654l-25.579,11.907c-20.482-52.353-73.026-89.677-75.779-91.604 c-2.596-1.818-6.052-1.818-8.648,0c-3.425,2.396-83.864,59.527-83.864,132.24s80.44,129.844,83.864,132.24 c1.298,0.909,2.811,1.362,4.323,1.362s3.025-0.454,4.323-1.362c2.648-1.853,51.346-36.444,73.29-85.656l28.07,13.067 c1.03,0.48,2.112,0.707,3.177,0.707c2.841,0,5.563-1.614,6.841-4.361c1.758-3.776,0.122-8.261-3.654-10.018l-29.049-13.522 c2.176-6.904,3.749-14.04,4.56-21.361H493.266z M378.641,321.162c-16.314-12.656-73.102-60.741-73.102-116.639 c0-55.8,56.808-103.968,73.111-116.639c9.02,6.998,30.413,24.832,47.74,48.826c-7.484-2.596-15.427-3.959-23.582-3.959 c-19.171,0-37.195,7.466-50.751,21.022c-13.557,13.556-21.022,31.579-21.022,50.751s7.465,37.195,21.022,50.751 c13.556,13.557,31.58,21.022,50.751,21.022c8.136,0,16.06-1.357,23.529-3.941C409.016,296.322,387.651,314.159,378.641,321.162z M442.324,245.153c-10.641,10.357-24.638,16.062-39.518,16.062c-15.143,0-29.379-5.897-40.087-16.604 c-10.707-10.707-16.605-24.944-16.605-40.087c0-15.142,5.897-29.379,16.605-40.087c10.708-10.707,24.944-16.604,40.087-16.604 c14.899,0,28.912,5.719,39.559,16.101c5.724,12.725,9.385,26.404,9.385,40.588C451.751,218.713,448.072,232.407,442.324,245.153z" style="fill: url(#gradient-8-6); stroke-width: 5.23732px; stroke: rgb(255, 252, 251);"/>
    </g>
  </g>
  <g transform="matrix(0.229125, 0, 0, 0.229125, 49.358231, 70.176621)" style="">
    <g>
      <path d="M175.046,291.533c-2.267-3.494-6.938-4.487-10.431-2.221C111.551,323.744,85.408,396.1,84.321,399.164 c-1.393,3.924,0.66,8.236,4.585,9.628c0.834,0.296,1.684,0.436,2.522,0.436c3.103,0,6.011-1.929,7.107-5.021 c0.249-0.702,25.472-70.566,74.29-102.243C176.319,299.698,177.313,295.027,175.046,291.533z" style="fill: url(#gradient-8-7); stroke-width: 5.23732px; stroke: rgb(255, 252, 251);"/>
    </g>
  </g>
  <g transform="matrix(0.229125, 0, 0, 0.229125, 49.358231, 70.176621)" style="">
    <g>
      <path d="M478.042,42.119C451.03,15.106,415.061,0.23,376.761,0.23c-38.301,0-74.268,14.876-101.281,41.888 c-4.429,4.429-6.868,10.317-6.868,16.581c0,6.264,2.439,12.152,6.868,16.581c9.145,9.143,24.02,9.141,33.161-0.001 c37.561-37.56,98.679-37.56,136.239,0c4.429,4.429,10.318,6.868,16.581,6.868s12.152-2.439,16.581-6.868 C487.185,66.137,487.185,51.261,478.042,42.119z M467.378,64.616c-1.581,1.58-3.682,2.451-5.916,2.451 c-2.234,0-4.337-0.871-5.916-2.451c-21.721-21.721-50.252-32.58-78.784-32.58c-28.532,0-57.064,10.86-78.785,32.58 c-3.262,3.262-8.569,3.262-11.832,0c-1.581-1.581-2.451-3.682-2.451-5.916c0-2.234,0.87-4.337,2.45-5.916 c24.163-24.164,56.345-37.471,90.617-37.471s66.453,13.307,90.617,37.471c1.581,1.581,2.451,3.682,2.451,5.916 C469.83,60.935,468.959,63.036,467.378,64.616z" style="fill: url(#gradient-8-8); stroke-width: 5.23732px; stroke: rgb(255, 252, 251);"/>
    </g>
  </g>
  <g transform="matrix(0.229125, 0, 0, 0.229125, 49.358231, 70.176621)" style="">
    <g>
      <path d="M261.235,247.73c-1.418-1.959-3.69-3.119-6.108-3.119c-2.418,0-4.69,1.16-6.108,3.119 c-5.269,7.279-22.46,32.041-22.46,45.083c0,15.752,12.816,28.568,28.568,28.568s28.568-12.816,28.568-28.568 C283.694,279.771,266.503,255.008,261.235,247.73z M255.126,306.298c-7.436,0-13.486-6.05-13.486-13.486 c0-4.429,6.245-16.17,13.482-27.311c7.255,11.201,13.49,23.009,13.49,27.311C268.613,300.249,262.563,306.298,255.126,306.298z" style="fill: url(#gradient-8-9); stroke-width: 5.23732px; stroke: rgb(255, 252, 251);"/>
    </g>
  </g>
  <g transform="matrix(0.180647, 0, 0, 0.180647, 52.67236, 47.447018)" style=""/>
  <g transform="matrix(0.180647, 0, 0, 0.180647, 52.67236, 47.447018)" style=""/>
  <g transform="matrix(0.180647, 0, 0, 0.180647, 52.67236, 47.447018)" style=""/>
  <g transform="matrix(0.180647, 0, 0, 0.180647, 52.67236, 47.447018)" style=""/>
  <g transform="matrix(0.180647, 0, 0, 0.180647, 52.67236, 47.447018)" style=""/>
  <g transform="matrix(0.180647, 0, 0, 0.180647, 52.67236, 47.447018)" style=""/>
  <g transform="matrix(0.180647, 0, 0, 0.180647, 52.67236, 47.447018)" style=""/>
  <g transform="matrix(0.180647, 0, 0, 0.180647, 52.67236, 47.447018)" style=""/>
  <g transform="matrix(0.180647, 0, 0, 0.180647, 52.67236, 47.447018)" style=""/>
  <g transform="matrix(0.180647, 0, 0, 0.180647, 52.67236, 47.447018)" style=""/>
  <g transform="matrix(0.180647, 0, 0, 0.180647, 52.67236, 47.447018)" style=""/>
  <g transform="matrix(0.180647, 0, 0, 0.180647, 52.67236, 47.447018)" style=""/>
  <g transform="matrix(0.180647, 0, 0, 0.180647, 52.67236, 47.447018)" style=""/>
  <g transform="matrix(0.180647, 0, 0, 0.180647, 52.67236, 47.447018)" style=""/>
  <g transform="matrix(0.180647, 0, 0, 0.180647, 52.67236, 47.447018)" style=""/>
  <path d="M 345.092 109.497 L 339.227 102.381 C 338.421 101.404 337.932 100.224 337.811 98.964 L 336.927 89.786 C 336.468 85.016 332.673 81.222 327.904 80.762 L 318.725 79.879 C 317.467 79.758 316.284 79.268 315.308 78.464 L 308.193 72.597 C 304.495 69.551 299.13 69.551 295.432 72.597 L 288.317 78.464 C 287.34 79.268 286.159 79.758 284.899 79.879 L 275.721 80.762 C 270.952 81.222 267.158 85.016 266.698 89.786 L 265.814 98.964 C 265.692 100.224 265.203 101.404 264.398 102.381 L 258.532 109.497 C 255.485 113.194 255.485 118.56 258.532 122.257 L 264.398 129.372 C 265.203 130.35 265.692 131.531 265.814 132.791 L 266.698 141.968 C 267.157 146.737 270.952 150.532 275.721 150.992 L 281.331 151.533 L 268.001 183.386 C 267.641 184.253 267.802 185.227 268.427 185.932 C 269.051 186.634 269.999 186.912 270.901 186.656 L 282.466 183.392 C 282.517 183.377 282.565 183.398 282.588 183.439 L 288.38 193.97 C 288.811 194.755 289.616 195.228 290.502 195.228 C 290.544 195.228 290.586 195.228 290.629 195.224 C 291.565 195.176 292.375 194.612 292.746 193.738 L 306.82 160.106 C 307.297 159.832 307.756 159.516 308.194 159.155 L 315.308 153.29 C 316.208 152.549 317.287 152.078 318.437 151.915 L 331.185 182.373 L 322.163 179.826 C 320.448 179.343 318.652 180.094 317.791 181.655 L 313.275 189.867 L 307.29 175.567 C 306.896 174.622 305.811 174.178 304.866 174.572 C 303.923 174.967 303.478 176.052 303.873 176.996 L 310.882 193.747 C 311.251 194.612 312.058 195.176 312.997 195.224 C 313.04 195.228 313.081 195.229 313.124 195.229 C 314.009 195.229 314.814 194.755 315.245 193.97 L 321.036 183.442 C 321.061 183.398 321.11 183.379 321.159 183.392 L 332.721 186.656 C 333.626 186.911 334.574 186.634 335.198 185.932 C 335.822 185.227 335.984 184.254 335.623 183.382 L 322.294 151.531 L 327.904 150.991 C 332.673 150.532 336.468 146.737 336.927 141.968 L 337.811 132.788 C 337.932 131.531 338.421 130.35 339.227 129.372 L 345.092 122.257 C 348.14 118.56 348.14 113.194 345.092 109.497 Z M 290.351 189.867 L 285.834 181.652 C 284.973 180.093 283.175 179.341 281.461 179.826 L 272.441 182.372 L 285.188 151.915 C 286.338 152.078 287.417 152.549 288.317 153.29 L 295.432 159.155 C 297.282 160.68 299.546 161.442 301.813 161.442 C 301.958 161.442 302.102 161.438 302.249 161.43 Z M 342.234 119.901 L 336.369 127.016 C 335.092 128.564 334.315 130.438 334.124 132.435 L 333.24 141.613 C 332.95 144.622 330.557 147.014 327.549 147.304 L 319.487 148.081 C 319.456 148.082 319.423 148.085 319.392 148.09 L 318.371 148.188 C 316.373 148.38 314.499 149.155 312.953 150.433 L 305.837 156.298 C 303.506 158.219 300.12 158.219 297.79 156.298 L 290.673 150.433 C 289.127 149.155 287.253 148.379 285.255 148.188 L 284.23 148.089 C 284.199 148.085 284.174 148.083 284.145 148.082 L 276.076 147.304 C 273.069 147.014 270.675 144.622 270.386 141.613 L 269.502 132.435 C 269.309 130.438 268.534 128.564 267.257 127.016 L 261.392 119.901 C 259.469 117.57 259.469 114.185 261.392 111.853 L 267.257 104.738 C 268.534 103.19 269.309 101.316 269.502 99.319 L 270.386 90.14 C 270.675 87.132 273.069 84.739 276.076 84.45 L 285.255 83.566 C 287.253 83.373 289.127 82.597 290.673 81.322 L 297.79 75.457 C 298.955 74.497 300.384 74.015 301.813 74.015 C 303.242 74.015 304.671 74.496 305.837 75.457 L 312.953 81.322 C 314.499 82.597 316.373 83.375 318.371 83.566 L 327.549 84.45 C 330.557 84.739 332.95 87.132 333.24 90.14 L 334.124 99.319 C 334.315 101.316 335.092 103.19 336.369 104.738 L 342.234 111.853 C 344.156 114.185 344.156 117.57 342.234 119.901 Z M 342.234 119.901" style="fill: url(#gradient-8-10); stroke-width: 1.2px; stroke: rgb(255, 252, 251);"/>
  <path d="M 301.813 86.942 C 300.576 86.942 299.331 87.019 298.111 87.175 C 297.098 87.304 296.38 88.234 296.509 89.247 C 296.638 90.262 297.568 90.979 298.581 90.849 C 299.645 90.714 300.733 90.645 301.813 90.645 C 315.726 90.645 327.045 101.964 327.045 115.878 C 327.045 129.791 315.725 141.109 301.813 141.109 C 287.9 141.109 276.581 129.791 276.581 115.876 C 276.581 105.953 282.432 96.914 291.488 92.847 C 292.421 92.429 292.839 91.331 292.418 90.399 C 291.999 89.464 290.902 89.047 289.971 89.467 C 279.586 94.131 272.876 104.496 272.876 115.876 C 272.876 131.832 285.856 144.812 301.813 144.812 C 317.769 144.812 330.75 131.832 330.75 115.876 C 330.75 99.921 317.769 86.942 301.813 86.942 Z M 301.813 86.942" style="fill: url(#gradient-8-11); stroke-width: 1.2px; stroke: rgb(255, 252, 251);"/>
  <path d="M 283.416 113.73 C 281.209 115.94 281.209 119.534 283.416 121.741 L 291.507 129.832 C 292.577 130.901 293.998 131.49 295.512 131.49 C 297.024 131.49 298.447 130.901 299.518 129.832 L 317.179 112.171 C 319.387 109.962 319.387 106.369 317.179 104.159 C 314.97 101.951 311.376 101.951 309.168 104.159 L 295.512 117.816 L 291.426 113.73 C 289.219 111.523 285.624 111.523 283.416 113.73 Z M 295.512 122.29 C 296.004 122.29 296.474 122.092 296.822 121.745 L 311.786 106.78 C 312.552 106.016 313.794 106.017 314.56 106.78 C 315.323 107.544 315.323 108.788 314.56 109.551 L 296.897 127.214 C 296.529 127.582 296.036 127.786 295.512 127.786 C 294.988 127.786 294.497 127.582 294.126 127.214 L 286.035 119.123 C 285.272 118.359 285.272 117.115 286.035 116.35 C 286.418 115.969 286.919 115.778 287.421 115.778 C 287.924 115.778 288.425 115.969 288.806 116.349 L 294.202 121.745 C 294.55 122.092 295.021 122.29 295.512 122.29 Z M 295.512 122.29" style="fill: url(#gradient-8-12); stroke-width: 1.2px; stroke: rgb(255, 252, 251);"/>
  <path d="M 547.965 166.537 L 546.006 166.537 L 546.006 97.987 C 546.006 94.742 543.375 92.112 540.13 92.112 L 528.379 92.112 L 528.379 90.153 C 528.379 89.072 527.502 88.195 526.42 88.195 L 523.3 88.195 C 522.762 86.397 522.04 84.657 521.144 83.007 L 523.354 80.795 C 524.119 80.031 524.119 78.791 523.354 78.027 L 515.046 69.716 C 514.269 68.982 513.053 68.982 512.276 69.716 L 510.065 71.928 C 508.415 71.031 506.676 70.31 504.876 69.773 L 504.876 66.652 C 504.876 65.569 504 64.692 502.918 64.692 L 491.166 64.692 C 490.086 64.692 489.209 65.569 489.209 66.652 L 489.209 69.773 C 487.41 70.31 485.671 71.031 484.021 71.928 L 481.81 69.716 C 481.033 68.982 479.817 68.982 479.04 69.716 L 470.729 78.027 C 469.966 78.791 469.966 80.031 470.729 80.795 L 472.939 83.007 C 472.046 84.657 471.323 86.397 470.787 88.195 L 467.665 88.195 C 466.584 88.195 465.707 89.072 465.707 90.153 L 465.707 92.112 L 446.121 92.112 C 442.876 92.112 440.246 94.742 440.246 97.987 L 440.246 166.537 L 438.288 166.537 C 435.042 166.537 432.411 169.167 432.411 172.411 L 432.411 176.328 C 432.418 181.734 436.798 186.114 442.205 186.121 L 544.047 186.121 C 549.453 186.114 553.833 181.734 553.84 176.328 L 553.84 172.411 C 553.84 169.167 551.21 166.537 547.965 166.537 Z M 469.623 92.112 L 472.29 92.112 C 473.197 92.112 473.986 91.488 474.195 90.604 C 474.775 88.17 475.739 85.843 477.053 83.714 C 477.532 82.941 477.416 81.942 476.772 81.298 L 474.886 79.411 L 480.425 73.87 L 482.313 75.76 C 482.955 76.402 483.955 76.52 484.727 76.042 C 486.856 74.726 489.183 73.759 491.618 73.183 C 492.501 72.975 493.125 72.186 493.126 71.277 L 493.126 68.61 L 500.96 68.61 L 500.96 71.277 C 500.96 72.186 501.584 72.975 502.468 73.183 C 504.904 73.764 507.23 74.733 509.357 76.053 C 510.131 76.53 511.13 76.413 511.773 75.77 L 513.661 73.88 L 519.2 79.42 L 517.314 81.309 C 516.671 81.95 516.554 82.952 517.031 83.723 C 518.347 85.853 519.312 88.179 519.891 90.613 C 520.099 91.497 520.888 92.121 521.796 92.121 L 524.463 92.121 L 524.463 99.957 L 521.796 99.957 C 520.888 99.957 520.099 100.58 519.891 101.465 C 519.312 103.899 518.347 106.225 517.031 108.354 C 516.554 109.126 516.671 110.127 517.314 110.769 L 519.2 112.656 L 513.661 118.198 L 511.773 116.307 C 511.13 115.665 510.131 115.549 509.357 116.025 C 507.96 116.887 506.475 117.602 504.928 118.155 C 504.538 117.221 504.085 116.315 503.575 115.442 L 505.199 113.818 C 518.907 107.542 520.68 88.781 508.391 80.047 C 496.102 71.312 478.967 79.157 477.547 94.167 C 477.344 96.313 477.498 98.48 478 100.576 C 477.656 100.934 477.462 101.409 477.459 101.904 L 477.459 104.621 C 476.787 104.791 476.152 105.042 475.499 105.27 C 474.954 104.038 474.516 102.76 474.192 101.452 C 473.981 100.571 473.196 99.947 472.29 99.946 L 469.623 99.946 Z M 499.695 140.956 L 501.336 142.598 L 498.566 145.369 L 496.923 143.725 C 496.255 143.058 495.206 142.961 494.428 143.496 C 492.167 145.056 489.599 146.118 486.896 146.61 C 485.967 146.782 485.292 147.592 485.292 148.537 L 485.292 150.868 L 481.375 150.868 L 481.375 148.537 C 481.375 147.592 480.7 146.782 479.771 146.61 C 477.067 146.118 474.499 145.056 472.237 143.496 C 471.46 142.961 470.411 143.058 469.743 143.725 L 468.1 145.369 L 465.33 142.598 L 466.972 140.956 C 467.64 140.287 467.736 139.239 467.201 138.461 C 465.641 136.198 464.581 133.631 464.088 130.928 C 463.917 129.999 463.106 129.324 462.162 129.324 L 459.831 129.324 L 459.831 125.407 L 462.162 125.407 C 463.106 125.407 463.917 124.732 464.088 123.803 C 464.581 121.1 465.641 118.532 467.201 116.27 C 467.736 115.492 467.64 114.444 466.972 113.775 L 465.33 112.133 L 468.1 109.362 L 469.745 111.006 C 470.412 111.673 471.462 111.768 472.241 111.233 C 474.501 109.672 477.067 108.61 479.771 108.121 C 480.7 107.949 481.375 107.139 481.375 106.194 L 481.375 103.863 L 485.292 103.863 L 485.292 106.194 C 485.292 107.139 485.967 107.949 486.896 108.121 C 489.599 108.61 492.167 109.672 494.426 111.233 C 495.204 111.768 496.253 111.673 496.921 111.006 L 498.566 109.362 L 501.336 112.133 L 499.695 113.775 C 499.026 114.444 498.931 115.492 499.465 116.27 C 501.026 118.532 502.086 121.1 502.578 123.803 C 502.75 124.732 503.56 125.407 504.504 125.407 L 506.836 125.407 L 506.836 129.324 L 504.504 129.324 C 503.56 129.324 502.75 129.999 502.578 130.928 C 502.086 133.631 501.026 136.198 499.465 138.461 C 498.931 139.239 499.026 140.287 499.695 140.956 Z M 481.375 96.03 C 481.343 83.967 494.381 76.395 504.841 82.399 C 515.303 88.402 515.342 103.478 504.912 109.536 C 504.779 109.615 504.643 109.691 504.508 109.764 L 499.951 105.208 C 499.187 104.444 497.947 104.444 497.182 105.208 L 495.266 107.126 C 493.376 106.008 491.337 105.164 489.209 104.621 L 489.209 101.904 C 489.209 100.822 488.332 99.946 487.25 99.946 L 481.87 99.946 C 481.54 98.666 481.374 97.351 481.375 96.03 Z M 470.798 103.863 C 471.112 104.888 471.486 105.892 471.917 106.871 C 471.751 106.964 471.572 107.026 471.41 107.124 L 469.494 105.207 C 468.73 104.442 467.49 104.442 466.726 105.207 L 461.187 110.744 C 460.421 111.51 460.421 112.75 461.187 113.515 L 463.102 115.43 C 461.981 117.319 461.135 119.361 460.59 121.49 L 457.872 121.49 C 456.791 121.49 455.914 122.366 455.914 123.448 L 455.914 131.282 C 455.914 132.364 456.791 133.24 457.872 133.24 L 460.59 133.24 C 461.131 135.369 461.975 137.408 463.091 139.298 L 461.177 141.214 C 460.412 141.98 460.412 143.218 461.177 143.984 L 466.715 149.522 C 467.491 150.257 468.708 150.257 469.484 149.522 L 471.4 147.607 C 473.29 148.723 475.33 149.567 477.459 150.109 L 477.459 152.827 C 477.459 153.908 478.335 154.785 479.416 154.785 L 487.25 154.785 C 488.332 154.785 489.209 153.908 489.209 152.827 L 489.209 150.109 C 491.337 149.567 493.376 148.723 495.266 147.607 L 497.182 149.522 C 497.947 150.287 499.187 150.287 499.951 149.522 L 505.491 143.984 C 506.255 143.218 506.255 141.98 505.491 141.214 L 503.575 139.298 C 504.693 137.408 505.535 135.369 506.078 133.24 L 508.794 133.24 C 509.877 133.24 510.753 132.364 510.753 131.282 L 510.753 123.448 C 510.753 122.366 509.877 121.49 508.794 121.49 L 507.15 121.49 C 508.148 121.094 509.12 120.641 510.065 120.131 L 512.276 122.341 C 513.041 123.107 514.281 123.107 515.046 122.341 L 523.355 114.031 C 524.12 113.267 524.12 112.027 523.355 111.263 L 521.147 109.052 C 522.041 107.401 522.763 105.662 523.3 103.863 L 534.256 103.863 L 534.256 158.701 L 451.998 158.701 L 451.998 103.863 L 470.798 103.863 Z M 444.162 97.987 C 444.162 96.906 445.039 96.03 446.121 96.03 L 465.707 96.03 L 465.707 99.946 L 450.039 99.946 C 448.957 99.946 448.079 100.822 448.079 101.904 L 448.079 160.66 C 448.079 161.742 448.957 162.619 450.039 162.619 L 536.214 162.619 C 537.295 162.619 538.173 161.742 538.173 160.66 L 538.173 101.904 C 538.173 100.822 537.295 99.946 536.214 99.946 L 528.379 99.946 L 528.379 96.03 L 540.13 96.03 C 541.212 96.03 542.089 96.906 542.089 97.987 L 542.089 166.537 L 444.162 166.537 Z M 483.333 170.453 L 502.918 170.453 L 502.918 172.411 C 502.918 173.493 502.041 174.37 500.96 174.37 L 485.292 174.37 C 484.21 174.37 483.333 173.493 483.333 172.411 Z M 549.924 176.328 C 549.924 179.574 547.293 182.204 544.047 182.204 L 442.205 182.204 C 438.96 182.204 436.329 179.574 436.329 176.328 L 436.329 172.411 C 436.329 171.329 437.206 170.453 438.288 170.453 L 479.416 170.453 L 479.416 172.411 C 479.416 175.657 482.047 178.288 485.292 178.288 L 500.96 178.288 C 504.206 178.288 506.836 175.657 506.836 172.411 L 506.836 170.453 L 547.965 170.453 C 549.045 170.453 549.924 171.329 549.924 172.411 Z" style="fill: url(#gradient-8-13); stroke-width: 1.2px; stroke: rgb(255, 252, 251);"/>
  <path d="M 483.333 111.697 C 471.272 111.697 463.734 124.754 469.765 135.2 C 475.796 145.645 490.871 145.645 496.902 135.2 C 498.277 132.818 499.002 130.115 499.002 127.366 C 498.991 118.716 491.982 111.708 483.333 111.697 Z M 493.126 120.883 C 493.654 121.682 494.081 122.544 494.399 123.448 L 493.126 123.448 Z M 491.364 118.801 C 489.024 118.221 486.787 117.281 484.737 116.016 C 483.963 115.538 482.964 115.654 482.321 116.298 L 480.433 118.187 L 478.78 116.536 C 483.052 114.733 487.987 115.621 491.364 118.801 Z M 483.333 139.117 C 474.302 139.131 468.64 129.362 473.144 121.532 C 473.749 120.481 474.513 119.529 475.409 118.712 L 479.04 122.341 C 479.805 123.107 481.045 123.107 481.81 122.341 L 484.021 120.131 C 485.671 121.026 487.41 121.748 489.209 122.284 L 489.209 125.407 C 489.209 126.489 490.086 127.366 491.166 127.366 L 495.085 127.366 C 495.078 133.853 489.821 139.11 483.333 139.117 Z" style="fill: url(#gradient-8-14); stroke-width: 1.2px; stroke: rgb(255, 252, 251);"/>
  <path d="M 647.833 186.039 L 716.807 186.039 C 719.813 186.039 722.251 183.601 722.251 180.592 L 722.251 173.333 C 722.251 172.33 721.439 171.519 720.436 171.519 C 719.435 171.519 718.621 172.33 718.621 173.333 L 718.621 180.592 C 718.621 181.596 717.808 182.409 716.807 182.409 L 647.833 182.409 C 646.83 182.409 646.017 181.596 646.017 180.592 L 646.017 82.578 C 646.017 81.575 646.83 80.762 647.833 80.762 C 650.839 80.762 653.276 83.201 653.276 86.209 L 653.276 91.652 C 653.276 93.657 654.903 95.283 656.908 95.283 L 718.621 95.283 L 718.621 106.175 C 718.621 107.176 719.435 107.989 720.436 107.989 C 721.439 107.989 722.251 107.176 722.251 106.175 L 722.251 95.283 L 729.511 95.283 C 731.517 95.283 733.143 93.657 733.143 91.652 L 733.143 86.209 C 733.136 81.198 729.077 77.139 724.066 77.132 L 647.833 77.132 C 644.825 77.132 642.386 79.571 642.386 82.578 L 642.386 180.592 C 642.386 183.601 644.825 186.039 647.833 186.039 Z M 724.066 80.762 C 727.074 80.762 729.511 83.201 729.511 86.209 L 729.511 91.652 L 656.908 91.652 L 656.908 86.209 C 656.901 84.238 656.247 82.324 655.045 80.762 Z M 724.066 80.762" style="fill: url(#gradient-8-15); stroke-width: 1.2px; stroke: rgb(255, 252, 251);"/>
  <path d="M 675.059 111.62 C 676.061 111.62 676.875 110.808 676.875 109.804 L 676.875 106.175 C 676.875 103.167 674.436 100.73 671.428 100.73 L 656.908 100.73 C 653.901 100.73 651.462 103.167 651.462 106.175 L 651.462 120.695 C 651.462 123.702 653.901 126.141 656.908 126.141 L 665.984 126.141 C 666.985 126.141 667.798 125.327 667.798 124.326 C 667.798 123.323 666.985 122.511 665.984 122.511 L 656.908 122.511 C 655.905 122.511 655.093 121.698 655.093 120.695 L 655.093 106.175 C 655.093 105.172 655.905 104.36 656.908 104.36 L 671.428 104.36 C 672.431 104.36 673.243 105.172 673.243 106.175 L 673.243 109.804 C 673.243 110.808 674.056 111.62 675.059 111.62 Z M 675.059 111.62" style="fill: url(#gradient-8-16); stroke-width: 1.2px; stroke: rgb(255, 252, 251);"/>
  <path d="M 653.276 135.216 L 665.984 135.216 C 666.985 135.216 667.798 134.404 667.798 133.401 C 667.798 132.398 666.985 131.586 665.984 131.586 L 653.276 131.586 C 652.275 131.586 651.462 132.398 651.462 133.401 C 651.462 134.404 652.275 135.216 653.276 135.216 Z M 653.276 135.216" style="fill: url(#gradient-8-17); stroke-width: 1.2px; stroke: rgb(255, 252, 251);"/>
  <path d="M 653.276 142.477 L 665.984 142.477 C 666.985 142.477 667.798 141.664 667.798 140.66 C 667.798 139.659 666.985 138.847 665.984 138.847 L 653.276 138.847 C 652.275 138.847 651.462 139.659 651.462 140.66 C 651.462 141.664 652.275 142.477 653.276 142.477 Z M 653.276 142.477" style="fill: url(#gradient-8-18); stroke-width: 1.2px; stroke: rgb(255, 252, 251);"/>
  <path d="M 653.276 149.737 L 665.984 149.737 C 666.985 149.737 667.798 148.924 667.798 147.921 C 667.798 146.919 666.985 146.106 665.984 146.106 L 653.276 146.106 C 652.275 146.106 651.462 146.919 651.462 147.921 C 651.462 148.924 652.275 149.737 653.276 149.737 Z M 653.276 149.737" style="fill: url(#gradient-8-19); stroke-width: 1.2px; stroke: rgb(255, 252, 251);"/>
  <path d="M 653.276 156.997 L 671.428 156.997 C 672.431 156.997 673.243 156.185 673.243 155.182 C 673.243 154.178 672.431 153.367 671.428 153.367 L 653.276 153.367 C 652.275 153.367 651.462 154.178 651.462 155.182 C 651.462 156.185 652.275 156.997 653.276 156.997 Z M 653.276 156.997" style="fill: url(#gradient-8-20); stroke-width: 1.2px; stroke: rgb(255, 252, 251);"/>
  <path d="M 671.428 162.443 C 671.428 163.444 672.24 164.257 673.243 164.257 L 680.504 164.257 C 681.507 164.257 682.319 163.444 682.319 162.443 C 682.319 161.44 681.507 160.627 680.504 160.627 L 673.243 160.627 C 672.24 160.627 671.428 161.44 671.428 162.443 Z M 671.428 162.443" style="fill: url(#gradient-8-21); stroke-width: 1.2px; stroke: rgb(255, 252, 251);"/>
  <path d="M 653.276 164.257 L 665.984 164.257 C 666.985 164.257 667.798 163.444 667.798 162.443 C 667.798 161.44 666.985 160.627 665.984 160.627 L 653.276 160.627 C 652.275 160.627 651.462 161.44 651.462 162.443 C 651.462 163.444 652.275 164.257 653.276 164.257 Z M 653.276 164.257" style="fill: url(#gradient-8-22); stroke-width: 1.2px; stroke: rgb(255, 252, 251);"/>
  <path d="M 653.276 171.519 L 711.36 171.519 C 712.364 171.519 713.177 170.705 713.177 169.702 C 713.177 168.7 712.364 167.887 711.36 167.887 L 653.276 167.887 C 652.275 167.887 651.462 168.7 651.462 169.702 C 651.462 170.705 652.275 171.519 653.276 171.519 Z M 653.276 171.519" style="fill: url(#gradient-8-23); stroke-width: 1.2px; stroke: rgb(255, 252, 251);"/>
  <path d="M 715.492 118.375 C 706.909 109.8 693.076 109.566 684.206 117.843 C 675.338 126.124 674.62 139.939 682.584 149.093 C 682.894 149.455 683.244 149.833 683.633 150.242 C 692.445 159.005 706.681 159.005 715.492 150.242 C 724.261 141.429 724.261 127.188 715.492 118.375 Z M 712.928 147.673 C 705.551 155.017 693.63 155.034 686.231 147.709 C 685.933 147.39 685.629 147.07 685.339 146.727 C 678.588 138.989 679.255 127.278 686.838 120.356 C 694.421 113.434 706.144 113.836 713.236 121.26 C 720.327 128.686 720.19 140.416 712.928 147.673 Z M 712.928 147.673" style="fill: url(#gradient-8-24); stroke-width: 1.2px; stroke: rgb(255, 252, 251);"/>
  <path d="M 729.149 156.008 L 724.371 151.23 C 732.22 139.746 731.151 124.373 721.785 114.089 C 721.473 113.739 721.143 113.389 720.812 113.059 C 709.069 101.343 690.056 101.343 678.313 113.059 C 676.423 114.934 674.801 117.063 673.49 119.384 C 672.799 120.574 672.194 121.811 671.676 123.087 C 667.188 134.265 669.803 147.042 678.32 155.558 L 678.597 155.842 C 678.826 156.078 679.051 156.313 679.287 156.522 C 684.243 161.028 690.564 163.751 697.244 164.257 C 698.016 164.326 698.793 164.361 699.568 164.361 C 700.344 164.361 701.104 164.326 701.859 164.26 C 707.034 163.874 712.02 162.149 716.324 159.253 L 721.139 164.397 C 720.947 165.494 721.265 166.618 721.999 167.456 L 735.814 183.112 C 737.44 184.948 739.749 186.035 742.2 186.118 L 742.475 186.118 C 746.17 186.112 749.476 183.825 750.783 180.37 C 752.091 176.916 751.125 173.011 748.36 170.562 L 732.705 156.748 C 731.732 155.893 730.382 155.613 729.149 156.008 Z M 723.236 161.311 L 719.225 157.027 C 719.77 156.551 720.314 156.064 720.813 155.558 C 721.269 155.104 721.708 154.632 722.145 154.137 L 726.276 158.267 Z M 701.558 160.627 C 700.221 160.745 698.874 160.745 697.535 160.627 C 691.649 160.187 686.077 157.791 681.708 153.819 C 681.526 153.66 681.369 153.491 681.203 153.323 L 680.875 152.986 C 673.389 145.499 671.089 134.27 675.03 124.443 C 675.489 123.317 676.027 122.226 676.64 121.176 C 677.79 119.138 679.216 117.269 680.875 115.62 C 691.202 105.32 707.916 105.32 718.243 115.62 C 718.525 115.905 718.807 116.207 719.079 116.506 L 719.091 116.52 C 727.687 125.949 728.316 140.175 720.58 150.323 C 719.858 151.259 719.076 152.149 718.243 152.986 C 717.408 153.816 716.523 154.592 715.591 155.312 C 711.53 158.41 706.653 160.257 701.558 160.627 Z M 747.729 177.054 C 747.791 179.264 746.463 181.28 744.406 182.094 C 742.349 182.91 740.002 182.351 738.532 180.697 L 724.721 164.948 L 730.298 159.46 L 745.953 173.274 C 747.051 174.232 747.697 175.605 747.733 177.061 Z M 747.729 177.054" style="fill: url(#gradient-8-25); stroke-width: 1.2px; stroke: rgb(255, 252, 251);"/>
  <path d="M 699.407 120.859 C 698.969 120.659 698.467 120.644 698.017 120.815 C 697.566 120.984 697.201 121.327 697.004 121.766 L 687.927 141.733 C 687.642 142.325 687.7 143.026 688.078 143.564 C 688.456 144.103 689.096 144.394 689.752 144.326 C 690.407 144.257 690.972 143.839 691.232 143.235 L 700.307 123.268 C 700.508 122.83 700.526 122.33 700.358 121.876 C 700.19 121.425 699.846 121.057 699.407 120.859 Z M 699.407 120.859" style="fill: url(#gradient-8-26); stroke-width: 1.2px; stroke: rgb(255, 252, 251);"/>
  <path d="M 692.205 120.885 C 691.776 120.67 691.276 120.635 690.82 120.788 C 690.363 120.94 689.984 121.268 689.77 121.699 L 684.325 132.59 C 683.877 133.487 684.241 134.578 685.138 135.024 C 686.035 135.474 687.126 135.11 687.574 134.212 L 693.019 123.322 C 693.234 122.891 693.27 122.392 693.119 121.935 C 692.964 121.478 692.636 121.1 692.205 120.885 Z M 692.205 120.885" style="fill: url(#gradient-8-27); stroke-width: 1.2px; stroke: rgb(255, 252, 251);"/>
  <path d="M 36.753 213.508 C 37.886 213.508 38.803 213.848 39.503 214.528 C 40.196 215.208 40.543 216.215 40.543 217.548 L 40.543 222.788 L 37.893 222.788 L 37.893 217.958 C 37.893 217.231 37.736 216.691 37.423 216.338 C 37.103 215.978 36.643 215.798 36.043 215.798 C 35.376 215.798 34.843 216.005 34.443 216.418 C 34.05 216.831 33.853 217.448 33.853 218.268 L 33.853 222.788 L 31.193 222.788 L 31.193 213.638 L 33.733 213.638 L 33.733 214.708 C 34.08 214.328 34.516 214.031 35.043 213.818 C 35.563 213.611 36.133 213.508 36.753 213.508 ZM 46.147 213.458 L 46.147 213.848 L 48.497 213.848 L 48.497 215.888 L 46.217 215.888 L 46.217 222.788 L 43.567 222.788 L 43.567 215.888 L 42.157 215.888 L 42.157 213.848 L 43.567 213.848 L 43.567 213.438 C 43.567 212.398 43.874 211.571 44.487 210.958 C 45.107 210.345 45.977 210.038 47.097 210.038 C 47.497 210.038 47.874 210.081 48.227 210.168 C 48.587 210.248 48.887 210.368 49.127 210.528 L 48.427 212.448 C 48.12 212.235 47.764 212.128 47.357 212.128 C 46.55 212.128 46.147 212.571 46.147 213.458 ZM 55.304 220.478 L 56.014 222.348 C 55.754 222.541 55.434 222.685 55.054 222.778 C 54.674 222.878 54.274 222.928 53.854 222.928 C 52.768 222.928 51.928 222.648 51.334 222.088 C 50.741 221.535 50.444 220.718 50.444 219.638 L 50.444 215.888 L 49.034 215.888 L 49.034 213.848 L 50.444 213.848 L 50.444 211.618 L 53.094 211.618 L 53.094 213.848 L 55.374 213.848 L 55.374 215.888 L 53.094 215.888 L 53.094 219.608 C 53.094 219.995 53.194 220.291 53.394 220.498 C 53.588 220.711 53.868 220.818 54.234 220.818 C 54.654 220.818 55.011 220.705 55.304 220.478 ZM 60.887 222.928 C 60.127 222.928 59.384 222.835 58.657 222.648 C 57.937 222.455 57.361 222.218 56.927 221.938 L 57.807 220.038 C 58.221 220.298 58.714 220.508 59.287 220.668 C 59.867 220.835 60.434 220.918 60.987 220.918 C 62.114 220.918 62.677 220.641 62.677 220.088 C 62.677 219.828 62.524 219.641 62.217 219.528 C 61.911 219.415 61.441 219.318 60.807 219.238 C 60.054 219.125 59.434 218.995 58.947 218.848 C 58.461 218.695 58.041 218.431 57.687 218.058 C 57.327 217.685 57.147 217.155 57.147 216.468 C 57.147 215.888 57.314 215.375 57.647 214.928 C 57.981 214.481 58.467 214.131 59.107 213.878 C 59.754 213.631 60.511 213.508 61.377 213.508 C 62.024 213.508 62.667 213.578 63.307 213.718 C 63.947 213.858 64.477 214.055 64.897 214.308 L 64.017 216.188 C 63.211 215.735 62.331 215.508 61.377 215.508 C 60.811 215.508 60.387 215.588 60.107 215.748 C 59.821 215.908 59.677 216.111 59.677 216.358 C 59.677 216.645 59.831 216.845 60.137 216.958 C 60.444 217.071 60.934 217.178 61.607 217.278 C 62.354 217.405 62.964 217.538 63.437 217.678 C 63.917 217.818 64.331 218.078 64.677 218.458 C 65.031 218.831 65.207 219.351 65.207 220.018 C 65.207 220.585 65.037 221.088 64.697 221.528 C 64.357 221.968 63.861 222.311 63.207 222.558 C 62.554 222.805 61.781 222.928 60.887 222.928 ZM 83.122 221.308 L 81.682 222.988 L 80.252 221.668 C 79.118 222.548 77.792 222.988 76.272 222.988 C 75.412 222.988 74.635 222.851 73.942 222.578 C 73.255 222.298 72.715 221.908 72.322 221.408 C 71.928 220.908 71.732 220.348 71.732 219.728 C 71.732 218.988 71.938 218.338 72.352 217.778 C 72.765 217.218 73.432 216.685 74.352 216.178 C 73.918 215.731 73.608 215.308 73.422 214.908 C 73.228 214.508 73.132 214.091 73.132 213.658 C 73.132 213.078 73.285 212.568 73.592 212.128 C 73.892 211.688 74.325 211.345 74.892 211.098 C 75.452 210.858 76.098 210.738 76.832 210.738 C 77.865 210.738 78.692 210.985 79.312 211.478 C 79.938 211.971 80.252 212.635 80.252 213.468 C 80.252 214.081 80.068 214.628 79.702 215.108 C 79.328 215.581 78.735 216.038 77.922 216.478 L 80.102 218.508 C 80.362 217.961 80.558 217.341 80.692 216.648 L 82.822 217.318 C 82.595 218.371 82.232 219.271 81.732 220.018 L 83.122 221.308 Z M 76.832 212.538 C 76.438 212.538 76.125 212.638 75.892 212.838 C 75.658 213.045 75.542 213.308 75.542 213.628 C 75.542 213.861 75.605 214.085 75.732 214.298 C 75.852 214.505 76.095 214.785 76.462 215.138 C 77.042 214.831 77.445 214.558 77.672 214.318 C 77.898 214.071 78.012 213.805 78.012 213.518 C 78.012 213.225 77.908 212.988 77.702 212.808 C 77.495 212.628 77.205 212.538 76.832 212.538 Z M 76.462 220.918 C 77.288 220.918 78.032 220.685 78.692 220.218 L 75.812 217.538 C 75.278 217.845 74.898 218.145 74.672 218.438 C 74.445 218.731 74.332 219.065 74.332 219.438 C 74.332 219.878 74.525 220.235 74.912 220.508 C 75.298 220.781 75.815 220.918 76.462 220.918 ZM 94.644 222.928 C 93.671 222.928 92.798 222.725 92.024 222.318 C 91.244 221.918 90.638 221.361 90.204 220.648 C 89.764 219.935 89.544 219.125 89.544 218.218 C 89.544 217.311 89.764 216.501 90.204 215.788 C 90.638 215.068 91.244 214.508 92.024 214.108 C 92.798 213.708 93.671 213.508 94.644 213.508 C 95.611 213.508 96.454 213.708 97.174 214.108 C 97.894 214.508 98.418 215.085 98.744 215.838 L 96.684 216.938 C 96.211 216.098 95.528 215.678 94.634 215.678 C 93.941 215.678 93.368 215.905 92.914 216.358 C 92.461 216.811 92.234 217.431 92.234 218.218 C 92.234 218.998 92.461 219.615 92.914 220.068 C 93.368 220.521 93.941 220.748 94.634 220.748 C 95.541 220.748 96.224 220.328 96.684 219.488 L 98.744 220.608 C 98.418 221.335 97.894 221.901 97.174 222.308 C 96.454 222.721 95.611 222.928 94.644 222.928 ZM 104.81 222.928 C 103.843 222.928 102.976 222.725 102.21 222.318 C 101.45 221.918 100.853 221.361 100.42 220.648 C 99.986 219.935 99.77 219.125 99.77 218.218 C 99.77 217.311 99.986 216.501 100.42 215.788 C 100.853 215.068 101.45 214.508 102.21 214.108 C 102.976 213.708 103.843 213.508 104.81 213.508 C 105.77 213.508 106.63 213.708 107.39 214.108 C 108.15 214.508 108.746 215.068 109.18 215.788 C 109.606 216.501 109.82 217.311 109.82 218.218 C 109.82 219.125 109.606 219.935 109.18 220.648 C 108.746 221.361 108.15 221.918 107.39 222.318 C 106.63 222.725 105.77 222.928 104.81 222.928 Z M 104.81 220.748 C 105.49 220.748 106.046 220.518 106.48 220.058 C 106.92 219.598 107.14 218.985 107.14 218.218 C 107.14 217.445 106.92 216.828 106.48 216.368 C 106.046 215.908 105.49 215.678 104.81 215.678 C 104.13 215.678 103.566 215.908 103.12 216.368 C 102.68 216.828 102.46 217.445 102.46 218.218 C 102.46 218.985 102.68 219.598 103.12 220.058 C 103.566 220.518 104.13 220.748 104.81 220.748 ZM 111.882 222.788 L 111.882 210.178 L 114.542 210.178 L 114.542 222.788 L 111.882 222.788 ZM 117.298 222.788 L 117.298 210.178 L 119.958 210.178 L 119.958 222.788 L 117.298 222.788 ZM 131.673 218.248 C 131.673 218.281 131.657 218.518 131.623 218.958 L 124.703 218.958 C 124.83 219.525 125.127 219.975 125.593 220.308 C 126.053 220.635 126.63 220.798 127.323 220.798 C 127.803 220.798 128.227 220.728 128.593 220.588 C 128.96 220.448 129.303 220.225 129.623 219.918 L 131.033 221.448 C 130.173 222.435 128.913 222.928 127.253 222.928 C 126.227 222.928 125.317 222.725 124.523 222.318 C 123.73 221.918 123.117 221.361 122.683 220.648 C 122.25 219.935 122.033 219.125 122.033 218.218 C 122.033 217.318 122.247 216.508 122.673 215.788 C 123.1 215.068 123.683 214.508 124.423 214.108 C 125.17 213.708 126 213.508 126.913 213.508 C 127.813 213.508 128.623 213.701 129.343 214.088 C 130.07 214.468 130.64 215.018 131.053 215.738 C 131.467 216.458 131.673 217.295 131.673 218.248 Z M 126.933 215.508 C 126.333 215.508 125.83 215.678 125.423 216.018 C 125.017 216.358 124.767 216.825 124.673 217.418 L 129.173 217.418 C 129.087 216.838 128.84 216.375 128.433 216.028 C 128.02 215.681 127.52 215.508 126.933 215.508 ZM 138.158 222.928 C 137.184 222.928 136.311 222.725 135.538 222.318 C 134.758 221.918 134.151 221.361 133.718 220.648 C 133.278 219.935 133.058 219.125 133.058 218.218 C 133.058 217.311 133.278 216.501 133.718 215.788 C 134.151 215.068 134.758 214.508 135.538 214.108 C 136.311 213.708 137.184 213.508 138.158 213.508 C 139.124 213.508 139.968 213.708 140.688 214.108 C 141.408 214.508 141.931 215.085 142.258 215.838 L 140.198 216.938 C 139.724 216.098 139.041 215.678 138.148 215.678 C 137.454 215.678 136.881 215.905 136.428 216.358 C 135.974 216.811 135.748 217.431 135.748 218.218 C 135.748 218.998 135.974 219.615 136.428 220.068 C 136.881 220.521 137.454 220.748 138.148 220.748 C 139.054 220.748 139.738 220.328 140.198 219.488 L 142.258 220.608 C 141.931 221.335 141.408 221.901 140.688 222.308 C 139.968 222.721 139.124 222.928 138.158 222.928 ZM 149.408 220.478 L 150.118 222.348 C 149.858 222.541 149.538 222.685 149.158 222.778 C 148.778 222.878 148.378 222.928 147.958 222.928 C 146.871 222.928 146.031 222.648 145.438 222.088 C 144.845 221.535 144.548 220.718 144.548 219.638 L 144.548 215.888 L 143.138 215.888 L 143.138 213.848 L 144.548 213.848 L 144.548 211.618 L 147.198 211.618 L 147.198 213.848 L 149.478 213.848 L 149.478 215.888 L 147.198 215.888 L 147.198 219.608 C 147.198 219.995 147.298 220.291 147.498 220.498 C 147.691 220.711 147.971 220.818 148.338 220.818 C 148.758 220.818 149.115 220.705 149.408 220.478 ZM 151.911 222.788 L 151.911 213.638 L 154.571 213.638 L 154.571 222.788 L 151.911 222.788 Z M 153.241 212.368 C 152.754 212.368 152.358 212.225 152.051 211.938 C 151.744 211.658 151.591 211.308 151.591 210.888 C 151.591 210.468 151.744 210.118 152.051 209.838 C 152.358 209.551 152.754 209.408 153.241 209.408 C 153.728 209.408 154.124 209.545 154.431 209.818 C 154.738 210.091 154.891 210.431 154.891 210.838 C 154.891 211.278 154.738 211.645 154.431 211.938 C 154.124 212.225 153.728 212.368 153.241 212.368 ZM 162.737 213.508 C 163.59 213.508 164.363 213.701 165.057 214.088 C 165.757 214.481 166.303 215.031 166.697 215.738 C 167.097 216.451 167.297 217.278 167.297 218.218 C 167.297 219.158 167.097 219.981 166.697 220.688 C 166.303 221.395 165.757 221.945 165.057 222.338 C 164.363 222.731 163.59 222.928 162.737 222.928 C 161.477 222.928 160.52 222.531 159.867 221.738 L 159.867 222.788 L 157.327 222.788 L 157.327 210.178 L 159.987 210.178 L 159.987 214.608 C 160.653 213.875 161.57 213.508 162.737 213.508 Z M 162.277 220.748 C 162.957 220.748 163.517 220.518 163.957 220.058 C 164.39 219.598 164.607 218.985 164.607 218.218 C 164.607 217.445 164.39 216.828 163.957 216.368 C 163.517 215.908 162.957 215.678 162.277 215.678 C 161.597 215.678 161.04 215.908 160.607 216.368 C 160.167 216.828 159.947 217.445 159.947 218.218 C 159.947 218.985 160.167 219.598 160.607 220.058 C 161.04 220.518 161.597 220.748 162.277 220.748 ZM 169.354 222.788 L 169.354 210.178 L 172.014 210.178 L 172.014 222.788 L 169.354 222.788 ZM 183.729 218.248 C 183.729 218.281 183.713 218.518 183.679 218.958 L 176.759 218.958 C 176.886 219.525 177.183 219.975 177.649 220.308 C 178.109 220.635 178.686 220.798 179.379 220.798 C 179.859 220.798 180.283 220.728 180.649 220.588 C 181.016 220.448 181.359 220.225 181.679 219.918 L 183.089 221.448 C 182.229 222.435 180.969 222.928 179.309 222.928 C 178.283 222.928 177.373 222.725 176.579 222.318 C 175.786 221.918 175.173 221.361 174.739 220.648 C 174.306 219.935 174.089 219.125 174.089 218.218 C 174.089 217.318 174.303 216.508 174.729 215.788 C 175.156 215.068 175.739 214.508 176.479 214.108 C 177.226 213.708 178.056 213.508 178.969 213.508 C 179.869 213.508 180.679 213.701 181.399 214.088 C 182.126 214.468 182.696 215.018 183.109 215.738 C 183.523 216.458 183.729 217.295 183.729 218.248 Z M 178.989 215.508 C 178.389 215.508 177.886 215.678 177.479 216.018 C 177.073 216.358 176.823 216.825 176.729 217.418 L 181.229 217.418 C 181.143 216.838 180.896 216.375 180.489 216.028 C 180.076 215.681 179.576 215.508 178.989 215.508 ZM 188.874 222.928 C 188.114 222.928 187.37 222.835 186.644 222.648 C 185.924 222.455 185.347 222.218 184.914 221.938 L 185.794 220.038 C 186.207 220.298 186.7 220.508 187.274 220.668 C 187.854 220.835 188.42 220.918 188.974 220.918 C 190.1 220.918 190.664 220.641 190.664 220.088 C 190.664 219.828 190.51 219.641 190.204 219.528 C 189.897 219.415 189.427 219.318 188.794 219.238 C 188.04 219.125 187.42 218.995 186.934 218.848 C 186.447 218.695 186.027 218.431 185.674 218.058 C 185.314 217.685 185.134 217.155 185.134 216.468 C 185.134 215.888 185.3 215.375 185.634 214.928 C 185.967 214.481 186.454 214.131 187.094 213.878 C 187.74 213.631 188.497 213.508 189.364 213.508 C 190.01 213.508 190.654 213.578 191.294 213.718 C 191.934 213.858 192.464 214.055 192.884 214.308 L 192.004 216.188 C 191.197 215.735 190.317 215.508 189.364 215.508 C 188.797 215.508 188.374 215.588 188.094 215.748 C 187.807 215.908 187.664 216.111 187.664 216.358 C 187.664 216.645 187.817 216.845 188.124 216.958 C 188.43 217.071 188.92 217.178 189.594 217.278 C 190.34 217.405 190.95 217.538 191.424 217.678 C 191.904 217.818 192.317 218.078 192.664 218.458 C 193.017 218.831 193.194 219.351 193.194 220.018 C 193.194 220.585 193.024 221.088 192.684 221.528 C 192.344 221.968 191.847 222.311 191.194 222.558 C 190.54 222.805 189.767 222.928 188.874 222.928 ZM 195.308 218.658 L 194.778 210.888 L 197.948 210.888 L 197.418 218.658 L 195.308 218.658 Z M 196.368 222.928 C 195.902 222.928 195.512 222.778 195.198 222.478 C 194.885 222.171 194.728 221.805 194.728 221.378 C 194.728 220.945 194.882 220.585 195.188 220.298 C 195.495 220.011 195.888 219.868 196.368 219.868 C 196.842 219.868 197.232 220.011 197.538 220.298 C 197.845 220.585 197.998 220.945 197.998 221.378 C 197.998 221.805 197.842 222.171 197.528 222.478 C 197.215 222.778 196.828 222.928 196.368 222.928 Z" transform="matrix(1, 0, 0, 1, 0, 0)" style="fill: rgb(255, 255, 255); text-transform: lowercase; white-space: pre;"/>
  <path d="M 239.271 213.583 C 240.691 213.583 241.781 213.92 242.541 214.593 C 243.301 215.266 243.681 216.283 243.681 217.643 L 243.681 222.863 L 241.191 222.863 L 241.191 221.723 C 240.698 222.576 239.771 223.003 238.411 223.003 C 237.704 223.003 237.094 222.883 236.581 222.643 C 236.068 222.403 235.674 222.073 235.401 221.653 C 235.128 221.233 234.991 220.756 234.991 220.223 C 234.991 219.376 235.311 218.71 235.951 218.223 C 236.591 217.736 237.581 217.493 238.921 217.493 L 241.021 217.493 C 241.021 216.913 240.848 216.466 240.501 216.153 C 240.148 215.846 239.621 215.693 238.921 215.693 C 238.434 215.693 237.954 215.77 237.481 215.923 C 237.008 216.07 236.608 216.276 236.281 216.543 L 235.331 214.683 C 235.831 214.336 236.428 214.066 237.121 213.873 C 237.821 213.68 238.538 213.583 239.271 213.583 Z M 239.071 221.213 C 239.524 221.213 239.928 221.11 240.281 220.903 C 240.628 220.69 240.874 220.38 241.021 219.973 L 241.021 219.033 L 239.211 219.033 C 238.118 219.033 237.571 219.393 237.571 220.113 C 237.571 220.453 237.704 220.72 237.971 220.913 C 238.238 221.113 238.604 221.213 239.071 221.213 ZM 250.889 223.003 C 249.916 223.003 249.043 222.8 248.269 222.393 C 247.489 221.993 246.883 221.436 246.449 220.723 C 246.009 220.01 245.789 219.2 245.789 218.293 C 245.789 217.386 246.009 216.576 246.449 215.863 C 246.883 215.143 247.489 214.583 248.269 214.183 C 249.043 213.783 249.916 213.583 250.889 213.583 C 251.856 213.583 252.699 213.783 253.419 214.183 C 254.139 214.583 254.663 215.16 254.989 215.913 L 252.929 217.013 C 252.456 216.173 251.773 215.753 250.879 215.753 C 250.186 215.753 249.613 215.98 249.159 216.433 C 248.706 216.886 248.479 217.506 248.479 218.293 C 248.479 219.073 248.706 219.69 249.159 220.143 C 249.613 220.596 250.186 220.823 250.879 220.823 C 251.786 220.823 252.469 220.403 252.929 219.563 L 254.989 220.683 C 254.663 221.41 254.139 221.976 253.419 222.383 C 252.699 222.796 251.856 223.003 250.889 223.003 ZM 262.306 213.583 C 263.439 213.583 264.356 213.923 265.056 214.603 C 265.749 215.283 266.096 216.29 266.096 217.623 L 266.096 222.863 L 263.446 222.863 L 263.446 218.033 C 263.446 217.306 263.289 216.766 262.976 216.413 C 262.656 216.053 262.196 215.873 261.596 215.873 C 260.929 215.873 260.396 216.08 259.996 216.493 C 259.602 216.906 259.406 217.523 259.406 218.343 L 259.406 222.863 L 256.746 222.863 L 256.746 210.253 L 259.406 210.253 L 259.406 214.673 C 259.752 214.32 260.176 214.05 260.676 213.863 C 261.176 213.676 261.719 213.583 262.306 213.583 ZM 268.79 222.863 L 268.79 213.713 L 271.45 213.713 L 271.45 222.863 L 268.79 222.863 Z M 270.12 212.443 C 269.633 212.443 269.236 212.3 268.93 212.013 C 268.623 211.733 268.47 211.383 268.47 210.963 C 268.47 210.543 268.623 210.193 268.93 209.913 C 269.236 209.626 269.633 209.483 270.12 209.483 C 270.606 209.483 271.003 209.62 271.31 209.893 C 271.616 210.166 271.77 210.506 271.77 210.913 C 271.77 211.353 271.616 211.72 271.31 212.013 C 271.003 212.3 270.606 212.443 270.12 212.443 ZM 283.165 218.323 C 283.165 218.356 283.149 218.593 283.115 219.033 L 276.195 219.033 C 276.322 219.6 276.619 220.05 277.085 220.383 C 277.545 220.71 278.122 220.873 278.815 220.873 C 279.295 220.873 279.719 220.803 280.085 220.663 C 280.452 220.523 280.795 220.3 281.115 219.993 L 282.525 221.523 C 281.665 222.51 280.405 223.003 278.745 223.003 C 277.719 223.003 276.809 222.8 276.015 222.393 C 275.222 221.993 274.609 221.436 274.175 220.723 C 273.742 220.01 273.525 219.2 273.525 218.293 C 273.525 217.393 273.739 216.583 274.165 215.863 C 274.592 215.143 275.175 214.583 275.915 214.183 C 276.662 213.783 277.492 213.583 278.405 213.583 C 279.305 213.583 280.115 213.776 280.835 214.163 C 281.562 214.543 282.132 215.093 282.545 215.813 C 282.959 216.533 283.165 217.37 283.165 218.323 Z M 278.425 215.583 C 277.825 215.583 277.322 215.753 276.915 216.093 C 276.509 216.433 276.259 216.9 276.165 217.493 L 280.665 217.493 C 280.579 216.913 280.332 216.45 279.925 216.103 C 279.512 215.756 279.012 215.583 278.425 215.583 ZM 291.59 213.713 L 294.14 213.713 L 290.28 222.863 L 287.55 222.863 L 283.7 213.713 L 286.44 213.713 L 288.97 219.943 L 291.59 213.713 ZM 304.228 218.323 C 304.228 218.356 304.211 218.593 304.178 219.033 L 297.258 219.033 C 297.385 219.6 297.681 220.05 298.148 220.383 C 298.608 220.71 299.185 220.873 299.878 220.873 C 300.358 220.873 300.781 220.803 301.148 220.663 C 301.515 220.523 301.858 220.3 302.178 219.993 L 303.588 221.523 C 302.728 222.51 301.468 223.003 299.808 223.003 C 298.781 223.003 297.871 222.8 297.078 222.393 C 296.285 221.993 295.671 221.436 295.238 220.723 C 294.805 220.01 294.588 219.2 294.588 218.293 C 294.588 217.393 294.801 216.583 295.228 215.863 C 295.655 215.143 296.238 214.583 296.978 214.183 C 297.725 213.783 298.555 213.583 299.468 213.583 C 300.368 213.583 301.178 213.776 301.898 214.163 C 302.625 214.543 303.195 215.093 303.608 215.813 C 304.021 216.533 304.228 217.37 304.228 218.323 Z M 299.488 215.583 C 298.888 215.583 298.385 215.753 297.978 216.093 C 297.571 216.433 297.321 216.9 297.228 217.493 L 301.728 217.493 C 301.641 216.913 301.395 216.45 300.988 216.103 C 300.575 215.756 300.075 215.583 299.488 215.583 ZM 318.012 213.583 C 319.152 213.583 320.062 213.92 320.742 214.593 C 321.416 215.266 321.752 216.276 321.752 217.623 L 321.752 222.863 L 319.102 222.863 L 319.102 218.033 C 319.102 217.306 318.949 216.766 318.642 216.413 C 318.342 216.053 317.916 215.873 317.362 215.873 C 316.742 215.873 316.249 216.076 315.882 216.483 C 315.522 216.883 315.342 217.48 315.342 218.273 L 315.342 222.863 L 312.692 222.863 L 312.692 218.033 C 312.692 216.593 312.112 215.873 310.952 215.873 C 310.339 215.873 309.852 216.076 309.492 216.483 C 309.132 216.883 308.952 217.48 308.952 218.273 L 308.952 222.863 L 306.292 222.863 L 306.292 213.713 L 308.832 213.713 L 308.832 214.773 C 309.172 214.386 309.589 214.09 310.082 213.883 C 310.576 213.683 311.116 213.583 311.702 213.583 C 312.349 213.583 312.932 213.71 313.452 213.963 C 313.972 214.216 314.392 214.586 314.712 215.073 C 315.086 214.6 315.559 214.233 316.132 213.973 C 316.706 213.713 317.332 213.583 318.012 213.583 ZM 333.483 218.323 C 333.483 218.356 333.466 218.593 333.433 219.033 L 326.513 219.033 C 326.639 219.6 326.936 220.05 327.403 220.383 C 327.863 220.71 328.439 220.873 329.133 220.873 C 329.613 220.873 330.036 220.803 330.403 220.663 C 330.769 220.523 331.113 220.3 331.433 219.993 L 332.843 221.523 C 331.983 222.51 330.723 223.003 329.063 223.003 C 328.036 223.003 327.126 222.8 326.333 222.393 C 325.539 221.993 324.926 221.436 324.493 220.723 C 324.059 220.01 323.843 219.2 323.843 218.293 C 323.843 217.393 324.056 216.583 324.483 215.863 C 324.909 215.143 325.493 214.583 326.233 214.183 C 326.979 213.783 327.809 213.583 328.723 213.583 C 329.623 213.583 330.433 213.776 331.153 214.163 C 331.879 214.543 332.449 215.093 332.863 215.813 C 333.276 216.533 333.483 217.37 333.483 218.323 Z M 328.743 215.583 C 328.143 215.583 327.639 215.753 327.233 216.093 C 326.826 216.433 326.576 216.9 326.483 217.493 L 330.983 217.493 C 330.896 216.913 330.649 216.45 330.243 216.103 C 329.829 215.756 329.329 215.583 328.743 215.583 ZM 341.107 213.583 C 342.24 213.583 343.157 213.923 343.857 214.603 C 344.55 215.283 344.897 216.29 344.897 217.623 L 344.897 222.863 L 342.247 222.863 L 342.247 218.033 C 342.247 217.306 342.09 216.766 341.777 216.413 C 341.457 216.053 340.997 215.873 340.397 215.873 C 339.73 215.873 339.197 216.08 338.797 216.493 C 338.404 216.906 338.207 217.523 338.207 218.343 L 338.207 222.863 L 335.547 222.863 L 335.547 213.713 L 338.087 213.713 L 338.087 214.783 C 338.434 214.403 338.87 214.106 339.397 213.893 C 339.917 213.686 340.487 213.583 341.107 213.583 ZM 352.781 220.553 L 353.491 222.423 C 353.231 222.616 352.911 222.76 352.531 222.853 C 352.151 222.953 351.751 223.003 351.331 223.003 C 350.244 223.003 349.404 222.723 348.811 222.163 C 348.218 221.61 347.921 220.793 347.921 219.713 L 347.921 215.963 L 346.511 215.963 L 346.511 213.923 L 347.921 213.923 L 347.921 211.693 L 350.571 211.693 L 350.571 213.923 L 352.851 213.923 L 352.851 215.963 L 350.571 215.963 L 350.571 219.683 C 350.571 220.07 350.671 220.366 350.871 220.573 C 351.064 220.786 351.344 220.893 351.711 220.893 C 352.131 220.893 352.488 220.78 352.781 220.553 ZM 358.364 223.003 C 357.604 223.003 356.861 222.91 356.134 222.723 C 355.414 222.53 354.837 222.293 354.404 222.013 L 355.284 220.113 C 355.697 220.373 356.191 220.583 356.764 220.743 C 357.344 220.91 357.911 220.993 358.464 220.993 C 359.591 220.993 360.154 220.716 360.154 220.163 C 360.154 219.903 360.001 219.716 359.694 219.603 C 359.387 219.49 358.917 219.393 358.284 219.313 C 357.531 219.2 356.911 219.07 356.424 218.923 C 355.937 218.77 355.517 218.506 355.164 218.133 C 354.804 217.76 354.624 217.23 354.624 216.543 C 354.624 215.963 354.791 215.45 355.124 215.003 C 355.457 214.556 355.944 214.206 356.584 213.953 C 357.231 213.706 357.987 213.583 358.854 213.583 C 359.501 213.583 360.144 213.653 360.784 213.793 C 361.424 213.933 361.954 214.13 362.374 214.383 L 361.494 216.263 C 360.687 215.81 359.807 215.583 358.854 215.583 C 358.287 215.583 357.864 215.663 357.584 215.823 C 357.297 215.983 357.154 216.186 357.154 216.433 C 357.154 216.72 357.307 216.92 357.614 217.033 C 357.921 217.146 358.411 217.253 359.084 217.353 C 359.831 217.48 360.441 217.613 360.914 217.753 C 361.394 217.893 361.807 218.153 362.154 218.533 C 362.507 218.906 362.684 219.426 362.684 220.093 C 362.684 220.66 362.514 221.163 362.174 221.603 C 361.834 222.043 361.337 222.386 360.684 222.633 C 360.031 222.88 359.257 223.003 358.364 223.003 ZM 364.799 218.733 L 364.269 210.963 L 367.439 210.963 L 366.909 218.733 L 364.799 218.733 Z M 365.859 223.003 C 365.392 223.003 365.002 222.853 364.689 222.553 C 364.375 222.246 364.219 221.88 364.219 221.453 C 364.219 221.02 364.372 220.66 364.679 220.373 C 364.985 220.086 365.379 219.943 365.859 219.943 C 366.332 219.943 366.722 220.086 367.029 220.373 C 367.335 220.66 367.489 221.02 367.489 221.453 C 367.489 221.88 367.332 222.246 367.019 222.553 C 366.705 222.853 366.319 223.003 365.859 223.003 Z" transform="matrix(1, 0, 0, 1, 0, 0)" style="fill: rgb(255, 255, 255); text-transform: lowercase; white-space: pre;"/>
  <path d="M 426.292 218.236 C 426.292 218.269 426.275 218.506 426.242 218.946 L 419.322 218.946 C 419.449 219.513 419.745 219.963 420.212 220.296 C 420.672 220.623 421.249 220.786 421.942 220.786 C 422.422 220.786 422.845 220.716 423.212 220.576 C 423.579 220.436 423.922 220.213 424.242 219.906 L 425.652 221.436 C 424.792 222.423 423.532 222.916 421.872 222.916 C 420.845 222.916 419.935 222.713 419.142 222.306 C 418.349 221.906 417.735 221.349 417.302 220.636 C 416.869 219.923 416.652 219.113 416.652 218.206 C 416.652 217.306 416.865 216.496 417.292 215.776 C 417.719 215.056 418.302 214.496 419.042 214.096 C 419.789 213.696 420.619 213.496 421.532 213.496 C 422.432 213.496 423.242 213.689 423.962 214.076 C 424.689 214.456 425.259 215.006 425.672 215.726 C 426.085 216.446 426.292 217.283 426.292 218.236 Z M 421.552 215.496 C 420.952 215.496 420.449 215.666 420.042 216.006 C 419.635 216.346 419.385 216.813 419.292 217.406 L 423.792 217.406 C 423.705 216.826 423.459 216.363 423.052 216.016 C 422.639 215.669 422.139 215.496 421.552 215.496 ZM 431.791 213.496 C 433.211 213.496 434.301 213.833 435.061 214.506 C 435.821 215.179 436.201 216.196 436.201 217.556 L 436.201 222.776 L 433.711 222.776 L 433.711 221.636 C 433.218 222.489 432.291 222.916 430.931 222.916 C 430.225 222.916 429.615 222.796 429.101 222.556 C 428.588 222.316 428.195 221.986 427.921 221.566 C 427.648 221.146 427.511 220.669 427.511 220.136 C 427.511 219.289 427.831 218.623 428.471 218.136 C 429.111 217.649 430.101 217.406 431.441 217.406 L 433.541 217.406 C 433.541 216.826 433.368 216.379 433.021 216.066 C 432.668 215.759 432.141 215.606 431.441 215.606 C 430.955 215.606 430.475 215.683 430.001 215.836 C 429.528 215.983 429.128 216.189 428.801 216.456 L 427.851 214.596 C 428.351 214.249 428.948 213.979 429.641 213.786 C 430.341 213.593 431.058 213.496 431.791 213.496 Z M 431.591 221.126 C 432.045 221.126 432.448 221.023 432.801 220.816 C 433.148 220.603 433.395 220.293 433.541 219.886 L 433.541 218.946 L 431.731 218.946 C 430.638 218.946 430.091 219.306 430.091 220.026 C 430.091 220.366 430.225 220.633 430.491 220.826 C 430.758 221.026 431.125 221.126 431.591 221.126 ZM 441.968 222.916 C 441.208 222.916 440.464 222.823 439.738 222.636 C 439.018 222.443 438.441 222.206 438.008 221.926 L 438.888 220.026 C 439.301 220.286 439.794 220.496 440.368 220.656 C 440.948 220.823 441.514 220.906 442.068 220.906 C 443.194 220.906 443.758 220.629 443.758 220.076 C 443.758 219.816 443.604 219.629 443.298 219.516 C 442.991 219.403 442.521 219.306 441.888 219.226 C 441.134 219.113 440.514 218.983 440.028 218.836 C 439.541 218.683 439.121 218.419 438.768 218.046 C 438.408 217.673 438.228 217.143 438.228 216.456 C 438.228 215.876 438.394 215.363 438.728 214.916 C 439.061 214.469 439.548 214.119 440.188 213.866 C 440.834 213.619 441.591 213.496 442.458 213.496 C 443.104 213.496 443.748 213.566 444.388 213.706 C 445.028 213.846 445.558 214.043 445.978 214.296 L 445.098 216.176 C 444.291 215.723 443.411 215.496 442.458 215.496 C 441.891 215.496 441.468 215.576 441.188 215.736 C 440.901 215.896 440.758 216.099 440.758 216.346 C 440.758 216.633 440.911 216.833 441.218 216.946 C 441.524 217.059 442.014 217.166 442.688 217.266 C 443.434 217.393 444.044 217.526 444.518 217.666 C 444.998 217.806 445.411 218.066 445.758 218.446 C 446.111 218.819 446.288 219.339 446.288 220.006 C 446.288 220.573 446.118 221.076 445.778 221.516 C 445.438 221.956 444.941 222.299 444.288 222.546 C 443.634 222.793 442.861 222.916 441.968 222.916 ZM 454.572 213.626 L 457.122 213.626 L 452.992 223.336 C 452.572 224.389 452.056 225.133 451.442 225.566 C 450.822 225.993 450.076 226.206 449.202 226.206 C 448.729 226.206 448.259 226.133 447.792 225.986 C 447.326 225.839 446.946 225.636 446.652 225.376 L 447.622 223.486 C 447.822 223.673 448.056 223.816 448.322 223.916 C 448.589 224.016 448.856 224.066 449.122 224.066 C 449.482 224.066 449.776 223.979 450.002 223.806 C 450.229 223.633 450.432 223.339 450.612 222.926 L 450.652 222.846 L 446.682 213.626 L 449.422 213.626 L 451.992 219.836 L 454.572 213.626 ZM 467.405 213.496 C 468.825 213.496 469.915 213.833 470.675 214.506 C 471.435 215.179 471.815 216.196 471.815 217.556 L 471.815 222.776 L 469.325 222.776 L 469.325 221.636 C 468.832 222.489 467.905 222.916 466.545 222.916 C 465.839 222.916 465.229 222.796 464.715 222.556 C 464.202 222.316 463.809 221.986 463.535 221.566 C 463.262 221.146 463.125 220.669 463.125 220.136 C 463.125 219.289 463.445 218.623 464.085 218.136 C 464.725 217.649 465.715 217.406 467.055 217.406 L 469.155 217.406 C 469.155 216.826 468.982 216.379 468.635 216.066 C 468.282 215.759 467.755 215.606 467.055 215.606 C 466.569 215.606 466.089 215.683 465.615 215.836 C 465.142 215.983 464.742 216.189 464.415 216.456 L 463.465 214.596 C 463.965 214.249 464.562 213.979 465.255 213.786 C 465.955 213.593 466.672 213.496 467.405 213.496 Z M 467.205 221.126 C 467.659 221.126 468.062 221.023 468.415 220.816 C 468.762 220.603 469.009 220.293 469.155 219.886 L 469.155 218.946 L 467.345 218.946 C 466.252 218.946 465.705 219.306 465.705 220.026 C 465.705 220.366 465.839 220.633 466.105 220.826 C 466.372 221.026 466.739 221.126 467.205 221.126 ZM 481.072 213.626 L 483.722 213.626 L 483.722 222.776 L 481.202 222.776 L 481.202 221.686 C 480.855 222.086 480.435 222.389 479.942 222.596 C 479.455 222.809 478.928 222.916 478.362 222.916 C 477.162 222.916 476.212 222.569 475.512 221.876 C 474.805 221.183 474.452 220.156 474.452 218.796 L 474.452 213.626 L 477.112 213.626 L 477.112 218.406 C 477.112 219.879 477.728 220.616 478.962 220.616 C 479.595 220.616 480.105 220.409 480.492 219.996 C 480.878 219.583 481.072 218.969 481.072 218.156 L 481.072 213.626 ZM 491.668 220.466 L 492.378 222.336 C 492.118 222.529 491.798 222.673 491.418 222.766 C 491.038 222.866 490.638 222.916 490.218 222.916 C 489.131 222.916 488.291 222.636 487.698 222.076 C 487.104 221.523 486.808 220.706 486.808 219.626 L 486.808 215.876 L 485.398 215.876 L 485.398 213.836 L 486.808 213.836 L 486.808 211.606 L 489.458 211.606 L 489.458 213.836 L 491.738 213.836 L 491.738 215.876 L 489.458 215.876 L 489.458 219.596 C 489.458 219.983 489.558 220.279 489.758 220.486 C 489.951 220.699 490.231 220.806 490.598 220.806 C 491.018 220.806 491.374 220.693 491.668 220.466 ZM 498.242 222.916 C 497.275 222.916 496.409 222.713 495.642 222.306 C 494.882 221.906 494.285 221.349 493.852 220.636 C 493.419 219.923 493.202 219.113 493.202 218.206 C 493.202 217.299 493.419 216.489 493.852 215.776 C 494.285 215.056 494.882 214.496 495.642 214.096 C 496.409 213.696 497.275 213.496 498.242 213.496 C 499.202 213.496 500.062 213.696 500.822 214.096 C 501.582 214.496 502.179 215.056 502.612 215.776 C 503.039 216.489 503.252 217.299 503.252 218.206 C 503.252 219.113 503.039 219.923 502.612 220.636 C 502.179 221.349 501.582 221.906 500.822 222.306 C 500.062 222.713 499.202 222.916 498.242 222.916 Z M 498.242 220.736 C 498.922 220.736 499.479 220.506 499.912 220.046 C 500.352 219.586 500.572 218.973 500.572 218.206 C 500.572 217.433 500.352 216.816 499.912 216.356 C 499.479 215.896 498.922 215.666 498.242 215.666 C 497.562 215.666 496.999 215.896 496.552 216.356 C 496.112 216.816 495.892 217.433 495.892 218.206 C 495.892 218.973 496.112 219.586 496.552 220.046 C 496.999 220.506 497.562 220.736 498.242 220.736 ZM 517.034 213.496 C 518.174 213.496 519.084 213.833 519.764 214.506 C 520.437 215.179 520.774 216.189 520.774 217.536 L 520.774 222.776 L 518.124 222.776 L 518.124 217.946 C 518.124 217.219 517.971 216.679 517.664 216.326 C 517.364 215.966 516.937 215.786 516.384 215.786 C 515.764 215.786 515.271 215.989 514.904 216.396 C 514.544 216.796 514.364 217.393 514.364 218.186 L 514.364 222.776 L 511.714 222.776 L 511.714 217.946 C 511.714 216.506 511.134 215.786 509.974 215.786 C 509.361 215.786 508.874 215.989 508.514 216.396 C 508.154 216.796 507.974 217.393 507.974 218.186 L 507.974 222.776 L 505.314 222.776 L 505.314 213.626 L 507.854 213.626 L 507.854 214.686 C 508.194 214.299 508.611 214.003 509.104 213.796 C 509.597 213.596 510.137 213.496 510.724 213.496 C 511.371 213.496 511.954 213.623 512.474 213.876 C 512.994 214.129 513.414 214.499 513.734 214.986 C 514.107 214.513 514.581 214.146 515.154 213.886 C 515.727 213.626 516.354 213.496 517.034 213.496 ZM 527.132 213.496 C 528.552 213.496 529.642 213.833 530.402 214.506 C 531.162 215.179 531.542 216.196 531.542 217.556 L 531.542 222.776 L 529.052 222.776 L 529.052 221.636 C 528.559 222.489 527.632 222.916 526.272 222.916 C 525.566 222.916 524.956 222.796 524.442 222.556 C 523.929 222.316 523.536 221.986 523.262 221.566 C 522.989 221.146 522.852 220.669 522.852 220.136 C 522.852 219.289 523.172 218.623 523.812 218.136 C 524.452 217.649 525.442 217.406 526.782 217.406 L 528.882 217.406 C 528.882 216.826 528.709 216.379 528.362 216.066 C 528.009 215.759 527.482 215.606 526.782 215.606 C 526.296 215.606 525.816 215.683 525.342 215.836 C 524.869 215.983 524.469 216.189 524.142 216.456 L 523.192 214.596 C 523.692 214.249 524.289 213.979 524.982 213.786 C 525.682 213.593 526.399 213.496 527.132 213.496 Z M 526.932 221.126 C 527.386 221.126 527.789 221.023 528.142 220.816 C 528.489 220.603 528.736 220.293 528.882 219.886 L 528.882 218.946 L 527.072 218.946 C 525.979 218.946 525.432 219.306 525.432 220.026 C 525.432 220.366 525.566 220.633 525.832 220.826 C 526.099 221.026 526.466 221.126 526.932 221.126 ZM 539.419 220.466 L 540.129 222.336 C 539.869 222.529 539.549 222.673 539.169 222.766 C 538.789 222.866 538.389 222.916 537.969 222.916 C 536.882 222.916 536.042 222.636 535.449 222.076 C 534.855 221.523 534.559 220.706 534.559 219.626 L 534.559 215.876 L 533.149 215.876 L 533.149 213.836 L 534.559 213.836 L 534.559 211.606 L 537.209 211.606 L 537.209 213.836 L 539.489 213.836 L 539.489 215.876 L 537.209 215.876 L 537.209 219.596 C 537.209 219.983 537.309 220.279 537.509 220.486 C 537.702 220.699 537.982 220.806 538.349 220.806 C 538.769 220.806 539.125 220.693 539.419 220.466 ZM 541.922 222.776 L 541.922 213.626 L 544.582 213.626 L 544.582 222.776 L 541.922 222.776 Z M 543.252 212.356 C 542.765 212.356 542.368 212.213 542.062 211.926 C 541.755 211.646 541.602 211.296 541.602 210.876 C 541.602 210.456 541.755 210.106 542.062 209.826 C 542.368 209.539 542.765 209.396 543.252 209.396 C 543.738 209.396 544.135 209.533 544.442 209.806 C 544.748 210.079 544.902 210.419 544.902 210.826 C 544.902 211.266 544.748 211.633 544.442 211.926 C 544.135 212.213 543.738 212.356 543.252 212.356 ZM 551.697 222.916 C 550.731 222.916 549.864 222.713 549.097 222.306 C 548.337 221.906 547.741 221.349 547.307 220.636 C 546.874 219.923 546.657 219.113 546.657 218.206 C 546.657 217.299 546.874 216.489 547.307 215.776 C 547.741 215.056 548.337 214.496 549.097 214.096 C 549.864 213.696 550.731 213.496 551.697 213.496 C 552.657 213.496 553.517 213.696 554.277 214.096 C 555.037 214.496 555.634 215.056 556.067 215.776 C 556.494 216.489 556.707 217.299 556.707 218.206 C 556.707 219.113 556.494 219.923 556.067 220.636 C 555.634 221.349 555.037 221.906 554.277 222.306 C 553.517 222.713 552.657 222.916 551.697 222.916 Z M 551.697 220.736 C 552.377 220.736 552.934 220.506 553.367 220.046 C 553.807 219.586 554.027 218.973 554.027 218.206 C 554.027 217.433 553.807 216.816 553.367 216.356 C 552.934 215.896 552.377 215.666 551.697 215.666 C 551.017 215.666 550.454 215.896 550.007 216.356 C 549.567 216.816 549.347 217.433 549.347 218.206 C 549.347 218.973 549.567 219.586 550.007 220.046 C 550.454 220.506 551.017 220.736 551.697 220.736 ZM 564.33 213.496 C 565.463 213.496 566.38 213.836 567.08 214.516 C 567.773 215.196 568.12 216.203 568.12 217.536 L 568.12 222.776 L 565.47 222.776 L 565.47 217.946 C 565.47 217.219 565.313 216.679 565 216.326 C 564.68 215.966 564.22 215.786 563.62 215.786 C 562.953 215.786 562.42 215.993 562.02 216.406 C 561.626 216.819 561.43 217.436 561.43 218.256 L 561.43 222.776 L 558.77 222.776 L 558.77 213.626 L 561.31 213.626 L 561.31 214.696 C 561.656 214.316 562.093 214.019 562.62 213.806 C 563.14 213.599 563.71 213.496 564.33 213.496 ZM 571.004 218.646 L 570.474 210.876 L 573.644 210.876 L 573.114 218.646 L 571.004 218.646 Z M 572.064 222.916 C 571.597 222.916 571.207 222.766 570.894 222.466 C 570.58 222.159 570.424 221.793 570.424 221.366 C 570.424 220.933 570.577 220.573 570.884 220.286 C 571.19 219.999 571.584 219.856 572.064 219.856 C 572.537 219.856 572.927 219.999 573.234 220.286 C 573.54 220.573 573.694 220.933 573.694 221.366 C 573.694 221.793 573.537 222.159 573.224 222.466 C 572.91 222.766 572.524 222.916 572.064 222.916 Z" transform="matrix(1, 0, 0, 1, 0, 0)" style="fill: rgb(255, 255, 255); text-transform: lowercase; white-space: pre;"/>
  <path d="M 619.129 213.718 L 621.679 213.718 L 617.819 222.868 L 615.089 222.868 L 611.239 213.718 L 613.979 213.718 L 616.509 219.948 L 619.129 213.718 ZM 631.767 218.328 C 631.767 218.361 631.751 218.598 631.717 219.038 L 624.797 219.038 C 624.924 219.605 625.221 220.055 625.687 220.388 C 626.147 220.715 626.724 220.878 627.417 220.878 C 627.897 220.878 628.321 220.808 628.687 220.668 C 629.054 220.528 629.397 220.305 629.717 219.998 L 631.127 221.528 C 630.267 222.515 629.007 223.008 627.347 223.008 C 626.321 223.008 625.411 222.805 624.617 222.398 C 623.824 221.998 623.211 221.441 622.777 220.728 C 622.344 220.015 622.127 219.205 622.127 218.298 C 622.127 217.398 622.341 216.588 622.767 215.868 C 623.194 215.148 623.777 214.588 624.517 214.188 C 625.264 213.788 626.094 213.588 627.007 213.588 C 627.907 213.588 628.717 213.781 629.437 214.168 C 630.164 214.548 630.734 215.098 631.147 215.818 C 631.561 216.538 631.767 217.375 631.767 218.328 Z M 627.027 215.588 C 626.427 215.588 625.924 215.758 625.517 216.098 C 625.111 216.438 624.861 216.905 624.767 217.498 L 629.267 217.498 C 629.181 216.918 628.934 216.455 628.527 216.108 C 628.114 215.761 627.614 215.588 627.027 215.588 ZM 636.372 214.928 C 636.685 214.488 637.112 214.155 637.652 213.928 C 638.192 213.701 638.812 213.588 639.512 213.588 L 639.512 216.038 C 639.218 216.011 639.022 215.998 638.922 215.998 C 638.162 215.998 637.565 216.211 637.132 216.638 C 636.705 217.065 636.492 217.701 636.492 218.548 L 636.492 222.868 L 633.832 222.868 L 633.832 213.718 L 636.372 213.718 L 636.372 214.928 ZM 641.389 222.868 L 641.389 213.718 L 644.049 213.718 L 644.049 222.868 L 641.389 222.868 Z M 642.719 212.448 C 642.232 212.448 641.835 212.305 641.529 212.018 C 641.222 211.738 641.069 211.388 641.069 210.968 C 641.069 210.548 641.222 210.198 641.529 209.918 C 641.835 209.631 642.232 209.488 642.719 209.488 C 643.205 209.488 643.602 209.625 643.909 209.898 C 644.215 210.171 644.369 210.511 644.369 210.918 C 644.369 211.358 644.215 211.725 643.909 212.018 C 643.602 212.305 643.205 212.448 642.719 212.448 ZM 649.714 213.538 L 649.714 213.928 L 652.064 213.928 L 652.064 215.968 L 649.784 215.968 L 649.784 222.868 L 647.134 222.868 L 647.134 215.968 L 645.724 215.968 L 645.724 213.928 L 647.134 213.928 L 647.134 213.518 C 647.134 212.478 647.441 211.651 648.054 211.038 C 648.674 210.425 649.544 210.118 650.664 210.118 C 651.064 210.118 651.441 210.161 651.794 210.248 C 652.154 210.328 652.454 210.448 652.694 210.608 L 651.994 212.528 C 651.688 212.315 651.331 212.208 650.924 212.208 C 650.118 212.208 649.714 212.651 649.714 213.538 ZM 655.041 222.868 L 655.041 213.718 L 657.701 213.718 L 657.701 222.868 L 655.041 222.868 Z M 656.371 212.448 C 655.885 212.448 655.488 212.305 655.181 212.018 C 654.875 211.738 654.721 211.388 654.721 210.968 C 654.721 210.548 654.875 210.198 655.181 209.918 C 655.488 209.631 655.885 209.488 656.371 209.488 C 656.858 209.488 657.255 209.625 657.561 209.898 C 657.868 210.171 658.021 210.511 658.021 210.918 C 658.021 211.358 657.868 211.725 657.561 212.018 C 657.255 212.305 656.858 212.448 656.371 212.448 ZM 669.417 218.328 C 669.417 218.361 669.4 218.598 669.367 219.038 L 662.447 219.038 C 662.574 219.605 662.87 220.055 663.337 220.388 C 663.797 220.715 664.374 220.878 665.067 220.878 C 665.547 220.878 665.97 220.808 666.337 220.668 C 666.704 220.528 667.047 220.305 667.367 219.998 L 668.777 221.528 C 667.917 222.515 666.657 223.008 664.997 223.008 C 663.97 223.008 663.06 222.805 662.267 222.398 C 661.474 221.998 660.86 221.441 660.427 220.728 C 659.994 220.015 659.777 219.205 659.777 218.298 C 659.777 217.398 659.99 216.588 660.417 215.868 C 660.844 215.148 661.427 214.588 662.167 214.188 C 662.914 213.788 663.744 213.588 664.657 213.588 C 665.557 213.588 666.367 213.781 667.087 214.168 C 667.814 214.548 668.384 215.098 668.797 215.818 C 669.21 216.538 669.417 217.375 669.417 218.328 Z M 664.677 215.588 C 664.077 215.588 663.574 215.758 663.167 216.098 C 662.76 216.438 662.51 216.905 662.417 217.498 L 666.917 217.498 C 666.83 216.918 666.584 216.455 666.177 216.108 C 665.764 215.761 665.264 215.588 664.677 215.588 ZM 678.151 210.258 L 680.801 210.258 L 680.801 222.868 L 678.271 222.868 L 678.271 221.818 C 677.611 222.611 676.658 223.008 675.411 223.008 C 674.551 223.008 673.771 222.815 673.071 222.428 C 672.378 222.041 671.831 221.491 671.431 220.778 C 671.038 220.065 670.841 219.238 670.841 218.298 C 670.841 217.358 671.038 216.528 671.431 215.808 C 671.831 215.095 672.378 214.548 673.071 214.168 C 673.771 213.781 674.551 213.588 675.411 213.588 C 676.578 213.588 677.491 213.955 678.151 214.688 L 678.151 210.258 Z M 675.871 220.828 C 676.538 220.828 677.095 220.598 677.541 220.138 C 677.981 219.678 678.201 219.065 678.201 218.298 C 678.201 217.525 677.981 216.908 677.541 216.448 C 677.095 215.988 676.538 215.758 675.871 215.758 C 675.191 215.758 674.631 215.988 674.191 216.448 C 673.745 216.908 673.521 217.525 673.521 218.298 C 673.521 219.065 673.745 219.678 674.191 220.138 C 674.631 220.598 675.191 220.828 675.871 220.828 ZM 693.112 223.008 C 692.145 223.008 691.279 222.805 690.512 222.398 C 689.752 221.998 689.155 221.441 688.722 220.728 C 688.289 220.015 688.072 219.205 688.072 218.298 C 688.072 217.391 688.289 216.581 688.722 215.868 C 689.155 215.148 689.752 214.588 690.512 214.188 C 691.279 213.788 692.145 213.588 693.112 213.588 C 694.072 213.588 694.932 213.788 695.692 214.188 C 696.452 214.588 697.049 215.148 697.482 215.868 C 697.909 216.581 698.122 217.391 698.122 218.298 C 698.122 219.205 697.909 220.015 697.482 220.728 C 697.049 221.441 696.452 221.998 695.692 222.398 C 694.932 222.805 694.072 223.008 693.112 223.008 Z M 693.112 220.828 C 693.792 220.828 694.349 220.598 694.782 220.138 C 695.222 219.678 695.442 219.065 695.442 218.298 C 695.442 217.525 695.222 216.908 694.782 216.448 C 694.349 215.988 693.792 215.758 693.112 215.758 C 692.432 215.758 691.869 215.988 691.422 216.448 C 690.982 216.908 690.762 217.525 690.762 218.298 C 690.762 219.065 690.982 219.678 691.422 220.138 C 691.869 220.598 692.432 220.828 693.112 220.828 ZM 705.744 213.588 C 706.878 213.588 707.794 213.928 708.494 214.608 C 709.188 215.288 709.534 216.295 709.534 217.628 L 709.534 222.868 L 706.884 222.868 L 706.884 218.038 C 706.884 217.311 706.728 216.771 706.414 216.418 C 706.094 216.058 705.634 215.878 705.034 215.878 C 704.368 215.878 703.834 216.085 703.434 216.498 C 703.041 216.911 702.844 217.528 702.844 218.348 L 702.844 222.868 L 700.184 222.868 L 700.184 213.718 L 702.724 213.718 L 702.724 214.788 C 703.071 214.408 703.508 214.111 704.034 213.898 C 704.554 213.691 705.124 213.588 705.744 213.588 ZM 711.888 219.148 L 711.888 217.018 L 716.708 217.018 L 716.708 219.148 L 711.888 219.148 ZM 723.678 223.008 C 722.705 223.008 721.832 222.805 721.058 222.398 C 720.278 221.998 719.672 221.441 719.238 220.728 C 718.798 220.015 718.578 219.205 718.578 218.298 C 718.578 217.391 718.798 216.581 719.238 215.868 C 719.672 215.148 720.278 214.588 721.058 214.188 C 721.832 213.788 722.705 213.588 723.678 213.588 C 724.645 213.588 725.488 213.788 726.208 214.188 C 726.928 214.588 727.452 215.165 727.778 215.918 L 725.718 217.018 C 725.245 216.178 724.562 215.758 723.668 215.758 C 722.975 215.758 722.402 215.985 721.948 216.438 C 721.495 216.891 721.268 217.511 721.268 218.298 C 721.268 219.078 721.495 219.695 721.948 220.148 C 722.402 220.601 722.975 220.828 723.668 220.828 C 724.575 220.828 725.258 220.408 725.718 219.568 L 727.778 220.688 C 727.452 221.415 726.928 221.981 726.208 222.388 C 725.488 222.801 724.645 223.008 723.678 223.008 ZM 735.095 213.588 C 736.228 213.588 737.145 213.928 737.845 214.608 C 738.538 215.288 738.885 216.295 738.885 217.628 L 738.885 222.868 L 736.235 222.868 L 736.235 218.038 C 736.235 217.311 736.078 216.771 735.765 216.418 C 735.445 216.058 734.985 215.878 734.385 215.878 C 733.718 215.878 733.185 216.085 732.785 216.498 C 732.391 216.911 732.195 217.528 732.195 218.348 L 732.195 222.868 L 729.535 222.868 L 729.535 210.258 L 732.195 210.258 L 732.195 214.678 C 732.541 214.325 732.965 214.055 733.465 213.868 C 733.965 213.681 734.508 213.588 735.095 213.588 ZM 745.269 213.588 C 746.689 213.588 747.779 213.925 748.539 214.598 C 749.299 215.271 749.679 216.288 749.679 217.648 L 749.679 222.868 L 747.189 222.868 L 747.189 221.728 C 746.695 222.581 745.769 223.008 744.409 223.008 C 743.702 223.008 743.092 222.888 742.579 222.648 C 742.065 222.408 741.672 222.078 741.399 221.658 C 741.125 221.238 740.989 220.761 740.989 220.228 C 740.989 219.381 741.309 218.715 741.949 218.228 C 742.589 217.741 743.579 217.498 744.919 217.498 L 747.019 217.498 C 747.019 216.918 746.845 216.471 746.499 216.158 C 746.145 215.851 745.619 215.698 744.919 215.698 C 744.432 215.698 743.952 215.775 743.479 215.928 C 743.005 216.075 742.605 216.281 742.279 216.548 L 741.329 214.688 C 741.829 214.341 742.425 214.071 743.119 213.878 C 743.819 213.685 744.535 213.588 745.269 213.588 Z M 745.069 221.218 C 745.522 221.218 745.925 221.115 746.279 220.908 C 746.625 220.695 746.872 220.385 747.019 219.978 L 747.019 219.038 L 745.209 219.038 C 744.115 219.038 743.569 219.398 743.569 220.118 C 743.569 220.458 743.702 220.725 743.969 220.918 C 744.235 221.118 744.602 221.218 745.069 221.218 ZM 752.365 222.868 L 752.365 213.718 L 755.025 213.718 L 755.025 222.868 L 752.365 222.868 Z M 753.695 212.448 C 753.208 212.448 752.812 212.305 752.505 212.018 C 752.198 211.738 752.045 211.388 752.045 210.968 C 752.045 210.548 752.198 210.198 752.505 209.918 C 752.812 209.631 753.208 209.488 753.695 209.488 C 754.182 209.488 754.578 209.625 754.885 209.898 C 755.192 210.171 755.345 210.511 755.345 210.918 C 755.345 211.358 755.192 211.725 754.885 212.018 C 754.578 212.305 754.182 212.448 753.695 212.448 ZM 763.341 213.588 C 764.474 213.588 765.391 213.928 766.091 214.608 C 766.784 215.288 767.131 216.295 767.131 217.628 L 767.131 222.868 L 764.481 222.868 L 764.481 218.038 C 764.481 217.311 764.324 216.771 764.011 216.418 C 763.691 216.058 763.231 215.878 762.631 215.878 C 761.964 215.878 761.431 216.085 761.031 216.498 C 760.637 216.911 760.441 217.528 760.441 218.348 L 760.441 222.868 L 757.781 222.868 L 757.781 213.718 L 760.321 213.718 L 760.321 214.788 C 760.667 214.408 761.104 214.111 761.631 213.898 C 762.151 213.691 762.721 213.588 763.341 213.588 ZM 770.015 218.738 L 769.485 210.968 L 772.655 210.968 L 772.125 218.738 L 770.015 218.738 Z M 771.075 223.008 C 770.608 223.008 770.218 222.858 769.905 222.558 C 769.591 222.251 769.435 221.885 769.435 221.458 C 769.435 221.025 769.588 220.665 769.895 220.378 C 770.201 220.091 770.595 219.948 771.075 219.948 C 771.548 219.948 771.938 220.091 772.245 220.378 C 772.551 220.665 772.705 221.025 772.705 221.458 C 772.705 221.885 772.548 222.251 772.235 222.558 C 771.921 222.858 771.535 223.008 771.075 223.008 Z" transform="matrix(1, 0, 0, 1, 0, 0)" style="fill: rgb(255, 255, 255); text-transform: lowercase; white-space: pre;"/>
</svg>