<?xml version="1.0" encoding="UTF-8" standalone="no"?>
<!DOCTYPE svg PUBLIC "-//W3C//DTD SVG 1.1//EN" "http://www.w3.org/Graphics/SVG/1.1/DTD/svg11.dtd">
<svg version="1.1" xmlns="http://www.w3.org/2000/svg" xmlns:xlink="http://www.w3.org/1999/xlink" preserveAspectRatio="xMidYMid meet" viewBox="45.607698607698666 46.516317710207005 540.2743904628122 514.665500471611" width="534.27" height="508.67"><defs><path d="M458.69 125.38C459.09 125.38 459.49 125.35 459.88 125.29C470.4 125.51 478.82 134.09 478.84 144.61C478.84 149.39 482.71 153.26 487.49 153.26C492.27 153.26 496.15 149.39 496.15 144.61C496.13 127.4 484.15 112.51 467.34 108.81C467.34 107.98 467.34 101.32 467.34 100.49C467.34 95.71 463.47 91.84 458.69 91.84C453.91 91.84 450.03 95.71 450.03 100.49C450.03 101.36 450.03 108.33 450.03 109.2C432.26 113.95 420.77 131.14 423.16 149.38C425.56 167.62 441.11 181.25 459.5 181.25C470.18 181.25 478.84 189.92 478.84 200.6C478.84 211.27 470.18 219.93 459.5 219.93C448.82 219.93 440.16 211.27 440.16 200.6C440.16 195.82 436.29 191.94 431.51 191.94C426.73 191.94 422.85 195.82 422.85 200.6C422.87 217.18 434.01 231.69 450.03 236C450.03 236.95 450.03 244.53 450.03 245.48C450.03 250.26 453.91 254.14 458.69 254.14C463.47 254.14 467.34 250.26 467.34 245.48C467.34 244.57 467.34 237.3 467.34 236.39C485.62 232.39 497.95 215.26 495.94 196.65C493.93 178.05 478.21 163.95 459.5 163.95C449.11 163.96 440.58 155.76 440.17 145.38C439.77 135 447.63 126.16 457.99 125.35C458.22 125.36 458.45 125.38 458.69 125.38Z" id="dD0D9CQ9b"></path><linearGradient id="gradientc2pGUcBybO" gradientUnits="userSpaceOnUse" x1="457.89" y1="86.58" x2="459.5" y2="273.19"><stop style="stop-color: #ffffff;stop-opacity: 1" offset="0%"></stop><stop style="stop-color: #cfcaca;stop-opacity: 1" offset="50.47033827424555%"></stop><stop style="stop-color: #ffffff;stop-opacity: 1" offset="100%"></stop></linearGradient><mask id="maskceXxILXpN" x="416.85" y="85.84" width="85.3" height="174.3" maskUnits="userSpaceOnUse"><rect x="416.85" y="85.84" width="85.3" height="174.3" fill="white"></rect><use xlink:href="#dD0D9CQ9b" opacity="1" fill="black"></use></mask><path d="M344.27 130.79C322.79 130.79 150.92 130.79 129.43 130.79C124.67 130.79 120.81 135.08 120.78 139.83C120.64 160.08 119.96 261.3 118.73 443.49C81.99 443.49 61.57 443.49 57.49 443.49C52.71 443.49 48.61 446.95 48.61 451.74C48.61 455.59 48.61 486.42 48.61 490.27C48.72 526.55 77.29 556.35 113.53 557.99C113.53 558 113.53 558.07 113.53 558.18L380.78 558.18C380.78 558.03 380.78 557.95 380.78 557.93C382.95 558.01 383.84 558.18 385.21 558.18C385.23 558.18 385.38 558.18 385.39 558.18C422.9 558.12 453.28 527.7 453.28 490.19C453.28 470.71 453.28 314.85 453.28 295.36C455.44 295.48 457.73 295.55 459.97 295.55C527.74 295.55 582.88 240.3 582.88 172.53C582.88 104.76 527.76 49.52 459.99 49.52C406.74 49.52 361.3 84.26 344.27 130.79ZM116.82 540.87C116.79 540.87 116.77 540.87 116.77 540.87C88.76 540.83 66.05 518.19 65.92 490.18C65.92 488.23 65.92 478.43 65.92 460.8L316.95 460.8C316.95 478.36 316.95 488.11 316.95 490.06C316.96 508.13 324.17 525.44 336.99 538.18C337.9 539.09 339.02 539.79 339.98 540.87C310.22 540.87 235.84 540.87 116.82 540.87ZM435.97 490.18C435.97 518.14 413.34 540.81 385.39 540.87C385.37 540.87 385.24 540.87 385.22 540.87C357.16 540.82 334.4 518.13 334.26 490.07C334.26 486.24 334.26 455.57 334.26 451.74C334.33 449.52 333.48 447.38 331.92 445.82C330.35 444.25 328.2 443.41 325.99 443.49C313.33 443.49 250.01 443.49 136.04 443.49L138.03 148.1C258.89 148.1 326.04 148.1 339.47 148.1C337.93 156.03 337.14 164.07 337.1 172.14C337.08 189.21 340.64 206.08 347.55 221.68C339.37 221.68 273.96 221.68 265.79 221.68C261 221.68 257.13 225.55 257.13 230.33C257.13 235.11 261 238.99 265.79 238.99C274.9 238.99 347.82 238.99 356.94 238.99C374.79 267.07 403.34 286.65 435.97 293.2C435.97 332.6 435.97 450.79 435.97 490.18ZM354.41 172.65C354.41 114.34 401.68 67.07 460 67.07C518.31 67.07 565.58 114.34 565.58 172.65C565.52 230.94 518.28 278.17 459.99 278.24C401.68 278.24 354.41 230.97 354.41 172.65Z" id="a8RBcVbrW"></path><linearGradient id="gradienta17zWRssEG" gradientUnits="userSpaceOnUse" x1="304.02" y1="33.03" x2="315.74" y2="617.89"><stop style="stop-color: #fd15ff;stop-opacity: 1" offset="0%"></stop><stop style="stop-color: #1546fe;stop-opacity: 1" offset="50.47033827424555%"></stop><stop style="stop-color: #a915fe;stop-opacity: 1" offset="100%"></stop></linearGradient><mask id="maskc5avEGKbbD" x="42.61" y="43.52" width="546.27" height="520.67" maskUnits="userSpaceOnUse"><rect x="42.61" y="43.52" width="546.27" height="520.67" fill="white"></rect><use xlink:href="#a8RBcVbrW" opacity="1" fill="black"></use></mask><path d="M182.52 306.11C182.52 320.91 194.94 332.94 210.22 332.94C225.5 332.94 237.93 320.91 237.93 306.11C237.93 291.32 225.5 279.29 210.22 279.29C194.94 279.29 182.52 291.32 182.52 306.11ZM199.83 306.11C199.83 300.86 204.49 296.6 210.22 296.6C215.96 296.6 220.62 300.87 220.62 306.11C220.62 311.36 215.96 315.63 210.22 315.63C204.49 315.63 199.83 311.36 199.83 306.11Z" id="d45VxcwaxC"></path><mask id="maskf26agAjF8e" x="176.52" y="273.29" width="67.41" height="65.65" maskUnits="userSpaceOnUse"><rect x="176.52" y="273.29" width="67.41" height="65.65" fill="white"></rect><use xlink:href="#d45VxcwaxC" opacity="1" fill="black"></use></mask><path d="M265.79 314.73C277.33 314.73 369.65 314.73 381.19 314.73C385.97 314.73 389.85 310.85 389.85 306.07C389.85 301.29 385.97 297.42 381.19 297.42C369.65 297.42 277.33 297.42 265.79 297.42C261 297.42 257.13 301.29 257.13 306.07C257.13 310.85 261 314.73 265.79 314.73Z" id="b26jORaPdE"></path><mask id="maska1fykL8DeA" x="251.13" y="291.42" width="144.71" height="29.31" maskUnits="userSpaceOnUse"><rect x="251.13" y="291.42" width="144.71" height="29.31" fill="white"></rect><use xlink:href="#b26jORaPdE" opacity="1" fill="black"></use></mask><path d="M182.52 230.87C182.52 245.66 194.94 257.7 210.22 257.7C225.5 257.7 237.93 245.66 237.93 230.87C237.93 216.08 225.5 204.04 210.22 204.04C194.94 204.04 182.52 216.08 182.52 230.87ZM199.83 230.87C199.83 225.63 204.49 221.35 210.22 221.35C215.96 221.35 220.62 225.62 220.62 230.87C220.62 236.12 215.96 240.39 210.22 240.39C204.49 240.38 199.83 236.12 199.83 230.87Z" id="c364adUvOE"></path><mask id="maskc1wznBgHdM" x="176.52" y="198.04" width="67.41" height="65.66" maskUnits="userSpaceOnUse"><rect x="176.52" y="198.04" width="67.41" height="65.66" fill="white"></rect><use xlink:href="#c364adUvOE" opacity="1" fill="black"></use></mask><path d="M182.52 381.35C182.52 396.14 194.94 408.18 210.22 408.18C225.5 408.18 237.93 396.14 237.93 381.35C237.93 366.56 225.5 354.52 210.22 354.52C194.94 354.52 182.52 366.56 182.52 381.35ZM199.83 381.35C199.83 376.1 204.49 371.84 210.22 371.84C215.96 371.84 220.62 376.1 220.62 381.35C220.62 386.6 215.96 390.86 210.22 390.86C204.49 390.86 199.83 386.6 199.83 381.35Z" id="b2UdjUhX5A"></path><mask id="maskh31esbYyfl" x="176.52" y="348.52" width="67.41" height="65.65" maskUnits="userSpaceOnUse"><rect x="176.52" y="348.52" width="67.41" height="65.65" fill="white"></rect><use xlink:href="#b2UdjUhX5A" opacity="1" fill="black"></use></mask><path d="M265.79 373.16C261 373.16 257.13 377.03 257.13 381.81C257.13 386.6 261 390.47 265.79 390.47C277.33 390.47 369.65 390.47 381.19 390.47C385.97 390.47 389.85 386.6 389.85 381.81C389.85 377.03 385.97 373.16 381.19 373.16C358.11 373.16 277.33 373.16 265.79 373.16Z" id="b76sGRgxu1"></path><mask id="maskd8mWhHMPP" x="251.13" y="367.16" width="144.71" height="29.31" maskUnits="userSpaceOnUse"><rect x="251.13" y="367.16" width="144.71" height="29.31" fill="white"></rect><use xlink:href="#b76sGRgxu1" opacity="1" fill="black"></use></mask></defs><g><g><use xlink:href="#dD0D9CQ9b" opacity="1" fill="url(#gradientc2pGUcBybO)"></use><g mask="url(#maskceXxILXpN)"><use xlink:href="#dD0D9CQ9b" opacity="1" fill-opacity="0" stroke="#ffffff" stroke-width="6" stroke-opacity="1"></use></g></g><g><use xlink:href="#a8RBcVbrW" opacity="1" fill="url(#gradienta17zWRssEG)"></use><g mask="url(#maskc5avEGKbbD)"><use xlink:href="#a8RBcVbrW" opacity="1" fill-opacity="0" stroke="#ffffff" stroke-width="6" stroke-opacity="1"></use></g></g><g><use xlink:href="#d45VxcwaxC" opacity="1" fill="#8d2cff" fill-opacity="1"></use><g mask="url(#maskf26agAjF8e)"><use xlink:href="#d45VxcwaxC" opacity="1" fill-opacity="0" stroke="#ffffff" stroke-width="6" stroke-opacity="1"></use></g></g><g><use xlink:href="#b26jORaPdE" opacity="1" fill="#d41cff" fill-opacity="1"></use><g mask="url(#maska1fykL8DeA)"><use xlink:href="#b26jORaPdE" opacity="1" fill-opacity="0" stroke="#ffffff" stroke-width="6" stroke-opacity="1"></use></g></g><g><use xlink:href="#c364adUvOE" opacity="1" fill="#2044ff" fill-opacity="1"></use><g mask="url(#maskc1wznBgHdM)"><use xlink:href="#c364adUvOE" opacity="1" fill-opacity="0" stroke="#ffffff" stroke-width="6" stroke-opacity="1"></use></g></g><g><use xlink:href="#b2UdjUhX5A" opacity="1" fill="#d41cff" fill-opacity="1"></use><g mask="url(#maskh31esbYyfl)"><use xlink:href="#b2UdjUhX5A" opacity="1" fill-opacity="0" stroke="#ffffff" stroke-width="6" stroke-opacity="1"></use></g></g><g><use xlink:href="#b76sGRgxu1" opacity="1" fill="#2044ff" fill-opacity="1"></use><g mask="url(#maskd8mWhHMPP)"><use xlink:href="#b76sGRgxu1" opacity="1" fill-opacity="0" stroke="#ffffff" stroke-width="6" stroke-opacity="1"></use></g></g></g></svg>