<?xml version="1.0" encoding="UTF-8" standalone="no"?>
<!DOCTYPE svg PUBLIC "-//W3C//DTD SVG 1.1//EN" "http://www.w3.org/Graphics/SVG/1.1/DTD/svg11.dtd">
<svg version="1.1" xmlns="http://www.w3.org/2000/svg" xmlns:xlink="http://www.w3.org/1999/xlink" preserveAspectRatio="xMidYMid meet" viewBox="0 0 1920 640" width="1920" height="640"><defs><path d="M1920 0C1866.58 28.23 1759.73 84.7 1599.45 169.39L1447.94 169.39L1387.33 230L1122.18 230L1078.24 169.39L887.33 169.39L693.39 169.39L644.91 230L293.39 230L293.39 169.39L179.75 84.55L0 84.55" id="d3HBqA4eaL"></path><path d="M1920 24C1866.58 52.23 1759.73 108.7 1599.45 193.39L1447.94 193.39L1387.33 254L1122.18 254L1078.24 193.39L887.33 193.39L693.39 193.39L644.91 254L293.39 254L293.39 193.39L179.75 108.55L0 108.55" id="b40zQirE7N"></path><path d="M1920 59C1866.58 87.23 1759.73 143.7 1599.45 228.39L1447.94 228.39L1387.33 289L1122.18 289L1078.24 228.39L887.33 228.39L693.39 228.39L644.91 289L293.39 289L293.39 228.39L179.75 143.55L0 143.55" id="i1p8YIedqN"></path></defs><g><g><g><g><use xlink:href="#d3HBqA4eaL" opacity="1" fill-opacity="0" stroke="#a914ff" stroke-width="4" stroke-opacity="1"></use></g></g><g><g><use xlink:href="#b40zQirE7N" opacity="1" fill-opacity="0" stroke="#1446ff" stroke-width="4" stroke-opacity="1"></use></g></g><g><g><use xlink:href="#i1p8YIedqN" opacity="1" fill-opacity="0" stroke="#fc14ff" stroke-width="4" stroke-opacity="1"></use></g></g></g></g></svg>