<?xml version="1.0" encoding="UTF-8" standalone="no"?>
<!DOCTYPE svg PUBLIC "-//W3C//DTD SVG 1.1//EN" "http://www.w3.org/Graphics/SVG/1.1/DTD/svg11.dtd">
<svg version="1.1" xmlns="http://www.w3.org/2000/svg" xmlns:xlink="http://www.w3.org/1999/xlink" preserveAspectRatio="xMidYMid meet" viewBox="120.90476190476164 143.72072072072066 373.33354856563005 378.76962676962626" width="369.33" height="374.77"><defs><path d="M422.81 370.03C415.39 365.81 411.36 355.96 411.36 342.59C411.36 338.48 411.36 305.58 411.36 301.47C411.36 281.71 403.56 267.7 390.45 263.87C368.38 257.41 351.88 284.46 345.55 294.63C342.95 298.85 329.92 319.93 306.48 357.88C306.48 311.56 306.48 285.83 306.48 280.69C306.03 262.91 300.27 252.23 289.27 249.03C282.05 246.92 271.17 247.75 260.62 263.87C251.88 277.89 182 390.09 173.26 404.12C161.62 381.93 155.54 357.18 155.67 332.11C155.67 247.56 223.21 178.81 306.48 178.81C389.74 178.81 457.47 247.56 457.47 332.11C457.47 332.15 457.47 332.51 457.47 332.55C457.47 332.55 457.47 332.87 457.47 333C458.3 349.31 452.99 362.36 442.95 368.69C442.95 368.69 442.95 368.69 442.95 368.69C433.83 371.76 427.11 372.2 422.81 370.03ZM491.24 331.27C490.53 228.31 407.91 144.72 306.48 144.72C205.04 144.72 121.9 228.76 121.9 332.11C121.9 435.45 204.66 519.49 306.48 519.49C353.16 519.49 398.06 501.58 431.95 469.48C438.8 463.02 439.18 452.27 432.85 445.37C426.71 438.59 416.28 438.08 409.44 444.22C409.44 444.22 409.38 444.28 409.38 444.28C349.58 501.01 255.12 498.51 198.39 438.72C196.99 437.25 195.64 435.77 194.3 434.24C199.54 425.81 225.74 383.67 272.9 307.8C272.9 342.8 272.9 362.24 272.9 366.13C272.9 394.14 283.77 403.22 292.85 405.91C301.93 408.59 315.94 406.74 330.52 383.01C334.87 375.98 369.66 319.7 374.01 312.66C375.35 310.43 376.63 308.44 377.85 306.78C377.85 310.35 377.85 338.95 377.85 342.53C377.85 368.75 388.34 389.66 406.82 400.02C423.89 409.23 444.62 408.4 460.92 397.85C481.2 384.68 492.26 360.82 491.11 332.11C491.12 332.11 491.16 332.11 491.24 332.11C491.24 331.61 491.24 331.33 491.24 331.27Z" id="a2eU6D464q"></path><linearGradient id="gradientb60bNVewPE" gradientUnits="userSpaceOnUse" x1="306.57" y1="144.72" x2="306.57" y2="519.49"><stop style="stop-color: #ffffff;stop-opacity: 1" offset="0%"></stop><stop style="stop-color: #dedede;stop-opacity: 1" offset="100%"></stop></linearGradient></defs><g><g><g><filter id="shadow16283195" x="112.9" y="135.72" width="388.33" height="393.77" filterUnits="userSpaceOnUse" primitiveUnits="userSpaceOnUse"><feFlood></feFlood><feComposite in2="SourceAlpha" operator="in"></feComposite><feGaussianBlur stdDeviation="1"></feGaussianBlur><feOffset dx="1" dy="1" result="afterOffset"></feOffset><feFlood flood-color="#000000" flood-opacity="0.14"></feFlood><feComposite in2="afterOffset" operator="in"></feComposite><feMorphology operator="dilate" radius="1"></feMorphology><feComposite in2="SourceAlpha" operator="out"></feComposite></filter><path d="M422.81 370.03C415.39 365.81 411.36 355.96 411.36 342.59C411.36 338.48 411.36 305.58 411.36 301.47C411.36 281.71 403.56 267.7 390.45 263.87C368.38 257.41 351.88 284.46 345.55 294.63C342.95 298.85 329.92 319.93 306.48 357.88C306.48 311.56 306.48 285.83 306.48 280.69C306.03 262.91 300.27 252.23 289.27 249.03C282.05 246.92 271.17 247.75 260.62 263.87C251.88 277.89 182 390.09 173.26 404.12C161.62 381.93 155.54 357.18 155.67 332.11C155.67 247.56 223.21 178.81 306.48 178.81C389.74 178.81 457.47 247.56 457.47 332.11C457.47 332.15 457.47 332.51 457.47 332.55C457.47 332.55 457.47 332.87 457.47 333C458.3 349.31 452.99 362.36 442.95 368.69C442.95 368.69 442.95 368.69 442.95 368.69C433.83 371.76 427.11 372.2 422.81 370.03ZM491.24 331.27C490.53 228.31 407.91 144.72 306.48 144.72C205.04 144.72 121.9 228.76 121.9 332.11C121.9 435.45 204.66 519.49 306.48 519.49C353.16 519.49 398.06 501.58 431.95 469.48C438.8 463.02 439.18 452.27 432.85 445.37C426.71 438.59 416.28 438.08 409.44 444.22C409.44 444.22 409.38 444.28 409.38 444.28C349.58 501.01 255.12 498.51 198.39 438.72C196.99 437.25 195.64 435.77 194.3 434.24C199.54 425.81 225.74 383.67 272.9 307.8C272.9 342.8 272.9 362.24 272.9 366.13C272.9 394.14 283.77 403.22 292.85 405.91C301.93 408.59 315.94 406.74 330.52 383.01C334.87 375.98 369.66 319.7 374.01 312.66C375.35 310.43 376.63 308.44 377.85 306.78C377.85 310.35 377.85 338.95 377.85 342.53C377.85 368.75 388.34 389.66 406.82 400.02C423.89 409.23 444.62 408.4 460.92 397.85C481.2 384.68 492.26 360.82 491.11 332.11C491.12 332.11 491.16 332.11 491.24 332.11C491.24 331.61 491.24 331.33 491.24 331.27Z" id="bDOA0cMHy" fill="white" fill-opacity="1" filter="url(#shadow16283195)"></path></g><use xlink:href="#a2eU6D464q" opacity="1" fill="url(#gradientb60bNVewPE)"></use><g><use xlink:href="#a2eU6D464q" opacity="1" fill-opacity="0" stroke="#000000" stroke-width="1" stroke-opacity="0"></use></g></g></g></svg>