<?xml version="1.0" encoding="UTF-8" standalone="no"?>
<!DOCTYPE svg PUBLIC "-//W3C//DTD SVG 1.1//EN" "http://www.w3.org/Graphics/SVG/1.1/DTD/svg11.dtd">
<svg version="1.1" xmlns="http://www.w3.org/2000/svg" xmlns:xlink="http://www.w3.org/1999/xlink" preserveAspectRatio="xMidYMid meet" viewBox="51.003045235181496 43.996792233451075 506.00013443058765 506.0001348971682" width="502" height="502"><defs><path d="M304.11 546.99C165.49 547.61 52.62 435.73 52.01 297.1C51.39 158.48 163.27 45.61 301.89 45C301.89 45 301.89 45 301.89 45C440.51 44.39 553.39 156.26 554 294.88C554 294.89 554 294.89 554 294.89C554.61 433.51 442.73 546.38 304.11 546.99Z" id="aDhiRrph"></path><path d="M304.18 528.26C175.98 528.89 71.54 425.47 70.9 297.27C70.27 169.06 173.69 64.62 301.9 63.99C301.92 63.99 301.95 63.99 301.98 63.99C301.98 63.99 301.98 63.99 301.98 63.99C430.15 63.42 534.52 166.82 535.18 294.98C535.81 423.19 432.39 527.63 304.18 528.26Z" id="d1Atczufv"></path><path d="M307.27 78.94C322.03 76.32 337.13 76.32 351.89 78.94C366.79 81.3 381.19 86.13 394.51 93.22C407.75 100.49 419.19 110.37 430.57 119.63C441.96 128.88 453.29 138.36 464.08 148.73C475.09 158.93 484.7 170.55 492.65 183.29C500.84 195.92 507.55 209.45 512.66 223.61C522.35 252.09 525.72 282.78 520.88 312.04C520.74 312.04 519.59 312.04 519.44 312.04C514.59 283.03 508 255.38 497.62 229.08C492.74 215.86 487.01 202.98 480.45 190.51C473.61 177.97 466.06 165.82 457.86 154.13C449.51 142.35 439.29 132.03 427.59 123.57C415.81 115.17 402.25 109.73 389.14 104.57C376.03 99.4 363.02 94.11 349.34 90.18C335.67 86.25 321.77 83.3 307.26 80.45C307.26 80.15 307.27 79.24 307.27 78.94Z" id="b3vDoFMUO"></path><path d="M368.77 194.27C367.75 189.83 363.82 184.3 355.87 177.56C344.32 167.53 322.63 167.79 303.87 172.23C283.18 167.35 262.73 165.62 243.11 170.41C82.59 214.62 173.61 322.5 114.68 430.94C123.06 448.73 213.44 552.51 344.22 524.66C344.22 524.66 299.49 417.19 400.42 365.61C482.28 323.61 541.43 245.91 420.75 213.04C403.91 208.17 386.45 201.26 368.77 194.27Z" id="n1reE3ADZg"></path><path d="M368.77 194.2C359.68 167.83 329.06 164.32 303.87 172.15C315.57 172.99 357.86 186.71 368.77 194.2Z" id="bk65LMt8A"></path><path d="M270.13 283.76C245.34 283.77 225.24 263.68 225.23 238.89C225.22 214.1 245.31 193.99 270.1 193.98C270.1 193.98 270.1 193.98 270.1 193.98C294.88 193.98 314.97 214.06 314.99 238.83C315.02 263.64 294.93 283.75 270.13 283.76Z" id="c2Tldjeon4"></path><path d="M270.12 270.83C252.68 270.83 238.54 256.69 238.54 239.25C238.54 221.81 252.68 207.68 270.12 207.68C270.12 207.68 270.12 207.68 270.12 207.68C287.55 207.68 301.69 221.81 301.69 239.25C301.69 256.69 287.55 270.83 270.12 270.83Z" id="a6iNtR5QE"></path><path d="M340.52 348.49C313.06 348.49 307.49 319.39 289.34 333.61C279.97 341 246.94 357.51 220.73 356.26C194.53 355 152.04 339.65 140.2 283.69C135.5 339.65 133.1 380.85 112.02 428.08C153.86 495.07 253.6 546.74 344.14 524.48C334.48 456.55 393.94 390.02 427.3 356.02C440.03 343.13 464.22 322.08 476.94 303.44C440.56 329.05 399.2 348.49 340.52 348.49Z" id="c2EK3dsbrp"></path><path d="M430.9 293.42C425.53 293.45 421.15 289.11 421.12 283.74C421.09 278.37 425.42 273.99 430.79 273.95C436.16 273.93 440.54 278.26 440.58 283.63C440.61 289.01 436.28 293.39 430.9 293.42Z" id="eHIxYQngR"></path><path d="M475.52 305.09C464.22 315.39 450.78 323.01 437.1 329.74C423.26 336.31 408.82 341.56 394 345.44C379.16 349.27 363.68 352.17 348 350.75C332.32 349.33 316.3 344 305.91 332.25C305.96 332.19 306.35 331.74 306.4 331.68C319.13 339.94 333.83 342.85 348.45 343.27C363.28 343.73 378.1 342.51 392.65 339.63C407.35 336.55 421.72 332.11 435.59 326.36C449.47 320.63 463.2 313.99 475.03 304.53C475.12 304.64 475.42 304.98 475.52 305.09Z" id="cqsBZFxMt"></path></defs><g><g><use xlink:href="#aDhiRrph" opacity="1" fill="#3f65c6" fill-opacity="1"></use><g><use xlink:href="#aDhiRrph" opacity="1" fill-opacity="0" stroke="#000000" stroke-width="1" stroke-opacity="0"></use></g></g><g><use xlink:href="#d1Atczufv" opacity="1" fill="#889cf9" fill-opacity="1"></use><g><use xlink:href="#d1Atczufv" opacity="1" fill-opacity="0" stroke="#000000" stroke-width="1" stroke-opacity="0"></use></g></g><g><use xlink:href="#b3vDoFMUO" opacity="0.62" fill="#ffffff" fill-opacity="1"></use><g><use xlink:href="#b3vDoFMUO" opacity="0.62" fill-opacity="0" stroke="#000000" stroke-width="1" stroke-opacity="0"></use></g></g><g><use xlink:href="#n1reE3ADZg" opacity="1" fill="#6969ba" fill-opacity="1"></use><g><use xlink:href="#n1reE3ADZg" opacity="1" fill-opacity="0" stroke="#000000" stroke-width="1" stroke-opacity="0"></use></g></g><g><use xlink:href="#bk65LMt8A" opacity="1" fill="#5050b1" fill-opacity="1"></use><g><use xlink:href="#bk65LMt8A" opacity="1" fill-opacity="0" stroke="#000000" stroke-width="1" stroke-opacity="0"></use></g></g><g><use xlink:href="#c2Tldjeon4" opacity="1" fill="#ffffff" fill-opacity="1"></use><g><use xlink:href="#c2Tldjeon4" opacity="1" fill-opacity="0" stroke="#000000" stroke-width="1" stroke-opacity="0"></use></g></g><g><use xlink:href="#a6iNtR5QE" opacity="1" fill="#58595b" fill-opacity="1"></use><g><use xlink:href="#a6iNtR5QE" opacity="1" fill-opacity="0" stroke="#000000" stroke-width="1" stroke-opacity="0"></use></g></g><g><use xlink:href="#c2EK3dsbrp" opacity="1" fill="#6868ba" fill-opacity="1"></use><g><use xlink:href="#c2EK3dsbrp" opacity="1" fill-opacity="0" stroke="#000000" stroke-width="1" stroke-opacity="0"></use></g></g><g><use xlink:href="#eHIxYQngR" opacity="1" fill="#ffffff" fill-opacity="1"></use><g><use xlink:href="#eHIxYQngR" opacity="1" fill-opacity="0" stroke="#000000" stroke-width="1" stroke-opacity="0"></use></g></g><g><use xlink:href="#cqsBZFxMt" opacity="1" fill="#58595b" fill-opacity="1"></use><g><use xlink:href="#cqsBZFxMt" opacity="1" fill-opacity="0" stroke="#000000" stroke-width="1" stroke-opacity="0"></use></g></g></g></svg>